<?xml version="1.0" encoding="UTF-8" standalone="no"?>
<!DOCTYPE svg PUBLIC "-//W3C//DTD SVG 1.1//EN" "http://www.w3.org/Graphics/SVG/1.1/DTD/svg11.dtd">
<svg width="100%" height="100%" viewBox="0 0 590 523" version="1.1" xmlns="http://www.w3.org/2000/svg" xmlns:xlink="http://www.w3.org/1999/xlink" xml:space="preserve" xmlns:serif="http://www.serif.com/" style="fill-rule:evenodd;clip-rule:evenodd;">
    <rect id="Artboard1" x="0" y="0" width="589.401" height="522.212" style="fill:none;"/>
    <g>
        <path d="M284.087,378.907c-0,0.55 -0.45,1 -1,1c-0.55,-0 -1,-0.45 -1,-1c-0,-0.56 0.45,-1 1,-1c0.55,-0 1,0.44 1,1Zm5.55,-0c-0,0.55 -0.45,1 -1,1c-0.55,-0 -1,-0.45 -1,-1c-0,-0.56 0.45,-1 1,-1c0.55,-0 1,0.44 1,1Zm3.7,-0.6c-0,0.56 -0.44,1 -1,1c-0.55,-0 -1,-0.44 -1,-1c-0,-0.54 0.45,-1 1,-1c0.56,-0 1,0.46 1,1Zm3.35,-1.7c-0,0.56 -0.45,1 -1,1c-0.55,-0 -1,-0.44 -1,-1c-0,-0.55 0.45,-1 1,-1c0.55,-0 1,0.45 1,1Zm2.66,-2.65c-0,0.56 -0.44,1 -1,1c-0.55,-0 -1,-0.44 -1,-1c-0,-0.54 0.45,-1 1,-1c0.56,-0 1,0.46 1,1Zm1.7,-3.34c-0,0.56 -0.44,1 -1,1c-0.54,-0 -1,-0.44 -1,-1c-0,-0.55 0.46,-1 1,-1c0.56,-0 1,0.45 1,1Zm0.6,-3.7c-0,0.55 -0.45,1 -1,1c-0.55,-0 -1,-0.45 -1,-1c-0,-0.56 0.45,-1 1,-1c0.55,-0 1,0.44 1,1Zm-0,-4.02c-0,0.55 -0.45,1 -1,1c-0.55,-0 -1,-0.45 -1,-1c-0,-0.55 0.45,-1 1,-1c0.55,-0 1,0.45 1,1Zm-0,-4c-0,0.54 -0.45,1 -1,1c-0.55,-0 -1,-0.46 -1,-1c-0,-0.57 0.45,-1 1,-1c0.55,-0 1,0.43 1,1Zm-0,-4.03c-0,0.56 -0.45,1 -1,1c-0.55,-0 -1,-0.44 -1,-1c-0,-0.54 0.45,-1 1,-1c0.55,-0 1,0.46 1,1Zm-0,-4c-0,0.55 -0.45,1 -1,1c-0.55,-0 -1,-0.45 -1,-1c-0,-0.56 0.45,-1 1,-1c0.55,-0 1,0.44 1,1Zm-0,-4.02c-0,0.55 -0.45,1 -1,1c-0.55,-0 -1,-0.45 -1,-1c-0,-0.55 0.45,-1 1,-1c0.55,-0 1,0.45 1,1Zm-0,-4c-0,0.54 -0.45,1 -1,1c-0.55,-0 -1,-0.46 -1,-1c-0,-0.57 0.45,-1 1,-1c0.55,-0 1,0.43 1,1Zm-0,-4.03c-0,0.55 -0.45,1 -1,1c-0.55,-0 -1,-0.45 -1,-1c-0,-0.55 0.45,-1 1,-1c0.55,-0 1,0.45 1,1Zm-0,-4c-0,0.54 -0.45,1 -1,1c-0.55,-0 -1,-0.46 -1,-1c-0,-0.57 0.45,-1 1,-1c0.55,-0 1,0.43 1,1Zm-0,-4.03c-0,0.55 -0.45,1 -1,1c-0.55,-0 -1,-0.45 -1,-1c-0,-0.55 0.45,-1 1,-1c0.55,-0 1,0.45 1,1Zm-0,-4c-0,0.54 -0.45,1 -1,1c-0.55,-0 -1,-0.46 -1,-1c-0,-0.57 0.45,-1 1,-1c0.55,-0 1,0.43 1,1Zm-0,-4.03c-0,0.54 -0.45,1 -1,1c-0.55,-0 -1,-0.46 -1,-1c-0,-0.56 0.45,-1 1,-1c0.55,-0 1,0.44 1,1Zm-0,-4.02c-0,0.55 -0.45,1 -1,1c-0.55,-0 -1,-0.45 -1,-1c-0,-0.56 0.45,-1 1,-1c0.55,-0 1,0.44 1,1Zm-0,-4.02c-0,0.55 -0.45,1 -1,1c-0.55,-0 -1,-0.45 -1,-1c-0,-0.55 0.45,-1 1,-1c0.55,-0 1,0.45 1,1Zm-0,-4c-0,0.54 -0.45,1 -1,1c-0.55,-0 -1,-0.46 -1,-1c-0,-0.57 0.45,-1 1,-1c0.55,-0 1,0.43 1,1Zm-0,-4.03c-0,0.55 -0.45,1 -1,1c-0.55,-0 -1,-0.45 -1,-1c-0,-0.55 0.45,-1 1,-1c0.55,-0 1,0.45 1,1Zm-0,-4c-0,0.54 -0.45,1 -1,1c-0.55,-0 -1,-0.46 -1,-1c-0,-0.57 0.45,-1 1,-1c0.55,-0 1,0.43 1,1Zm-0,-4.03c-0,0.55 -0.45,1 -1,1c-0.55,-0 -1,-0.45 -1,-1c-0,-0.55 0.45,-1 1,-1c0.55,-0 1,0.45 1,1Zm-0,-4c-0,0.54 -0.45,1 -1,1c-0.55,-0 -1,-0.46 -1,-1c-0,-0.57 0.45,-1 1,-1c0.55,-0 1,0.43 1,1Zm-0,-4.03c-0,0.55 -0.45,1 -1,1c-0.55,-0 -1,-0.45 -1,-1c-0,-0.55 0.45,-1 1,-1c0.55,-0 1,0.45 1,1Zm-0,-4c-0,0.54 -0.45,1 -1,1c-0.55,-0 -1,-0.46 -1,-1c-0,-0.57 0.45,-1 1,-1c0.55,-0 1,0.43 1,1Zm-0,-4.03c-0,0.55 -0.45,1 -1,1c-0.55,-0 -1,-0.45 -1,-1c-0,-0.55 0.45,-1 1,-1c0.55,-0 1,0.45 1,1Zm-0,-4c-0,0.54 -0.45,1 -1,1c-0.55,-0 -1,-0.46 -1,-1c-0,-0.57 0.45,-1 1,-1c0.55,-0 1,0.43 1,1Zm-0,-4.03c-0,0.56 -0.45,1 -1,1c-0.55,-0 -1,-0.44 -1,-1c-0,-0.54 0.45,-1 1,-1c0.55,-0 1,0.46 1,1Zm-0,-4c-0,0.55 -0.45,1 -1,1c-0.55,-0 -1,-0.45 -1,-1c-0,-0.55 0.45,-1 1,-1c0.55,-0 1,0.45 1,1Zm-0,-4.02c-0,0.56 -0.45,1 -1,1c-0.55,-0 -1,-0.44 -1,-1c-0,-0.55 0.45,-1 1,-1c0.55,-0 1,0.45 1,1Zm-0,-4c-0,0.54 -0.45,1 -1,1c-0.55,-0 -1,-0.46 -1,-1c-0,-0.56 0.45,-1 1,-1c0.55,-0 1,0.44 1,1Zm-0,-4.03c-0,0.56 -0.45,1 -1,1c-0.55,-0 -1,-0.44 -1,-1c-0,-0.55 0.45,-1 1,-1c0.55,-0 1,0.45 1,1Zm-0,-4c-0,0.54 -0.45,1 -1,1c-0.55,-0 -1,-0.46 -1,-1c-0,-0.57 0.45,-1 1,-1c0.55,-0 1,0.43 1,1Zm-0,-4.03c-0,0.56 -0.45,1 -1,1c-0.55,-0 -1,-0.44 -1,-1c-0,-0.55 0.45,-1 1,-1c0.55,-0 1,0.45 1,1Zm-0,-4c-0,0.54 -0.45,1 -1,1c-0.55,-0 -1,-0.46 -1,-1c-0,-0.57 0.45,-1 1,-1c0.55,-0 1,0.43 1,1Zm-0,-4.03c-0,0.55 -0.45,1 -1,1c-0.55,-0 -1,-0.45 -1,-1c-0,-0.56 0.45,-1 1,-1c0.55,-0 1,0.44 1,1Zm-0,-4.02c-0,0.55 -0.45,1 -1,1c-0.55,-0 -1,-0.45 -1,-1c-0,-0.56 0.45,-1 1,-1c0.55,-0 1,0.44 1,1Zm-0,-4.02c-0,0.56 -0.45,1 -1,1c-0.55,-0 -1,-0.44 -1,-1c-0,-0.55 0.45,-1 1,-1c0.55,-0 1,0.45 1,1Zm-0,-4c-0,0.54 -0.45,1 -1,1c-0.55,-0 -1,-0.46 -1,-1c-0,-0.56 0.45,-1 1,-1c0.55,-0 1,0.44 1,1Zm-0,-4.03c-0,0.55 -0.45,1 -1,1c-0.55,-0 -1,-0.45 -1,-1c-0,-0.55 0.45,-1 1,-1c0.55,-0 1,0.45 1,1Zm-0,-4c-0,0.54 -0.45,1 -1,1c-0.55,-0 -1,-0.46 -1,-1c-0,-0.56 0.45,-1 1,-1c0.55,-0 1,0.44 1,1Zm-0,-4.03c-0,0.55 -0.45,1 -1,1c-0.55,-0 -1,-0.45 -1,-1c-0,-0.55 0.45,-1 1,-1c0.55,-0 1,0.45 1,1Zm-0,-4c-0,0.54 -0.45,1 -1,1c-0.55,-0 -1,-0.46 -1,-1c-0,-0.56 0.45,-1 1,-1c0.55,-0 1,0.44 1,1Zm-0,-4.03c-0,0.56 -0.45,1 -1,1c-0.55,-0 -1,-0.44 -1,-1c-0,-0.55 0.45,-1 1,-1c0.55,-0 1,0.45 1,1Zm-0,-4c-0,0.54 -0.45,1 -1,1c-0.55,-0 -1,-0.46 -1,-1c-0,-0.56 0.45,-1 1,-1c0.55,-0 1,0.44 1,1Zm-0,-4.03c-0,0.56 -0.45,1 -1,1c-0.55,-0 -1,-0.44 -1,-1c-0,-0.55 0.45,-1 1,-1c0.55,-0 1,0.45 1,1Zm-0,-4c-0,0.54 -0.45,1 -1,1c-0.55,-0 -1,-0.46 -1,-1c-0,-0.56 0.45,-1 1,-1c0.55,-0 1,0.44 1,1Zm-0,-4.03c-0,0.57 -0.45,1 -1,1c-0.55,-0 -1,-0.43 -1,-1c-0,-0.54 0.45,-1 1,-1c0.55,-0 1,0.46 1,1Zm-0,-4c-0,0.55 -0.45,1 -1,1c-0.55,-0 -1,-0.45 -1,-1c-0,-0.55 0.45,-1 1,-1c0.55,-0 1,0.45 1,1Zm-0,-4.02c-0,0.56 -0.45,1 -1,1c-0.55,-0 -1,-0.44 -1,-1c-0,-0.55 0.45,-1 1,-1c0.55,-0 1,0.45 1,1Zm-0,-4c-0,0.54 -0.45,1 -1,1c-0.55,-0 -1,-0.46 -1,-1c-0,-0.56 0.45,-1 1,-1c0.55,-0 1,0.44 1,1Zm-0,-4.03c-0,0.56 -0.45,1 -1,1c-0.55,-0 -1,-0.44 -1,-1c-0,-0.55 0.45,-1 1,-1c0.55,-0 1,0.45 1,1Zm-0,-4c-0,0.54 -0.45,1 -1,1c-0.55,-0 -1,-0.46 -1,-1c-0,-0.56 0.45,-1 1,-1c0.55,-0 1,0.44 1,1Zm-0,-4.03c-0,0.56 -0.45,1 -1,1c-0.55,-0 -1,-0.44 -1,-1c-0,-0.55 0.45,-1 1,-1c0.55,-0 1,0.45 1,1Zm-0,-4c-0,0.54 -0.45,1 -1,1c-0.55,-0 -1,-0.46 -1,-1c-0,-0.56 0.45,-1 1,-1c0.55,-0 1,0.44 1,1Zm-0,-4.03c-0,0.55 -0.45,1 -1,1c-0.55,-0 -1,-0.45 -1,-1c-0,-0.56 0.45,-1 1,-1c0.55,-0 1,0.44 1,1Zm-0,-4.02c-0,0.55 -0.45,1 -1,1c-0.55,-0 -1,-0.45 -1,-1c-0,-0.55 0.45,-1 1,-1c0.55,-0 1,0.45 1,1Zm-0,-4.02c-0,0.56 -0.45,1 -1,1c-0.55,-0 -1,-0.44 -1,-1c-0,-0.55 0.45,-1 1,-1c0.55,-0 1,0.45 1,1Zm-0,-4c-0,0.54 -0.45,1 -1,1c-0.55,-0 -1,-0.46 -1,-1c-0,-0.56 0.45,-1 1,-1c0.55,-0 1,0.44 1,1Zm-0,-4.03c-0,0.56 -0.45,1 -1,1c-0.55,-0 -1,-0.44 -1,-1c-0,-0.55 0.45,-1 1,-1c0.55,-0 1,0.45 1,1Zm-0,-4c-0,0.54 -0.45,1 -1,1c-0.55,-0 -1,-0.46 -1,-1c-0,-0.56 0.45,-1 1,-1c0.55,-0 1,0.44 1,1Zm-0,-4.03c-0,0.56 -0.45,1 -1,1c-0.55,-0 -1,-0.44 -1,-1c-0,-0.55 0.45,-1 1,-1c0.55,-0 1,0.45 1,1Zm-0,-4c-0,0.54 -0.45,1 -1,1c-0.55,-0 -1,-0.46 -1,-1c-0,-0.56 0.45,-1 1,-1c0.55,-0 1,0.44 1,1Zm-0,-4.02c-0,0.55 -0.45,1 -1,1c-0.55,-0 -1,-0.45 -1,-1c-0,-0.56 0.45,-1 1,-1c0.55,-0 1,0.44 1,1Zm-0,-4.02c-0,0.55 -0.45,1 -1,1c-0.55,-0 -1,-0.45 -1,-1c-0,-0.55 0.45,-1 1,-1c0.55,-0 1,0.45 1,1Zm-0,-4c-0,0.54 -0.45,1 -1,1c-0.55,-0 -1,-0.46 -1,-1c-0,-0.57 0.45,-1 1,-1c0.55,-0 1,0.43 1,1Zm-0,-4.03c-0,0.55 -0.45,1 -1,1c-0.55,-0 -1,-0.45 -1,-1c-0,-0.55 0.45,-1 1,-1c0.55,-0 1,0.45 1,1Zm-0,-4c-0,0.54 -0.45,1 -1,1c-0.55,-0 -1,-0.46 -1,-1c-0,-0.57 0.45,-1 1,-1c0.55,-0 1,0.43 1,1Zm-0,-4.03c-0,0.55 -0.45,1 -1,1c-0.55,-0 -1,-0.45 -1,-1c-0,-0.55 0.45,-1 1,-1c0.55,-0 1,0.45 1,1Zm0.58,-3.7c-0,0.54 -0.44,1 -1,1c-0.55,-0 -1,-0.46 -1,-1c-0,-0.56 0.45,-1 1,-1c0.56,-0 1,0.44 1,1Zm1.7,-3.35c-0,0.55 -0.44,1 -1,1c-0.54,-0 -1,-0.45 -1,-1c-0,-0.56 0.46,-1 1,-1c0.56,-0 1,0.44 1,1Zm2.67,-2.66c-0,0.54 -0.45,1 -1,1c-0.56,-0 -1,-0.46 -1,-1c-0,-0.56 0.44,-1 1,-1c0.55,-0 1,0.44 1,1Zm3.34,-1.7c-0,0.54 -0.46,1 -1,1c-0.56,-0 -1,-0.46 -1,-1c-0,-0.56 0.44,-1 1,-1c0.54,-0 1,0.44 1,1Zm3.7,-0.6c-0,0.55 -0.45,1 -1,1c-0.55,-0 -1,-0.45 -1,-1c-0,-0.55 0.45,-1 1,-1c0.55,-0 1,0.45 1,1Zm3.36,-0c-0,0.55 -0.45,1 -1,1c-0.55,-0 -1,-0.45 -1,-1c-0,-0.55 0.45,-1 1,-1c0.55,-0 1,0.45 1,1Z" style="fill:#008aff;fill-rule:nonzero;"/>
        <path d="M283.087,388.907l-0,-20m-20,10l20,-0" style="fill:#fff;fill-rule:nonzero;stroke:#008aff;stroke-width:2px;"/>
        <path d="M337.737,107.947l-20,-10l20,-10" style="fill:#fff;fill-opacity:0;fill-rule:nonzero;stroke:#008aff;stroke-width:2px;"/>
        <path d="M337.737,97.947l-20,-0" style="fill:none;fill-rule:nonzero;stroke:#008aff;stroke-width:2px;"/>
        <path d="M37.087,45.447c-0,-2.743 2.257,-5 5,-5l215,-0c2.743,-0 5,2.257 5,5l-0,450c-0,2.743 -2.257,5 -5,5l-215,-0c-2.743,-0 -5,-2.257 -5,-5l-0,-450Z" style="fill-rule:nonzero;"/>
        <path d="M37.087,115.447l-0,36l225,-0l-0,-36m-225,70l-0,36l225,-0l-0,-36m-225,70l-0,36l225,-0l-0,-36m-225,70l-0,36l225,-0l-0,-36m-225,70l-0,36l225,-0l-0,-36m-225,70l-0,30c-0,2.743 2.257,5 5,5l215,-0c2.743,-0 5,-2.257 5,-5l-0,-30" style="fill:#1a1a1a;fill-rule:nonzero;"/>
        <path d="M37.087,80.447l-0,-35c-0,-2.743 2.257,-5 5,-5l215,-0c2.743,-0 5,2.257 5,5l-0,35" style="fill:#008aff;fill-rule:nonzero;"/>
        <path d="M37.087,45.447c-0,-2.743 2.257,-5 5,-5l215,-0c2.743,-0 5,2.257 5,5l-0,450c-0,2.743 -2.257,5 -5,5l-215,-0c-2.743,-0 -5,-2.257 -5,-5l-0,-450Zm-0,35l225,-0" style="fill:none;fill-rule:nonzero;stroke:#1071e5;stroke-width:2px;"/>
        <g id="a">
            <path id="p" d="M68.756,56.763c-0.494,-1.383 -1.729,-2.222 -3.605,-2.222c-2.914,-0 -4.296,1.975 -4.296,4.888c-0,2.963 1.432,4.988 4.395,4.988c2.123,0 3.061,-1.185 3.851,-2.568l1.334,0.692c-0.889,1.876 -2.519,3.259 -5.284,3.259c-3.951,-0 -5.778,-2.469 -5.976,-6.371c-0.296,-5.135 4.889,-7.555 9.235,-5.481c0.938,0.444 1.531,1.284 1.926,2.272" style="fill:#fff;fill-rule:nonzero;"/>
            <path id="q" d="M76.015,56.022c3.062,-0.049 4.198,1.827 4.198,4.889c0.049,3.111 -1.334,4.889 -4.247,4.889c-2.914,-0 -4.099,-1.926 -4.149,-4.889c0,-3.259 1.383,-4.889 4.198,-4.889Zm-0.049,8.593c2.172,0.049 2.617,-1.531 2.617,-3.704c-0,-2.124 -0.395,-3.704 -2.519,-3.704c-2.123,0 -2.617,1.58 -2.617,3.704c0,2.123 0.494,3.654 2.519,3.704" style="fill:#fff;fill-rule:nonzero;"/>
            <path id="r" d="M91.324,57.257c-3.309,0.148 -1.877,5.185 -2.173,8.345l-1.531,0l-0,-5.975c-0,-1.432 -0.247,-2.469 -1.728,-2.37c-3.26,0.197 -1.877,5.135 -2.173,8.345l-1.531,0l-0.05,-9.382l1.482,-0c0.049,0.493 -0.049,1.185 0.099,1.58c0.494,-2.173 4.889,-2.469 5.284,-0c0.543,-1.037 1.333,-1.729 2.864,-1.778c4.197,-0.099 2.321,5.877 2.716,9.58l-1.531,0l0,-5.975c0,-1.432 -0.247,-2.42 -1.728,-2.37" style="fill:#fff;fill-rule:nonzero;"/>
            <path id="s" d="M101.398,56.022c2.716,0.049 3.457,2.025 3.457,4.84c-0,2.814 -0.791,4.839 -3.457,4.938c-1.531,-0 -2.42,-0.642 -2.963,-1.679l0.049,5.185l-1.58,-0l-0.049,-13.086l1.53,-0l0.099,1.481c0.494,-1.037 1.383,-1.679 2.914,-1.679Zm-0.395,8.593c1.975,-0 2.222,-1.679 2.222,-3.704c-0,-2.025 -0.296,-3.605 -2.222,-3.654c-2.074,-0 -2.519,1.58 -2.519,3.753c0,2.123 0.494,3.605 2.519,3.605" style="fill:#fff;fill-rule:nonzero;"/>
            <path id="t" d="M112.558,63.825c-0.741,1.037 -1.531,2.024 -3.358,1.975c-1.778,-0.05 -2.864,-1.037 -2.864,-2.815c-0.049,-3.16 3.111,-3.111 6.173,-3.111c0.148,-1.729 -0.445,-2.667 -2.025,-2.667c-1.185,0.05 -2.025,0.346 -2.074,1.531l-1.63,-0.148c0.247,-1.827 1.63,-2.568 3.754,-2.568c2.222,0 3.555,0.988 3.555,3.161l0,4.049c-0.049,0.988 0.346,1.58 1.383,1.333l-0,0.988c-1.531,0.444 -3.013,-0.099 -2.914,-1.728Zm-4.592,-0.84c-0,0.988 0.592,1.63 1.58,1.63c2.025,-0.149 3.111,-1.432 2.963,-3.655c-2.124,0.099 -4.543,-0.247 -4.543,2.025" style="fill:#fff;fill-rule:nonzero;"/>
            <path id="u" d="M121.25,56.022c4.395,-0.197 2.617,5.728 2.963,9.58l-1.581,0l0,-5.975c0,-1.531 -0.395,-2.42 -1.926,-2.37c-3.555,0.098 -2.172,5.037 -2.419,8.345l-1.581,0l-0.049,-9.382l1.481,-0c0.05,0.493 -0.049,1.185 0.099,1.58c0.543,-1.087 1.432,-1.729 3.013,-1.778" style="fill:#fff;fill-rule:nonzero;"/>
            <path id="v" d="M126.534,54.195l-0,-1.482l1.58,0l-0,1.482l-1.58,-0Zm-0,11.407l-0,-9.382l1.58,-0l-0,9.382l-1.58,0" style="fill:#fff;fill-rule:nonzero;"/>
            <path id="t1" serif:id="t" d="M136.213,63.825c-0.741,1.037 -1.531,2.024 -3.358,1.975c-1.778,-0.05 -2.865,-1.037 -2.865,-2.815c-0.049,-3.16 3.111,-3.111 6.173,-3.111c0.148,-1.729 -0.444,-2.667 -2.025,-2.667c-1.185,0.05 -2.024,0.346 -2.074,1.531l-1.629,-0.148c0.247,-1.827 1.629,-2.568 3.753,-2.568c2.222,0 3.555,0.988 3.555,3.161l0,4.049c-0.049,0.988 0.346,1.58 1.383,1.333l0,0.988c-1.531,0.444 -3.012,-0.099 -2.913,-1.728Zm-4.593,-0.84c-0,0.988 0.593,1.63 1.58,1.63c2.025,-0.149 3.111,-1.432 2.963,-3.655c-2.123,0.099 -4.543,-0.247 -4.543,2.025" style="fill:#fff;fill-rule:nonzero;"/>
        </g>
        <g id="b">
            <path id="w" d="M54.916,103.102l0,-12.247l1.679,0l0,12.247l-1.679,0" style="fill:#fff;fill-rule:nonzero;"/>
            <path id="x" d="M62.422,93.522c1.531,0 2.371,0.642 2.963,1.63l-0.049,-4.939l1.58,0l0.05,12.889l-1.482,0c-0.099,-0.494 0,-1.136 -0.148,-1.531c-0.494,1.136 -1.383,1.729 -2.914,1.729c-2.617,-0 -3.407,-1.926 -3.456,-4.84c-0,-3.259 1.135,-4.938 3.456,-4.938Zm0.445,1.185c-1.975,0 -2.272,1.679 -2.272,3.704c0,1.975 0.297,3.654 2.222,3.654c2.075,0 2.519,-1.58 2.519,-3.753c-0,-2.074 -0.444,-3.654 -2.469,-3.605" style="fill:#fff;fill-rule:nonzero;"/>
        </g>
        <g id="c">
            <path id="u1" serif:id="u" d="M59.064,128.522c4.395,-0.197 2.618,5.728 2.963,9.58l-1.58,0l0,-5.975c0,-1.531 -0.395,-2.42 -1.926,-2.37c-3.555,0.098 -2.173,5.037 -2.42,8.345l-1.58,0l-0.049,-9.382l1.481,-0c0.05,0.493 -0.049,1.185 0.099,1.58c0.543,-1.087 1.432,-1.729 3.012,-1.778" style="fill:#fff;fill-rule:nonzero;"/>
            <path id="q1" serif:id="q" d="M68.101,128.522c3.062,-0.049 4.198,1.827 4.198,4.889c0.049,3.111 -1.333,4.889 -4.247,4.889c-2.914,-0 -4.099,-1.926 -4.148,-4.889c-0,-3.259 1.383,-4.889 4.197,-4.889Zm-0.049,8.593c2.173,0.049 2.617,-1.531 2.617,-3.704c0,-2.124 -0.395,-3.704 -2.518,-3.704c-2.124,0 -2.617,1.58 -2.617,3.704c-0,2.123 0.493,3.654 2.518,3.704" style="fill:#fff;fill-rule:nonzero;"/>
            <path id="r1" serif:id="r" d="M83.41,129.757c-3.309,0.148 -1.876,5.185 -2.173,8.345l-1.531,0l0,-5.975c0,-1.432 -0.247,-2.469 -1.728,-2.37c-3.259,0.197 -1.877,5.135 -2.173,8.345l-1.531,0l-0.049,-9.382l1.481,-0c0.05,0.493 -0.049,1.185 0.099,1.58c0.494,-2.173 4.889,-2.469 5.284,-0c0.543,-1.037 1.333,-1.729 2.864,-1.778c4.198,-0.099 2.321,5.877 2.716,9.58l-1.531,0l0,-5.975c0,-1.432 -0.246,-2.42 -1.728,-2.37" style="fill:#fff;fill-rule:nonzero;"/>
            <path id="y" d="M93.484,128.522c2.617,0 3.408,1.926 3.457,4.84c-0,3.259 -1.136,4.938 -3.457,4.938c-1.531,-0.05 -2.42,-0.543 -2.913,-1.679l-0.099,1.481l-1.531,0l0.049,-12.889l1.581,0l-0,4.988c0.493,-1.136 1.382,-1.679 2.913,-1.679Zm-0.395,8.593c1.975,-0 2.222,-1.679 2.222,-3.704c0,-1.975 -0.247,-3.704 -2.222,-3.654c-2.074,-0 -2.518,1.58 -2.518,3.753c-0,2.123 0.493,3.605 2.518,3.605" style="fill:#fff;fill-rule:nonzero;"/>
            <path id="z" d="M103.311,130.053c-3.852,-0.79 -2.617,4.494 -2.815,8.049l-1.58,0l-0.049,-9.382l1.481,-0c0.05,0.592 -0.049,1.432 0.099,1.925c0.296,-1.333 1.136,-2.419 2.864,-2.024l0,1.432" style="fill:#fff;fill-rule:nonzero;"/>
            <path id="A" d="M108.496,128.522c3.112,0 4.247,2.074 4.149,5.235l-6.667,-0c-0,1.975 0.691,3.308 2.617,3.358c1.284,0.049 2.124,-0.593 2.42,-1.432l1.383,0.395c-0.543,1.382 -1.827,2.222 -3.803,2.222c-2.864,-0 -4.345,-1.827 -4.296,-4.938c0.049,-3.013 1.284,-4.84 4.197,-4.84Zm2.568,4c0.297,-2.963 -3.753,-3.802 -4.79,-1.383c-0.148,0.346 -0.296,0.84 -0.296,1.383l5.086,0" style="fill:#fff;fill-rule:nonzero;"/>
        </g>
        <g id="d">
            <path id="u2" serif:id="u" d="M59.064,163.522c4.395,-0.197 2.618,5.728 2.963,9.58l-1.58,0l0,-5.975c0,-1.531 -0.395,-2.42 -1.926,-2.37c-3.555,0.098 -2.173,5.037 -2.42,8.345l-1.58,0l-0.049,-9.382l1.481,-0c0.05,0.493 -0.049,1.185 0.099,1.58c0.543,-1.087 1.432,-1.729 3.012,-1.778" style="fill:#fff;fill-rule:nonzero;"/>
            <path id="v1" serif:id="v" d="M64.348,161.695l0,-1.482l1.581,0l-0,1.482l-1.581,-0Zm0,11.407l0,-9.382l1.581,-0l-0,9.382l-1.581,0" style="fill:#fff;fill-rule:nonzero;"/>
            <path id="B" d="M69.978,170.781c-0.099,1.185 0.889,1.432 1.877,1.087l-0,1.185c-1.63,0.494 -3.457,0.247 -3.457,-1.926l-0,-6.272l-1.087,0l0,-1.135l1.185,-0l0.445,-2.124l1.037,0l-0,2.124l1.728,-0l0,1.135l-1.728,0l-0,5.926" style="fill:#fff;fill-rule:nonzero;"/>
        </g>
        <g id="e">
            <path id="x1" serif:id="x" d="M57.484,198.522c1.531,0 2.371,0.642 2.963,1.63l-0.049,-4.939l1.58,0l0.049,12.889l-1.481,0c-0.099,-0.494 -0,-1.136 -0.148,-1.531c-0.494,1.136 -1.383,1.729 -2.914,1.729c-2.617,-0 -3.407,-1.926 -3.457,-4.84c0,-3.259 1.136,-4.938 3.457,-4.938Zm0.445,1.185c-1.976,0 -2.272,1.679 -2.272,3.704c-0,1.975 0.296,3.654 2.222,3.654c2.074,0 2.519,-1.58 2.519,-3.753c-0,-2.074 -0.445,-3.654 -2.469,-3.605" style="fill:#fff;fill-rule:nonzero;"/>
            <path id="v2" serif:id="v" d="M64.348,196.695l0,-1.482l1.581,0l-0,1.482l-1.581,-0Zm0,11.407l0,-9.382l1.581,-0l-0,9.382l-1.581,0" style="fill:#fff;fill-rule:nonzero;"/>
            <path id="z1" serif:id="z" d="M72.694,200.053c-3.852,-0.79 -2.617,4.494 -2.815,8.049l-1.58,0l-0.049,-9.382l1.481,-0c0.049,0.592 -0.049,1.432 0.099,1.925c0.296,-1.333 1.136,-2.419 2.864,-2.024l0,1.432" style="fill:#fff;fill-rule:nonzero;"/>
            <path id="A1" serif:id="A" d="M77.879,198.522c3.111,0 4.247,2.074 4.148,5.235l-6.666,-0c-0,1.975 0.691,3.308 2.617,3.358c1.284,0.049 2.123,-0.593 2.42,-1.432l1.382,0.395c-0.543,1.382 -1.827,2.222 -3.802,2.222c-2.864,-0 -4.346,-1.827 -4.296,-4.938c0.049,-3.013 1.284,-4.84 4.197,-4.84Zm2.568,4c0.296,-2.963 -3.753,-3.802 -4.79,-1.383c-0.148,0.346 -0.296,0.84 -0.296,1.383l5.086,0" style="fill:#fff;fill-rule:nonzero;"/>
            <path id="C" d="M87.558,199.757c-1.975,-0 -2.37,1.629 -2.37,3.605c-0,1.975 0.444,3.703 2.37,3.703c1.185,0 2.025,-0.691 2.124,-1.876l1.58,0.098c-0.296,1.828 -1.531,3.013 -3.654,3.013c-2.914,-0 -3.753,-2.025 -4.05,-4.889c-0.494,-4.593 4.988,-6.469 7.259,-3.161c0.198,0.346 0.247,0.692 0.346,1.087l-1.58,0.148c-0.198,-1.037 -0.79,-1.728 -2.025,-1.728" style="fill:#fff;fill-rule:nonzero;"/>
            <path id="C1" serif:id="C" d="M96.447,199.757c-1.975,-0 -2.37,1.629 -2.37,3.605c-0,1.975 0.444,3.703 2.37,3.703c1.185,0 2.025,-0.691 2.124,-1.876l1.58,0.098c-0.296,1.828 -1.531,3.013 -3.655,3.013c-2.913,-0 -3.753,-2.025 -4.049,-4.889c-0.494,-4.593 4.988,-6.469 7.259,-3.161c0.198,0.346 0.247,0.692 0.346,1.087l-1.58,0.148c-0.198,-1.037 -0.79,-1.728 -2.025,-1.728" style="fill:#fff;fill-rule:nonzero;"/>
            <path id="v3" serif:id="v" d="M101.78,196.695l0,-1.482l1.581,0l-0,1.482l-1.581,-0Zm0,11.407l0,-9.382l1.581,-0l-0,9.382l-1.581,0" style="fill:#fff;fill-rule:nonzero;"/>
            <path id="q2" serif:id="q" d="M109.435,198.522c3.061,-0.049 4.197,1.827 4.197,4.889c0.05,3.111 -1.333,4.889 -4.247,4.889c-2.913,-0 -4.098,-1.926 -4.148,-4.889c0,-3.259 1.383,-4.889 4.198,-4.889Zm-0.05,8.593c2.173,0.049 2.618,-1.531 2.618,-3.704c-0,-2.124 -0.395,-3.704 -2.519,-3.704c-2.123,0 -2.617,1.58 -2.617,3.704c-0,2.123 0.494,3.654 2.518,3.704" style="fill:#fff;fill-rule:nonzero;"/>
            <path id="u3" serif:id="u" d="M120.151,198.522c4.395,-0.197 2.617,5.728 2.963,9.58l-1.58,0l-0,-5.975c-0,-1.531 -0.396,-2.42 -1.926,-2.37c-3.556,0.098 -2.173,5.037 -2.42,8.345l-1.58,0l-0.05,-9.382l1.482,-0c0.049,0.493 -0.05,1.185 0.098,1.58c0.544,-1.087 1.433,-1.729 3.013,-1.778" style="fill:#fff;fill-rule:nonzero;"/>
        </g>
        <g id="f">
            <path id="C2" serif:id="C" d="M58.027,234.757c-1.975,-0 -2.37,1.629 -2.37,3.605c-0,1.975 0.444,3.703 2.37,3.703c1.186,0 2.025,-0.691 2.124,-1.876l1.58,0.098c-0.296,1.828 -1.531,3.013 -3.654,3.013c-2.914,-0 -3.753,-2.025 -4.05,-4.889c-0.493,-4.593 4.988,-6.469 7.26,-3.161c0.197,0.346 0.247,0.692 0.345,1.087l-1.58,0.148c-0.197,-1.037 -0.79,-1.728 -2.025,-1.728" style="fill:#fff;fill-rule:nonzero;"/>
            <path id="q3" serif:id="q" d="M67.114,233.522c3.061,-0.049 4.197,1.827 4.197,4.889c0.05,3.111 -1.333,4.889 -4.247,4.889c-2.913,-0 -4.098,-1.926 -4.148,-4.889c0,-3.259 1.383,-4.889 4.198,-4.889Zm-0.05,8.593c2.173,0.049 2.618,-1.531 2.618,-3.704c-0,-2.124 -0.395,-3.704 -2.519,-3.704c-2.123,0 -2.617,1.58 -2.617,3.704c-0,2.123 0.494,3.654 2.518,3.704" style="fill:#fff;fill-rule:nonzero;"/>
            <path id="u4" serif:id="u" d="M77.83,233.522c4.395,-0.197 2.617,5.728 2.963,9.58l-1.58,0l-0,-5.975c-0,-1.531 -0.396,-2.42 -1.926,-2.37c-3.556,0.098 -2.173,5.037 -2.42,8.345l-1.58,0l-0.05,-9.382l1.482,-0c0.049,0.493 -0.05,1.185 0.098,1.58c0.544,-1.087 1.433,-1.729 3.013,-1.778" style="fill:#fff;fill-rule:nonzero;"/>
            <path id="B1" serif:id="B" d="M84.842,240.781c-0.099,1.185 0.889,1.432 1.877,1.087l-0,1.185c-1.63,0.494 -3.457,0.247 -3.457,-1.926l-0,-6.272l-1.087,0l0,-1.135l1.186,-0l0.444,-2.124l1.037,0l0,2.124l1.729,-0l-0,1.135l-1.729,0l0,5.926" style="fill:#fff;fill-rule:nonzero;"/>
            <path id="t2" serif:id="t" d="M93.83,241.325c-0.741,1.037 -1.531,2.024 -3.358,1.975c-1.778,-0.05 -2.864,-1.037 -2.864,-2.815c-0.05,-3.16 3.111,-3.111 6.172,-3.111c0.149,-1.729 -0.444,-2.667 -2.024,-2.667c-1.185,0.05 -2.025,0.346 -2.074,1.531l-1.63,-0.148c0.247,-1.827 1.63,-2.568 3.753,-2.568c2.222,0 3.556,0.988 3.556,3.161l-0,4.049c-0.05,0.988 0.345,1.58 1.382,1.333l0,0.988c-1.53,0.444 -3.012,-0.099 -2.913,-1.728Zm-4.593,-0.84c0,0.988 0.593,1.63 1.58,1.63c2.025,-0.149 3.112,-1.432 2.963,-3.655c-2.123,0.099 -4.543,-0.247 -4.543,2.025" style="fill:#fff;fill-rule:nonzero;"/>
            <path id="C3" serif:id="C" d="M101.484,234.757c-1.975,-0 -2.37,1.629 -2.37,3.605c-0,1.975 0.444,3.703 2.37,3.703c1.185,0 2.025,-0.691 2.124,-1.876l1.58,0.098c-0.296,1.828 -1.531,3.013 -3.654,3.013c-2.914,-0 -3.754,-2.025 -4.05,-4.889c-0.494,-4.593 4.988,-6.469 7.259,-3.161c0.198,0.346 0.247,0.692 0.346,1.087l-1.58,0.148c-0.198,-1.037 -0.79,-1.728 -2.025,-1.728" style="fill:#fff;fill-rule:nonzero;"/>
            <path id="B2" serif:id="B" d="M108.546,240.781c-0.099,1.185 0.889,1.432 1.876,1.087l0,1.185c-1.629,0.494 -3.456,0.247 -3.456,-1.926l-0,-6.272l-1.087,0l0,-1.135l1.185,-0l0.445,-2.124l1.037,0l-0,2.124l1.728,-0l0,1.135l-1.728,0l-0,5.926" style="fill:#fff;fill-rule:nonzero;"/>
            <path id="q4" serif:id="q" d="M115.509,233.522c3.062,-0.049 4.197,1.827 4.197,4.889c0.05,3.111 -1.333,4.889 -4.247,4.889c-2.913,-0 -4.098,-1.926 -4.148,-4.889c0,-3.259 1.383,-4.889 4.198,-4.889Zm-0.05,8.593c2.173,0.049 2.618,-1.531 2.618,-3.704c-0,-2.124 -0.395,-3.704 -2.519,-3.704c-2.123,0 -2.617,1.58 -2.617,3.704c-0,2.123 0.494,3.654 2.518,3.704" style="fill:#fff;fill-rule:nonzero;"/>
        </g>
        <g id="g">
            <path id="B3" serif:id="B" d="M56.2,275.781c-0.099,1.185 0.889,1.432 1.877,1.087l-0,1.185c-1.63,0.494 -3.457,0.247 -3.457,-1.926l-0,-6.272l-1.086,0l-0,-1.135l1.185,-0l0.444,-2.124l1.037,0l0,2.124l1.729,-0l-0,1.135l-1.729,0l0,5.926" style="fill:#fff;fill-rule:nonzero;"/>
            <path id="A2" serif:id="A" d="M63.163,268.522c3.111,0 4.247,2.074 4.148,5.235l-6.666,-0c-0,1.975 0.691,3.308 2.617,3.358c1.284,0.049 2.123,-0.593 2.42,-1.432l1.382,0.395c-0.543,1.382 -1.827,2.222 -3.802,2.222c-2.864,-0 -4.346,-1.827 -4.296,-4.938c0.049,-3.013 1.284,-4.84 4.197,-4.84Zm2.568,4c0.296,-2.963 -3.753,-3.802 -4.79,-1.383c-0.148,0.346 -0.296,0.84 -0.296,1.383l5.086,0" style="fill:#fff;fill-rule:nonzero;"/>
            <path id="D" d="M69.287,278.102l-0,-12.889l1.58,0l-0,12.889l-1.58,0" style="fill:#fff;fill-rule:nonzero;"/>
            <path id="A3" serif:id="A" d="M76.941,268.522c3.111,0 4.247,2.074 4.148,5.235l-6.667,-0c0,1.975 0.692,3.308 2.618,3.358c1.284,0.049 2.123,-0.593 2.419,-1.432l1.383,0.395c-0.543,1.382 -1.827,2.222 -3.802,2.222c-2.865,-0 -4.346,-1.827 -4.297,-4.938c0.05,-3.013 1.284,-4.84 4.198,-4.84Zm2.568,4c0.296,-2.963 -3.753,-3.802 -4.79,-1.383c-0.148,0.346 -0.297,0.84 -0.297,1.383l5.087,0" style="fill:#fff;fill-rule:nonzero;"/>
            <path id="E" d="M86.867,266.547c-1.531,-0.445 -2.074,0.494 -1.877,2.173l1.877,-0l-0,1.135l-1.877,0l0,8.247l-1.531,0l0,-8.247l-1.333,0l0,-1.135l1.333,-0c-0.345,-2.568 0.84,-4.05 3.408,-3.358l-0,1.185" style="fill:#fff;fill-rule:nonzero;"/>
            <path id="q5" serif:id="q" d="M91.756,268.522c3.061,-0.049 4.197,1.827 4.197,4.889c0.05,3.111 -1.333,4.889 -4.247,4.889c-2.913,-0 -4.098,-1.926 -4.148,-4.889c0,-3.259 1.383,-4.889 4.198,-4.889Zm-0.05,8.593c2.173,0.049 2.618,-1.531 2.618,-3.704c-0,-2.124 -0.395,-3.704 -2.519,-3.704c-2.123,0 -2.617,1.58 -2.617,3.704c-0,2.123 0.494,3.654 2.518,3.704" style="fill:#fff;fill-rule:nonzero;"/>
            <path id="u5" serif:id="u" d="M102.472,268.522c4.395,-0.197 2.617,5.728 2.963,9.58l-1.58,0l-0,-5.975c-0,-1.531 -0.396,-2.42 -1.926,-2.37c-3.556,0.098 -2.173,5.037 -2.42,8.345l-1.58,0l-0.05,-9.382l1.482,-0c0.049,0.493 -0.05,1.185 0.098,1.58c0.544,-1.087 1.433,-1.729 3.013,-1.778" style="fill:#fff;fill-rule:nonzero;"/>
            <path id="q6" serif:id="q" d="M111.509,268.522c3.062,-0.049 4.197,1.827 4.197,4.889c0.05,3.111 -1.333,4.889 -4.247,4.889c-2.913,-0 -4.098,-1.926 -4.148,-4.889c0,-3.259 1.383,-4.889 4.198,-4.889Zm-0.05,8.593c2.173,0.049 2.618,-1.531 2.618,-3.704c-0,-2.124 -0.395,-3.704 -2.519,-3.704c-2.123,0 -2.617,1.58 -2.617,3.704c-0,2.123 0.494,3.654 2.518,3.704" style="fill:#fff;fill-rule:nonzero;"/>
        </g>
        <g id="h">
            <path id="C4" serif:id="C" d="M58.027,304.757c-1.975,-0 -2.37,1.629 -2.37,3.605c-0,1.975 0.444,3.703 2.37,3.703c1.186,0 2.025,-0.691 2.124,-1.876l1.58,0.098c-0.296,1.828 -1.531,3.013 -3.654,3.013c-2.914,-0 -3.753,-2.025 -4.05,-4.889c-0.493,-4.593 4.988,-6.469 7.26,-3.161c0.197,0.346 0.247,0.692 0.345,1.087l-1.58,0.148c-0.197,-1.037 -0.79,-1.728 -2.025,-1.728" style="fill:#fff;fill-rule:nonzero;"/>
            <path id="q7" serif:id="q" d="M67.114,303.522c3.061,-0.049 4.197,1.827 4.197,4.889c0.05,3.111 -1.333,4.889 -4.247,4.889c-2.913,-0 -4.098,-1.926 -4.148,-4.889c0,-3.259 1.383,-4.889 4.198,-4.889Zm-0.05,8.593c2.173,0.049 2.618,-1.531 2.618,-3.704c-0,-2.124 -0.395,-3.704 -2.519,-3.704c-2.123,0 -2.617,1.58 -2.617,3.704c-0,2.123 0.494,3.654 2.518,3.704" style="fill:#fff;fill-rule:nonzero;"/>
            <path id="z2" serif:id="z" d="M77.682,305.053c-3.852,-0.79 -2.618,4.494 -2.815,8.049l-1.58,0l-0.05,-9.382l1.482,-0c0.049,0.592 -0.05,1.432 0.098,1.925c0.297,-1.333 1.136,-2.419 2.865,-2.024l-0,1.432" style="fill:#fff;fill-rule:nonzero;"/>
            <path id="z3" serif:id="z" d="M83.558,305.053c-3.852,-0.79 -2.617,4.494 -2.815,8.049l-1.58,0l-0.049,-9.382l1.481,-0c0.05,0.592 -0.049,1.432 0.099,1.925c0.296,-1.333 1.136,-2.419 2.864,-2.024l0,1.432" style="fill:#fff;fill-rule:nonzero;"/>
            <path id="A4" serif:id="A" d="M88.743,303.522c3.112,0 4.247,2.074 4.149,5.235l-6.667,-0c-0,1.975 0.691,3.308 2.617,3.358c1.284,0.049 2.124,-0.593 2.42,-1.432l1.383,0.395c-0.544,1.382 -1.828,2.222 -3.803,2.222c-2.864,-0 -4.346,-1.827 -4.296,-4.938c0.049,-3.013 1.284,-4.84 4.197,-4.84Zm2.568,4c0.297,-2.963 -3.753,-3.802 -4.79,-1.383c-0.148,0.346 -0.296,0.84 -0.296,1.383l5.086,0" style="fill:#fff;fill-rule:nonzero;"/>
            <path id="q8" serif:id="q" d="M98.62,303.522c3.062,-0.049 4.197,1.827 4.197,4.889c0.05,3.111 -1.333,4.889 -4.246,4.889c-2.914,-0 -4.099,-1.926 -4.149,-4.889c0,-3.259 1.383,-4.889 4.198,-4.889Zm-0.049,8.593c2.172,0.049 2.617,-1.531 2.617,-3.704c-0,-2.124 -0.395,-3.704 -2.519,-3.704c-2.123,0 -2.617,1.58 -2.617,3.704c0,2.123 0.494,3.654 2.519,3.704" style="fill:#fff;fill-rule:nonzero;"/>
        </g>
        <g id="i">
            <path id="C5" serif:id="C" d="M58.027,339.757c-1.975,-0 -2.37,1.629 -2.37,3.605c-0,1.975 0.444,3.703 2.37,3.703c1.186,0 2.025,-0.691 2.124,-1.876l1.58,0.098c-0.296,1.828 -1.531,3.013 -3.654,3.013c-2.914,-0 -3.753,-2.025 -4.05,-4.889c-0.493,-4.593 4.988,-6.469 7.26,-3.161c0.197,0.346 0.247,0.692 0.345,1.087l-1.58,0.148c-0.197,-1.037 -0.79,-1.728 -2.025,-1.728" style="fill:#fff;fill-rule:nonzero;"/>
            <path id="q9" serif:id="q" d="M67.114,338.522c3.061,-0.049 4.197,1.827 4.197,4.889c0.05,3.111 -1.333,4.889 -4.247,4.889c-2.913,-0 -4.098,-1.926 -4.148,-4.889c0,-3.259 1.383,-4.889 4.198,-4.889Zm-0.05,8.593c2.173,0.049 2.618,-1.531 2.618,-3.704c-0,-2.124 -0.395,-3.704 -2.519,-3.704c-2.123,0 -2.617,1.58 -2.617,3.704c-0,2.123 0.494,3.654 2.518,3.704" style="fill:#fff;fill-rule:nonzero;"/>
            <path id="x2" serif:id="x" d="M76.25,338.522c1.53,0 2.37,0.642 2.963,1.63l-0.05,-4.939l1.58,0l0.05,12.889l-1.482,0c-0.098,-0.494 0,-1.136 -0.148,-1.531c-0.494,1.136 -1.383,1.729 -2.913,1.729c-2.618,-0 -3.408,-1.926 -3.457,-4.84c-0,-3.259 1.136,-4.938 3.457,-4.938Zm0.444,1.185c-1.975,0 -2.272,1.679 -2.272,3.704c0,1.975 0.297,3.654 2.223,3.654c2.074,0 2.518,-1.58 2.518,-3.753c0,-2.074 -0.444,-3.654 -2.469,-3.605" style="fill:#fff;fill-rule:nonzero;"/>
            <path id="v4" serif:id="v" d="M83.114,336.695l-0,-1.482l1.58,0l0,1.482l-1.58,-0Zm-0,11.407l-0,-9.382l1.58,-0l0,9.382l-1.58,0" style="fill:#fff;fill-rule:nonzero;"/>
            <path id="F" d="M94.571,338.72c-0.494,6.172 2.024,14.469 -5.433,12.888c-1.135,-0.296 -1.876,-0.987 -2.172,-2.123l1.58,-0.247c0.741,2.321 4.938,1.58 4.395,-1.383l-0,-1.481c-0.543,1.037 -1.432,1.778 -3.012,1.778c-2.667,-0 -3.358,-2.025 -3.358,-4.741c-0,-2.766 0.79,-4.79 3.506,-4.84c1.432,-0.049 2.37,0.791 2.913,1.729c0.05,-0.494 0,-1.136 0.099,-1.58l1.482,-0Zm-4.099,8.296c1.778,-0 2.469,-1.58 2.469,-3.605c-0,-2.074 -0.691,-3.704 -2.469,-3.704c-1.926,0 -2.272,1.679 -2.272,3.704c0,2.025 0.296,3.605 2.272,3.605" style="fill:#fff;fill-rule:nonzero;"/>
            <path id="q10" serif:id="q" d="M100.645,338.522c3.061,-0.049 4.197,1.827 4.197,4.889c0.05,3.111 -1.333,4.889 -4.247,4.889c-2.913,-0 -4.099,-1.926 -4.148,-4.889c0,-3.259 1.383,-4.889 4.198,-4.889Zm-0.05,8.593c2.173,0.049 2.618,-1.531 2.618,-3.704c-0,-2.124 -0.396,-3.704 -2.519,-3.704c-2.123,0 -2.617,1.58 -2.617,3.704c-0,2.123 0.494,3.654 2.518,3.704" style="fill:#fff;fill-rule:nonzero;"/>
        </g>
        <g id="j">
            <path id="s1" serif:id="s" d="M58.966,373.522c2.716,0.049 3.456,2.025 3.456,4.84c0,2.814 -0.79,4.839 -3.456,4.938c-1.531,-0 -2.42,-0.642 -2.963,-1.679l0.049,5.185l-1.58,-0l-0.05,-13.086l1.531,-0l0.099,1.481c0.494,-1.037 1.383,-1.679 2.914,-1.679Zm-0.395,8.593c1.975,-0 2.222,-1.679 2.222,-3.704c-0,-2.025 -0.297,-3.605 -2.222,-3.654c-2.075,-0 -2.519,1.58 -2.519,3.753c0,2.123 0.494,3.605 2.519,3.605" style="fill:#fff;fill-rule:nonzero;"/>
            <path id="t3" serif:id="t" d="M70.126,381.325c-0.741,1.037 -1.531,2.024 -3.358,1.975c-1.778,-0.05 -2.864,-1.037 -2.864,-2.815c-0.049,-3.16 3.111,-3.111 6.173,-3.111c0.148,-1.729 -0.445,-2.667 -2.025,-2.667c-1.185,0.05 -2.025,0.346 -2.074,1.531l-1.63,-0.148c0.247,-1.827 1.63,-2.568 3.753,-2.568c2.223,0 3.556,0.988 3.556,3.161l-0,4.049c-0.049,0.988 0.346,1.58 1.383,1.333l-0,0.988c-1.531,0.444 -3.013,-0.099 -2.914,-1.728Zm-4.592,-0.84c-0,0.988 0.592,1.63 1.58,1.63c2.024,-0.149 3.111,-1.432 2.963,-3.655c-2.124,0.099 -4.543,-0.247 -4.543,2.025" style="fill:#fff;fill-rule:nonzero;"/>
            <path id="v5" serif:id="v" d="M74.225,371.695l-0,-1.482l1.58,0l0,1.482l-1.58,-0Zm-0,11.407l-0,-9.382l1.58,-0l0,9.382l-1.58,0" style="fill:#fff;fill-rule:nonzero;"/>
            <path id="G" d="M83.608,376.041c-0.149,-1.679 -4.247,-1.877 -4.297,-0c0.741,2.617 5.679,0.592 5.877,4.444c0.197,3.852 -7.408,3.654 -7.753,0.395l1.382,-0.247c0.198,1.778 4.791,2.222 4.84,0c-0.494,-2.765 -5.58,-0.741 -5.827,-4.444c-0.198,-2.815 4.049,-3.111 6.025,-2.074c0.592,0.345 1.037,0.938 1.185,1.728" style="fill:#fff;fill-rule:nonzero;"/>
            <path id="w1" serif:id="w" d="M87.459,383.102l0,-12.247l1.679,0l0,12.247l-1.679,0" style="fill:#fff;fill-rule:nonzero;"/>
            <path id="x3" serif:id="x" d="M94.966,373.522c1.53,0 2.37,0.642 2.963,1.63l-0.05,-4.939l1.58,0l0.05,12.889l-1.482,0c-0.098,-0.494 0,-1.136 -0.148,-1.531c-0.494,1.136 -1.383,1.729 -2.913,1.729c-2.618,-0 -3.408,-1.926 -3.457,-4.84c-0,-3.259 1.136,-4.938 3.457,-4.938Zm0.444,1.185c-1.975,0 -2.272,1.679 -2.272,3.704c0,1.975 0.297,3.654 2.223,3.654c2.074,0 2.518,-1.58 2.518,-3.753c0,-2.074 -0.444,-3.654 -2.469,-3.605" style="fill:#fff;fill-rule:nonzero;"/>
        </g>
        <g id="k">
            <path id="D1" serif:id="D" d="M54.472,418.102l-0,-12.889l1.58,0l0,12.889l-1.58,0" style="fill:#fff;fill-rule:nonzero;"/>
            <path id="t4" serif:id="t" d="M64.151,416.325c-0.741,1.037 -1.531,2.024 -3.358,1.975c-1.778,-0.05 -2.864,-1.037 -2.864,-2.815c-0.05,-3.16 3.111,-3.111 6.172,-3.111c0.149,-1.729 -0.444,-2.667 -2.024,-2.667c-1.185,0.05 -2.025,0.346 -2.074,1.531l-1.63,-0.148c0.247,-1.827 1.63,-2.568 3.753,-2.568c2.222,0 3.556,0.988 3.556,3.161l-0,4.049c-0.05,0.988 0.345,1.58 1.382,1.333l0,0.988c-1.53,0.444 -3.012,-0.099 -2.913,-1.728Zm-4.593,-0.84c0,0.988 0.593,1.63 1.58,1.63c2.025,-0.149 3.112,-1.432 2.963,-3.655c-2.123,0.099 -4.543,-0.247 -4.543,2.025" style="fill:#fff;fill-rule:nonzero;"/>
            <path id="B4" serif:id="B" d="M69.978,415.781c-0.099,1.185 0.889,1.432 1.877,1.087l-0,1.185c-1.63,0.494 -3.457,0.247 -3.457,-1.926l-0,-6.272l-1.087,0l0,-1.135l1.185,-0l0.445,-2.124l1.037,0l-0,2.124l1.728,-0l0,1.135l-1.728,0l-0,5.926" style="fill:#fff;fill-rule:nonzero;"/>
            <path id="v6" serif:id="v" d="M73.188,406.695l-0,-1.482l1.58,0l0,1.482l-1.58,-0Zm-0,11.407l-0,-9.382l1.58,-0l0,9.382l-1.58,0" style="fill:#fff;fill-rule:nonzero;"/>
            <path id="B5" serif:id="B" d="M78.817,415.781c-0.098,1.185 0.889,1.432 1.877,1.087l0,1.185c-1.63,0.494 -3.457,0.247 -3.457,-1.926l0,-6.272l-1.086,0l-0,-1.135l1.185,-0l0.444,-2.124l1.037,0l0,2.124l1.729,-0l-0,1.135l-1.729,0l0,5.926" style="fill:#fff;fill-rule:nonzero;"/>
            <path id="H" d="M84.99,418.3c-4.395,0.197 -2.666,-5.729 -3.012,-9.58l1.58,-0l0,5.925c0,1.531 0.346,2.47 1.926,2.42c3.556,-0.099 2.222,-4.987 2.469,-8.345l1.531,-0l0.05,9.382l-1.482,0c-0.049,-0.494 0.049,-1.234 -0.099,-1.629c-0.543,1.086 -1.382,1.777 -2.963,1.827" style="fill:#fff;fill-rule:nonzero;"/>
            <path id="x4" serif:id="x" d="M94.916,408.522c1.531,0 2.371,0.642 2.963,1.63l-0.049,-4.939l1.58,0l0.049,12.889l-1.481,0c-0.099,-0.494 -0,-1.136 -0.148,-1.531c-0.494,1.136 -1.383,1.729 -2.914,1.729c-2.617,-0 -3.407,-1.926 -3.457,-4.84c0,-3.259 1.136,-4.938 3.457,-4.938Zm0.445,1.185c-1.976,0 -2.272,1.679 -2.272,3.704c0,1.975 0.296,3.654 2.222,3.654c2.074,0 2.519,-1.58 2.519,-3.753c-0,-2.074 -0.445,-3.654 -2.469,-3.605" style="fill:#fff;fill-rule:nonzero;"/>
        </g>
        <g id="l">
            <path id="D2" serif:id="D" d="M54.472,453.102l-0,-12.889l1.58,0l0,12.889l-1.58,0" style="fill:#fff;fill-rule:nonzero;"/>
            <path id="q11" serif:id="q" d="M62.126,443.522c3.062,-0.049 4.198,1.827 4.198,4.889c0.049,3.111 -1.334,4.889 -4.247,4.889c-2.914,-0 -4.099,-1.926 -4.148,-4.889c-0,-3.259 1.382,-4.889 4.197,-4.889Zm-0.049,8.593c2.173,0.049 2.617,-1.531 2.617,-3.704c0,-2.124 -0.395,-3.704 -2.519,-3.704c-2.123,0 -2.617,1.58 -2.617,3.704c0,2.123 0.494,3.654 2.519,3.704" style="fill:#fff;fill-rule:nonzero;"/>
            <path id="u6" serif:id="u" d="M72.842,443.522c4.395,-0.197 2.617,5.728 2.963,9.58l-1.58,0l-0,-5.975c-0,-1.531 -0.395,-2.42 -1.926,-2.37c-3.556,0.098 -2.173,5.037 -2.42,8.345l-1.58,0l-0.049,-9.382l1.481,-0c0.049,0.493 -0.049,1.185 0.099,1.58c0.543,-1.087 1.432,-1.729 3.012,-1.778" style="fill:#fff;fill-rule:nonzero;"/>
            <path id="F1" serif:id="F" d="M85.682,443.72c-0.494,6.172 2.024,14.469 -5.432,12.888c-1.136,-0.296 -1.877,-0.987 -2.173,-2.123l1.58,-0.247c0.741,2.321 4.938,1.58 4.395,-1.383l0,-1.481c-0.543,1.037 -1.432,1.778 -3.012,1.778c-2.667,-0 -3.358,-2.025 -3.358,-4.741c-0,-2.766 0.79,-4.79 3.506,-4.84c1.432,-0.049 2.37,0.791 2.913,1.729c0.05,-0.494 0,-1.136 0.099,-1.58l1.482,-0Zm-4.099,8.296c1.778,-0 2.469,-1.58 2.469,-3.605c0,-2.074 -0.691,-3.704 -2.469,-3.704c-1.926,0 -2.272,1.679 -2.272,3.704c0,2.025 0.297,3.605 2.272,3.605" style="fill:#fff;fill-rule:nonzero;"/>
            <path id="v7" serif:id="v" d="M88.003,441.695l-0,-1.482l1.58,0l-0,1.482l-1.58,-0Zm-0,11.407l-0,-9.382l1.58,-0l-0,9.382l-1.58,0" style="fill:#fff;fill-rule:nonzero;"/>
            <path id="B6" serif:id="B" d="M93.632,450.781c-0.098,1.185 0.889,1.432 1.877,1.087l-0,1.185c-1.63,0.494 -3.457,0.247 -3.457,-1.926l0,-6.272l-1.086,0l-0,-1.135l1.185,-0l0.444,-2.124l1.037,0l0,2.124l1.729,-0l-0,1.135l-1.729,0l0,5.926" style="fill:#fff;fill-rule:nonzero;"/>
            <path id="H1" serif:id="H" d="M99.805,453.3c-4.395,0.197 -2.667,-5.729 -3.012,-9.58l1.58,-0l0,5.925c0,1.531 0.346,2.47 1.926,2.42c3.556,-0.099 2.222,-4.987 2.469,-8.345l1.531,-0l0.049,9.382l-1.481,0c-0.05,-0.494 0.049,-1.234 -0.099,-1.629c-0.543,1.086 -1.383,1.777 -2.963,1.827" style="fill:#fff;fill-rule:nonzero;"/>
            <path id="x5" serif:id="x" d="M109.731,443.522c1.531,0 2.37,0.642 2.963,1.63l-0.049,-4.939l1.58,0l0.049,12.889l-1.481,0c-0.099,-0.494 -0,-1.136 -0.148,-1.531c-0.494,1.136 -1.383,1.729 -2.914,1.729c-2.617,-0 -3.407,-1.926 -3.457,-4.84c0,-3.259 1.136,-4.938 3.457,-4.938Zm0.444,1.185c-1.975,0 -2.271,1.679 -2.271,3.704c-0,1.975 0.296,3.654 2.222,3.654c2.074,0 2.519,-1.58 2.519,-3.753c-0,-2.074 -0.445,-3.654 -2.47,-3.605" style="fill:#fff;fill-rule:nonzero;"/>
        </g>
        <g id="m">
            <path id="B7" serif:id="B" d="M56.2,485.781c-0.099,1.185 0.889,1.432 1.877,1.087l-0,1.185c-1.63,0.494 -3.457,0.247 -3.457,-1.926l-0,-6.272l-1.086,0l-0,-1.135l1.185,-0l0.444,-2.124l1.037,0l0,2.124l1.729,-0l-0,1.135l-1.729,0l0,5.926" style="fill:#fff;fill-rule:nonzero;"/>
            <path id="v8" serif:id="v" d="M59.41,476.695l0,-1.482l1.58,0l0,1.482l-1.58,-0Zm0,11.407l0,-9.382l1.58,-0l0,9.382l-1.58,0" style="fill:#fff;fill-rule:nonzero;"/>
            <path id="s2" serif:id="s" d="M67.805,478.522c2.716,0.049 3.457,2.025 3.457,4.84c-0,2.814 -0.79,4.839 -3.457,4.938c-1.531,-0 -2.42,-0.642 -2.963,-1.679l0.05,5.185l-1.581,-0l-0.049,-13.086l1.531,-0l0.099,1.481c0.493,-1.037 1.382,-1.679 2.913,-1.679Zm-0.395,8.593c1.975,-0 2.222,-1.679 2.222,-3.704c0,-2.025 -0.296,-3.605 -2.222,-3.654c-2.074,-0 -2.518,1.58 -2.518,3.753c-0,2.123 0.493,3.605 2.518,3.605" style="fill:#fff;fill-rule:nonzero;"/>
            <path id="q12" serif:id="q" d="M76.941,478.522c3.062,-0.049 4.197,1.827 4.197,4.889c0.05,3.111 -1.333,4.889 -4.246,4.889c-2.914,-0 -4.099,-1.926 -4.149,-4.889c0,-3.259 1.383,-4.889 4.198,-4.889Zm-0.049,8.593c2.172,0.049 2.617,-1.531 2.617,-3.704c-0,-2.124 -0.395,-3.704 -2.519,-3.704c-2.123,0 -2.617,1.58 -2.617,3.704c0,2.123 0.494,3.654 2.519,3.704" style="fill:#fff;fill-rule:nonzero;"/>
        </g>
        <path d="M339.187,45.447c-0,-2.743 2.257,-5 5,-5l215,-0c2.743,-0 5,2.257 5,5l-0,170c-0,2.743 -2.257,5 -5,5l-215,-0c-2.743,-0 -5,-2.257 -5,-5l-0,-170Z" style="fill-rule:nonzero;"/>
        <path d="M339.187,115.447l-0,36l225,-0l-0,-36m-225,70l-0,30c-0,2.743 2.257,5 5,5l215,-0c2.743,-0 5,-2.257 5,-5l-0,-30" style="fill:#1a1a1a;fill-rule:nonzero;"/>
        <path d="M339.187,80.447l-0,-35c-0,-2.743 2.257,-5 5,-5l215,-0c2.743,-0 5,2.257 5,5l-0,35" style="fill:#008aff;fill-rule:nonzero;"/>
        <path d="M339.187,45.447c-0,-2.743 2.257,-5 5,-5l215,-0c2.743,-0 5,2.257 5,5l-0,170c-0,2.743 -2.257,5 -5,5l-215,-0c-2.743,-0 -5,-2.257 -5,-5l-0,-170Zm-0,35l225,-0" style="fill:none;fill-rule:nonzero;stroke:#1071e5;stroke-width:2px;"/>
        <g id="n">
            <path id="I" d="M370.506,65.602l-1.383,-3.555l-5.58,-0l-1.383,3.555l-1.728,0l4.988,-12.247l1.876,0l4.889,12.247l-1.679,0Zm-1.876,-4.889l-2.321,-6.074c-0.593,2.223 -1.531,4.05 -2.272,6.074l4.593,0" style="fill:#fff;fill-rule:nonzero;"/>
            <path id="C6" serif:id="C" d="M376.975,57.257c-1.975,-0 -2.37,1.629 -2.37,3.605c-0,1.975 0.444,3.703 2.37,3.703c1.185,0 2.025,-0.691 2.124,-1.876l1.58,0.098c-0.296,1.828 -1.531,3.013 -3.654,3.013c-2.914,-0 -3.753,-2.025 -4.05,-4.889c-0.494,-4.593 4.988,-6.469 7.26,-3.161c0.197,0.346 0.246,0.692 0.345,1.087l-1.58,0.148c-0.198,-1.037 -0.79,-1.728 -2.025,-1.728" style="fill:#fff;fill-rule:nonzero;"/>
            <path id="C7" serif:id="C" d="M385.864,57.257c-1.975,-0 -2.37,1.629 -2.37,3.605c-0,1.975 0.444,3.703 2.37,3.703c1.185,0 2.025,-0.691 2.124,-1.876l1.58,0.098c-0.296,1.828 -1.531,3.013 -3.654,3.013c-2.914,-0 -3.754,-2.025 -4.05,-4.889c-0.494,-4.593 4.988,-6.469 7.259,-3.161c0.198,0.346 0.247,0.692 0.346,1.087l-1.58,0.148c-0.198,-1.037 -0.79,-1.728 -2.025,-1.728" style="fill:#fff;fill-rule:nonzero;"/>
            <path id="A5" serif:id="A" d="M394.951,56.022c3.111,0 4.246,2.074 4.148,5.235l-6.667,-0c0,1.975 0.691,3.308 2.617,3.358c1.284,0.049 2.124,-0.593 2.42,-1.432l1.383,0.395c-0.543,1.382 -1.827,2.222 -3.803,2.222c-2.864,-0 -4.345,-1.827 -4.296,-4.938c0.049,-3.013 1.284,-4.84 4.198,-4.84Zm2.567,4c0.297,-2.963 -3.753,-3.802 -4.79,-1.383c-0.148,0.346 -0.296,0.84 -0.296,1.383l5.086,0" style="fill:#fff;fill-rule:nonzero;"/>
            <path id="G1" serif:id="G" d="M406.556,58.541c-0.149,-1.679 -4.247,-1.877 -4.297,-0c0.741,2.617 5.679,0.592 5.877,4.444c0.197,3.852 -7.408,3.654 -7.753,0.395l1.382,-0.247c0.198,1.778 4.791,2.222 4.84,0c-0.494,-2.765 -5.58,-0.741 -5.827,-4.444c-0.198,-2.815 4.049,-3.111 6.024,-2.074c0.593,0.345 1.037,0.938 1.186,1.728" style="fill:#fff;fill-rule:nonzero;"/>
            <path id="G2" serif:id="G" d="M415.444,58.541c-0.148,-1.679 -4.247,-1.877 -4.296,-0c0.741,2.617 5.679,0.592 5.877,4.444c0.197,3.852 -7.408,3.654 -7.753,0.395l1.382,-0.247c0.198,1.778 4.79,2.222 4.84,0c-0.494,-2.765 -5.58,-0.741 -5.827,-4.444c-0.198,-2.815 4.049,-3.111 6.024,-2.074c0.593,0.345 1.037,0.938 1.185,1.728" style="fill:#fff;fill-rule:nonzero;"/>
            <path id="J" d="M423.938,54.738l0,10.864l-1.679,0l0,-10.864l-4.197,0l-0,-1.383l10.074,0l-0,1.383l-4.198,0" style="fill:#fff;fill-rule:nonzero;"/>
            <path id="q13" serif:id="q" d="M431.444,56.022c3.062,-0.049 4.198,1.827 4.198,4.889c0.049,3.111 -1.333,4.889 -4.247,4.889c-2.914,-0 -4.099,-1.926 -4.148,-4.889c-0,-3.259 1.383,-4.889 4.197,-4.889Zm-0.049,8.593c2.173,0.049 2.617,-1.531 2.617,-3.704c0,-2.124 -0.395,-3.704 -2.518,-3.704c-2.124,0 -2.618,1.58 -2.618,3.704c0,2.123 0.494,3.654 2.519,3.704" style="fill:#fff;fill-rule:nonzero;"/>
            <path id="K" d="M443.444,65.602l-3.16,-4.296l-1.136,0.938l0,3.358l-1.58,0l-0,-12.889l1.58,0l0,8.05l4.099,-4.543l1.827,-0l-3.802,4.049l4.049,5.333l-1.877,0" style="fill:#fff;fill-rule:nonzero;"/>
            <path id="A6" serif:id="A" d="M450.21,56.022c3.111,0 4.247,2.074 4.148,5.235l-6.667,-0c0,1.975 0.692,3.308 2.618,3.358c1.284,0.049 2.123,-0.593 2.419,-1.432l1.383,0.395c-0.543,1.382 -1.827,2.222 -3.802,2.222c-2.865,-0 -4.346,-1.827 -4.297,-4.938c0.05,-3.013 1.284,-4.84 4.198,-4.84Zm2.568,4c0.296,-2.963 -3.753,-3.802 -4.79,-1.383c-0.149,0.346 -0.297,0.84 -0.297,1.383l5.087,0" style="fill:#fff;fill-rule:nonzero;"/>
            <path id="u7" serif:id="u" d="M460.926,56.022c4.395,-0.197 2.617,5.728 2.963,9.58l-1.58,0l-0,-5.975c-0,-1.531 -0.395,-2.42 -1.926,-2.37c-3.556,0.098 -2.173,5.037 -2.42,8.345l-1.58,0l-0.05,-9.382l1.482,-0c0.049,0.493 -0.05,1.185 0.099,1.58c0.543,-1.087 1.432,-1.729 3.012,-1.778" style="fill:#fff;fill-rule:nonzero;"/>
        </g>
        <g id="b1" serif:id="b">
            <path id="w2" serif:id="w" d="M357.012,103.102l0,-12.247l1.679,0l0,12.247l-1.679,0" style="fill:#fff;fill-rule:nonzero;"/>
            <path id="x6" serif:id="x" d="M364.518,93.522c1.531,0 2.371,0.642 2.963,1.63l-0.049,-4.939l1.58,0l0.05,12.889l-1.482,0c-0.099,-0.494 0,-1.136 -0.148,-1.531c-0.494,1.136 -1.383,1.729 -2.914,1.729c-2.617,-0 -3.407,-1.926 -3.456,-4.84c-0,-3.259 1.135,-4.938 3.456,-4.938Zm0.445,1.185c-1.975,0 -2.272,1.679 -2.272,3.704c0,1.975 0.297,3.654 2.223,3.654c2.074,0 2.518,-1.58 2.518,-3.753c0,-2.074 -0.444,-3.654 -2.469,-3.605" style="fill:#fff;fill-rule:nonzero;"/>
        </g>
        <g id="i1" serif:id="i">
            <path id="C8" serif:id="C" d="M360.123,129.757c-1.975,-0 -2.37,1.629 -2.37,3.605c0,1.975 0.444,3.703 2.37,3.703c1.186,0 2.025,-0.691 2.124,-1.876l1.58,0.098c-0.296,1.828 -1.531,3.013 -3.654,3.013c-2.914,-0 -3.753,-2.025 -4.05,-4.889c-0.493,-4.593 4.988,-6.469 7.26,-3.161c0.197,0.346 0.247,0.692 0.345,1.087l-1.58,0.148c-0.197,-1.037 -0.79,-1.728 -2.025,-1.728" style="fill:#fff;fill-rule:nonzero;"/>
            <path id="q14" serif:id="q" d="M369.21,128.522c3.062,-0.049 4.197,1.827 4.197,4.889c0.05,3.111 -1.333,4.889 -4.247,4.889c-2.913,-0 -4.098,-1.926 -4.148,-4.889c0,-3.259 1.383,-4.889 4.198,-4.889Zm-0.05,8.593c2.173,0.049 2.618,-1.531 2.618,-3.704c-0,-2.124 -0.395,-3.704 -2.519,-3.704c-2.123,0 -2.617,1.58 -2.617,3.704c-0,2.123 0.494,3.654 2.518,3.704" style="fill:#fff;fill-rule:nonzero;"/>
            <path id="x7" serif:id="x" d="M378.346,128.522c1.53,0 2.37,0.642 2.963,1.63l-0.05,-4.939l1.58,0l0.05,12.889l-1.482,0c-0.098,-0.494 0,-1.136 -0.148,-1.531c-0.494,1.136 -1.383,1.729 -2.913,1.729c-2.618,-0 -3.408,-1.926 -3.457,-4.84c-0,-3.259 1.136,-4.938 3.457,-4.938Zm0.444,1.185c-1.975,0 -2.272,1.679 -2.272,3.704c0,1.975 0.297,3.654 2.223,3.654c2.074,0 2.518,-1.58 2.518,-3.753c0,-2.074 -0.444,-3.654 -2.469,-3.605" style="fill:#fff;fill-rule:nonzero;"/>
            <path id="v9" serif:id="v" d="M385.21,126.695l-0,-1.482l1.58,0l0,1.482l-1.58,-0Zm-0,11.407l-0,-9.382l1.58,-0l0,9.382l-1.58,0" style="fill:#fff;fill-rule:nonzero;"/>
            <path id="F2" serif:id="F" d="M396.667,128.72c-0.494,6.172 2.024,14.469 -5.432,12.888c-1.136,-0.296 -1.877,-0.987 -2.173,-2.123l1.58,-0.247c0.741,2.321 4.938,1.58 4.395,-1.383l-0,-1.481c-0.543,1.037 -1.432,1.778 -3.012,1.778c-2.667,-0 -3.358,-2.025 -3.358,-4.741c-0,-2.766 0.79,-4.79 3.506,-4.84c1.432,-0.049 2.37,0.791 2.913,1.729c0.05,-0.494 0,-1.136 0.099,-1.58l1.482,-0Zm-4.099,8.296c1.778,-0 2.469,-1.58 2.469,-3.605c-0,-2.074 -0.691,-3.704 -2.469,-3.704c-1.926,0 -2.272,1.679 -2.272,3.704c0,2.025 0.297,3.605 2.272,3.605" style="fill:#fff;fill-rule:nonzero;"/>
            <path id="q15" serif:id="q" d="M402.741,128.522c3.061,-0.049 4.197,1.827 4.197,4.889c0.05,3.111 -1.333,4.889 -4.247,4.889c-2.913,-0 -4.098,-1.926 -4.148,-4.889c0,-3.259 1.383,-4.889 4.198,-4.889Zm-0.05,8.593c2.173,0.049 2.618,-1.531 2.618,-3.704c-0,-2.124 -0.395,-3.704 -2.519,-3.704c-2.123,0 -2.617,1.58 -2.617,3.704c-0,2.123 0.494,3.654 2.518,3.704" style="fill:#fff;fill-rule:nonzero;"/>
        </g>
        <g id="c1" serif:id="c">
            <path id="u8" serif:id="u" d="M361.16,163.522c4.396,-0.197 2.618,5.728 2.963,9.58l-1.58,0l0,-5.975c0,-1.531 -0.395,-2.42 -1.926,-2.37c-3.555,0.098 -2.173,5.037 -2.42,8.345l-1.58,0l-0.049,-9.382l1.481,-0c0.05,0.493 -0.049,1.185 0.099,1.58c0.543,-1.087 1.432,-1.729 3.012,-1.778" style="fill:#fff;fill-rule:nonzero;"/>
            <path id="q16" serif:id="q" d="M370.197,163.522c3.062,-0.049 4.198,1.827 4.198,4.889c0.049,3.111 -1.333,4.889 -4.247,4.889c-2.913,-0 -4.099,-1.926 -4.148,-4.889c-0,-3.259 1.383,-4.889 4.197,-4.889Zm-0.049,8.593c2.173,0.049 2.617,-1.531 2.617,-3.704c0,-2.124 -0.395,-3.704 -2.518,-3.704c-2.124,0 -2.617,1.58 -2.617,3.704c-0,2.123 0.493,3.654 2.518,3.704" style="fill:#fff;fill-rule:nonzero;"/>
            <path id="r2" serif:id="r" d="M385.506,164.757c-3.309,0.148 -1.876,5.185 -2.173,8.345l-1.531,0l0,-5.975c0,-1.432 -0.246,-2.469 -1.728,-2.37c-3.259,0.197 -1.877,5.135 -2.173,8.345l-1.531,0l-0.049,-9.382l1.481,-0c0.05,0.493 -0.049,1.185 0.099,1.58c0.494,-2.173 4.889,-2.469 5.284,-0c0.543,-1.037 1.333,-1.729 2.864,-1.778c4.198,-0.099 2.321,5.877 2.716,9.58l-1.53,0l-0,-5.975c-0,-1.432 -0.247,-2.42 -1.729,-2.37" style="fill:#fff;fill-rule:nonzero;"/>
            <path id="y1" serif:id="y" d="M395.58,163.522c2.617,0 3.408,1.926 3.457,4.84c-0,3.259 -1.136,4.938 -3.457,4.938c-1.531,-0.05 -2.42,-0.543 -2.913,-1.679l-0.099,1.481l-1.531,0l0.049,-12.889l1.581,0l-0,4.988c0.493,-1.136 1.382,-1.679 2.913,-1.679Zm-0.395,8.593c1.975,-0 2.222,-1.679 2.222,-3.704c0,-1.975 -0.247,-3.704 -2.222,-3.654c-2.074,-0 -2.518,1.58 -2.518,3.753c-0,2.123 0.493,3.605 2.518,3.605" style="fill:#fff;fill-rule:nonzero;"/>
            <path id="z4" serif:id="z" d="M405.407,165.053c-3.851,-0.79 -2.617,4.494 -2.814,8.049l-1.581,0l-0.049,-9.382l1.481,-0c0.05,0.592 -0.049,1.432 0.099,1.925c0.296,-1.333 1.136,-2.419 2.864,-2.024l0,1.432" style="fill:#fff;fill-rule:nonzero;"/>
            <path id="A7" serif:id="A" d="M410.593,163.522c3.111,0 4.246,2.074 4.148,5.235l-6.667,-0c0,1.975 0.691,3.308 2.617,3.358c1.284,0.049 2.124,-0.593 2.42,-1.432l1.383,0.395c-0.543,1.382 -1.827,2.222 -3.803,2.222c-2.864,-0 -4.345,-1.827 -4.296,-4.938c0.049,-3.013 1.284,-4.84 4.198,-4.84Zm2.567,4c0.297,-2.963 -3.753,-3.802 -4.79,-1.383c-0.148,0.346 -0.296,0.84 -0.296,1.383l5.086,0" style="fill:#fff;fill-rule:nonzero;"/>
        </g>
        <g id="o">
            <path id="v10" serif:id="v" d="M356.568,196.695l-0,-1.482l1.58,0l0,1.482l-1.58,-0Zm-0,11.407l-0,-9.382l1.58,-0l0,9.382l-1.58,0" style="fill:#fff;fill-rule:nonzero;"/>
            <path id="x8" serif:id="x" d="M363.481,198.522c1.531,0 2.371,0.642 2.963,1.63l-0.049,-4.939l1.58,0l0.05,12.889l-1.482,0c-0.099,-0.494 0,-1.136 -0.148,-1.531c-0.494,1.136 -1.383,1.729 -2.914,1.729c-2.617,-0 -3.407,-1.926 -3.456,-4.84c-0,-3.259 1.135,-4.938 3.456,-4.938Zm0.445,1.185c-1.975,0 -2.272,1.679 -2.272,3.704c0,1.975 0.297,3.654 2.222,3.654c2.075,0 2.519,-1.58 2.519,-3.753c0,-2.074 -0.444,-3.654 -2.469,-3.605" style="fill:#fff;fill-rule:nonzero;"/>
            <path id="L" d="M370.642,208.102l-0,-12.247l9.234,0l0,1.383l-7.604,0l-0,3.901l7.111,0l-0,1.334l-7.111,-0l-0,4.296l8,-0l-0,1.333l-9.63,0" style="fill:#fff;fill-rule:nonzero;"/>
            <path id="M" d="M387.975,208.102l-2.518,-3.852l-2.568,3.852l-1.679,0l3.358,-4.839l-3.21,-4.543l1.728,-0l2.371,3.654l2.321,-3.654l1.728,-0l-3.16,4.543l3.358,4.839l-1.729,0" style="fill:#fff;fill-rule:nonzero;"/>
            <path id="B8" serif:id="B" d="M392.815,205.781c-0.099,1.185 0.889,1.432 1.876,1.087l0,1.185c-1.629,0.494 -3.456,0.247 -3.456,-1.926l-0,-6.272l-1.087,0l0,-1.135l1.185,-0l0.445,-2.124l1.037,0l-0,2.124l1.728,-0l0,1.135l-1.728,0l-0,5.926" style="fill:#fff;fill-rule:nonzero;"/>
            <path id="A8" serif:id="A" d="M399.778,198.522c3.111,0 4.247,2.074 4.148,5.235l-6.667,-0c0,1.975 0.692,3.308 2.617,3.358c1.284,0.049 2.124,-0.593 2.42,-1.432l1.383,0.395c-0.543,1.382 -1.827,2.222 -3.803,2.222c-2.864,-0 -4.345,-1.827 -4.296,-4.938c0.05,-3.013 1.284,-4.84 4.198,-4.84Zm2.568,4c0.296,-2.963 -3.753,-3.802 -4.79,-1.383c-0.149,0.346 -0.297,0.84 -0.297,1.383l5.087,0" style="fill:#fff;fill-rule:nonzero;"/>
            <path id="z5" serif:id="z" d="M410.346,200.053c-3.852,-0.79 -2.618,4.494 -2.815,8.049l-1.58,0l-0.05,-9.382l1.482,-0c0.049,0.592 -0.05,1.432 0.098,1.925c0.297,-1.333 1.136,-2.419 2.865,-2.024l-0,1.432" style="fill:#fff;fill-rule:nonzero;"/>
            <path id="u9" serif:id="u" d="M416.37,198.522c4.395,-0.197 2.618,5.728 2.963,9.58l-1.58,0l0,-5.975c0,-1.531 -0.395,-2.42 -1.926,-2.37c-3.555,0.098 -2.173,5.037 -2.42,8.345l-1.58,0l-0.049,-9.382l1.481,-0c0.05,0.493 -0.049,1.185 0.099,1.58c0.543,-1.087 1.432,-1.729 3.012,-1.778" style="fill:#fff;fill-rule:nonzero;"/>
            <path id="q17" serif:id="q" d="M425.407,198.522c3.062,-0.049 4.198,1.827 4.198,4.889c0.049,3.111 -1.333,4.889 -4.247,4.889c-2.914,-0 -4.099,-1.926 -4.148,-4.889c-0,-3.259 1.383,-4.889 4.197,-4.889Zm-0.049,8.593c2.173,0.049 2.617,-1.531 2.617,-3.704c0,-2.124 -0.395,-3.704 -2.518,-3.704c-2.124,0 -2.618,1.58 -2.618,3.704c0,2.123 0.494,3.654 2.519,3.704" style="fill:#fff;fill-rule:nonzero;"/>
        </g>
    </g>
</svg>
