<svg viewBox="0 0 154 41" fill="none" xmlns="http://www.w3.org/2000/svg">
<path fill-rule="evenodd" clip-rule="evenodd" d="M31.4328 32.5156L24.9422 39.0059C22.455 41.4933 18.4163 41.4933 15.9291 39.0059L1.8654 24.9422C-0.6218 22.455 -0.6218 18.4163 1.8654 15.9291L15.9291 1.8654C18.4163 -0.6218 22.455 -0.6218 24.9422 1.8654L32.4742 9.39736C32.9621 9.88525 32.9621 10.6772 32.4742 11.1651C31.9865 11.6528 31.1944 11.6528 30.7067 11.1651L23.1747 3.6331C21.6631 2.12129 19.2084 2.12129 17.6966 3.6331L3.6331 17.6968C2.12129 19.2084 2.12129 21.6631 3.6331 23.1747L17.6966 37.2384C19.2084 38.75 21.6631 38.75 23.1747 37.2384L29.6805 30.7326C29.6778 30.6912 29.6765 30.6498 29.6765 30.6081C29.6765 29.5516 30.5341 28.694 31.5904 28.694C32.6467 28.694 33.5043 29.5516 33.5043 30.6081C33.5043 31.6644 32.6467 32.522 31.5904 32.522C31.5374 32.522 31.4847 32.5197 31.4328 32.5156Z" fill="#FFA400"/>
<path fill-rule="evenodd" clip-rule="evenodd" d="M31.333 15.6738L44.9387 1.8718C44.9408 1.86973 44.9429 1.86747 44.9451 1.8654C47.4207 -0.610316 51.6586 -0.625556 54.1344 1.85016C54.1364 1.85223 54.1383 1.85411 54.1404 1.85618L68.0259 15.9331C70.5078 18.4191 70.5078 22.4518 68.0263 24.9381L54.1718 39.0069C54.1695 39.0091 54.1673 39.0114 54.165 39.0136C51.6788 41.4999 47.6228 41.4845 45.1365 38.9984C45.135 38.9967 45.1333 38.9952 45.1318 38.9937C45.1318 38.9937 40.6902 34.5051 37.6551 31.4378C35.6381 29.3996 35.6483 26.1144 37.6775 24.0886C39.8131 21.9568 42.7757 18.9992 45.0928 16.6862C46.284 15.4971 47.9012 14.8333 49.5844 14.8427C51.2675 14.8521 52.8771 15.534 54.055 16.7365L58.2502 21.0196C58.3001 21.0156 58.3505 21.0138 58.4013 21.0138C59.4576 21.0138 60.3152 21.8714 60.3152 22.9277C60.3152 23.9841 59.4576 24.8417 58.4013 24.8417C57.345 24.8417 56.4874 23.9841 56.4874 22.9277C56.4874 22.8836 56.4889 22.84 56.4917 22.7967L52.2692 18.4857C51.5582 17.7598 50.5864 17.3482 49.5703 17.3425C48.5543 17.3369 47.578 17.7374 46.8588 18.4554L39.4437 25.8578C38.3884 26.9112 38.3831 28.6197 39.4319 29.6795C39.4319 29.6795 46.9059 37.2326 46.9081 37.2348C48.4201 38.7425 50.8829 38.7574 52.3945 37.2487L66.2477 23.1815C66.2497 23.1792 66.252 23.177 66.2543 23.1747C67.7661 21.6631 67.7661 19.2084 66.2543 17.6968C66.2524 17.6947 66.2503 17.6927 66.2482 17.6906C66.2482 17.6906 52.6184 3.87281 52.3625 3.61354C50.8394 2.09533 48.2374 2.11113 46.7153 3.63047L33.2223 17.3181C33.2347 17.4061 33.2411 17.4962 33.2411 17.5877C33.2411 18.644 32.3835 19.5016 31.3272 19.5016C30.2707 19.5016 29.4131 18.644 29.4131 17.5877C29.4131 16.5314 30.2707 15.6738 31.3272 15.6738H31.333Z" fill="#FFA400"/>
<path d="M83.8953 26.3245C82.2676 26.3245 80.9052 26.0833 79.8083 25.6007C78.7111 25.1183 77.8795 24.4904 77.3128 23.7175C76.7461 22.9446 76.4454 22.1242 76.4104 21.2568C76.4104 21.1101 76.4646 20.9825 76.573 20.8741C76.6813 20.7657 76.8142 20.7116 76.9713 20.7116H79.305C79.5223 20.7116 79.6895 20.7586 79.8069 20.8529C79.9244 20.9469 80.0237 21.064 80.105 21.2036C80.2175 21.5438 80.4198 21.8758 80.7122 22.2002C81.0045 22.5244 81.4111 22.7914 81.9321 23.001C82.4533 23.2106 83.1077 23.3154 83.8953 23.3154C85.1531 23.3154 86.0881 23.1047 86.7003 22.6832C87.3126 22.2619 87.6185 21.6939 87.6185 20.9793C87.6185 20.4792 87.4559 20.0737 87.1306 19.7629C86.8053 19.4521 86.2943 19.1725 85.5977 18.9241C84.9012 18.6757 83.9866 18.4057 82.8539 18.1143C81.5568 17.7976 80.464 17.42 79.5751 16.9814C78.6865 16.5426 78.0189 15.9804 77.5724 15.2946C77.1258 14.6086 76.9026 13.7463 76.9026 12.7075C76.9026 11.696 77.1792 10.7957 77.7324 10.0066C78.2857 9.21747 79.0724 8.59562 80.0928 8.14086C81.1129 7.68609 82.3297 7.4588 83.7431 7.4588C84.8873 7.4588 85.8933 7.61102 86.7613 7.91526C87.6292 8.21969 88.3555 8.62102 88.9401 9.11944C89.5249 9.61767 89.9695 10.1528 90.2741 10.7248C90.5787 11.2966 90.7398 11.8499 90.7571 12.3848C90.7571 12.5212 90.7082 12.6464 90.6101 12.7598C90.5121 12.8735 90.3778 12.9301 90.2069 12.9301H87.7668C87.6157 12.9301 87.471 12.8953 87.3329 12.8253C87.1948 12.7555 87.0834 12.63 86.9987 12.4488C86.9011 11.8947 86.5632 11.426 85.985 11.0427C85.407 10.6597 84.6596 10.4679 83.7431 10.4679C82.7982 10.4679 82.0411 10.645 81.4721 10.9989C80.9029 11.353 80.6185 11.8977 80.6185 12.633C80.6185 13.1117 80.7592 13.5117 81.0409 13.8329C81.3225 14.1542 81.782 14.4372 82.4191 14.682C83.056 14.927 83.9025 15.1898 84.9582 15.4711C86.4458 15.8051 87.6584 16.1906 88.5958 16.6277C89.5333 17.0646 90.2242 17.6181 90.6683 18.2881C91.1123 18.9583 91.3345 19.8092 91.3345 20.8408C91.3345 21.9916 91.022 22.9754 90.397 23.7924C89.7719 24.6093 88.9028 25.2355 87.7897 25.6713C86.6766 26.1068 85.3785 26.3245 83.8953 26.3245Z" fill="white"/>
<path d="M95.3122 26.0626C95.1304 26.0626 94.9801 26.0032 94.861 25.8841C94.7421 25.7652 94.6826 25.6146 94.6826 25.4329V8.35045C94.6826 8.1687 94.7421 8.01836 94.861 7.89926C94.9801 7.78035 95.1304 7.7207 95.3122 7.7207H97.7794C97.9612 7.7207 98.1115 7.78035 98.2306 7.89926C98.3495 8.01836 98.409 8.1687 98.409 8.35045V25.4329C98.409 25.6146 98.3495 25.7652 98.2306 25.8841C98.1115 26.0032 97.9612 26.0626 97.7794 26.0626H95.3122Z" fill="white"/>
<path d="M109.699 26.3245C108.09 26.3245 106.72 26.0444 105.588 25.4841C104.456 24.9237 103.583 24.116 102.969 23.0608C102.354 22.0055 102.017 20.7435 101.958 19.2744C101.94 18.5167 101.932 17.7083 101.932 16.8491C101.932 15.9899 101.94 15.1744 101.958 14.4024C102.017 12.9516 102.356 11.7099 102.974 10.6775C103.592 9.64533 104.473 8.85076 105.617 8.29401C106.761 7.73727 108.122 7.4588 109.699 7.4588C110.975 7.4588 112.091 7.6272 113.046 7.96399C114.002 8.30079 114.8 8.7373 115.441 9.27373C116.082 9.80996 116.565 10.3827 116.891 10.9916C117.217 11.6006 117.388 12.1735 117.406 12.7107C117.416 12.868 117.367 12.9982 117.259 13.1013C117.151 13.2044 117.013 13.2562 116.845 13.2562H114.15C113.979 13.2562 113.849 13.2221 113.762 13.1542C113.674 13.0863 113.592 12.9773 113.515 12.8278C113.383 12.4708 113.168 12.1109 112.871 11.7478C112.574 11.3848 112.171 11.0807 111.662 10.8356C111.153 10.5906 110.499 10.4679 109.699 10.4679C108.513 10.4679 107.565 10.7852 106.855 11.4194C106.144 12.0537 105.761 13.0917 105.706 14.5335C105.653 16.0559 105.653 17.5925 105.706 19.1435C105.761 20.6244 106.152 21.69 106.876 22.3402C107.601 22.9903 108.556 23.3154 109.742 23.3154C110.531 23.3154 111.237 23.1739 111.859 22.8909C112.482 22.6078 112.972 22.1684 113.33 21.5725C113.688 20.9767 113.867 20.2167 113.867 19.2925V18.4883H110.66C110.478 18.4883 110.327 18.4262 110.208 18.3021C110.089 18.1779 110.03 18.0249 110.03 17.8432V16.4439C110.03 16.2516 110.089 16.096 110.208 15.9771C110.327 15.8581 110.478 15.7985 110.66 15.7985H116.916C117.108 15.7985 117.264 15.8581 117.383 15.9771C117.502 16.096 117.562 16.2516 117.562 16.4439V19.1967C117.562 20.6651 117.242 21.9321 116.603 22.9976C115.964 24.0633 115.056 24.8842 113.878 25.4604C112.701 26.0365 111.308 26.3245 109.699 26.3245Z" fill="white"/>
<path d="M119.809 26.0626C119.662 26.0626 119.534 26.0084 119.426 25.9001C119.317 25.7917 119.263 25.6641 119.263 25.5172C119.263 25.437 119.277 25.3552 119.305 25.2716L125.615 8.38319C125.678 8.20143 125.782 8.04564 125.927 7.91563C126.073 7.7858 126.279 7.7207 126.545 7.7207H129.384C129.65 7.7207 129.856 7.7858 130.002 7.91563C130.147 8.04564 130.251 8.20143 130.314 8.38319L136.624 25.2716C136.652 25.3552 136.666 25.437 136.666 25.5172C136.666 25.6641 136.612 25.7917 136.503 25.9001C136.395 26.0084 136.267 26.0626 136.12 26.0626H133.84C133.601 26.0626 133.426 26.0039 133.314 25.8865C133.202 25.7691 133.124 25.6613 133.083 25.5631L131.862 22.3713H124.066L122.846 25.5631C122.815 25.6613 122.742 25.7691 122.628 25.8865C122.514 26.0039 122.334 26.0626 122.089 26.0626H119.809ZM124.983 19.3621H130.946L127.959 11.2523L124.983 19.3621Z" fill="white"/>
<path d="M139.909 26.0626C139.727 26.0626 139.577 26.0032 139.458 25.8841C139.339 25.7652 139.279 25.6146 139.279 25.4329V8.36607C139.279 8.17396 139.339 8.01836 139.458 7.89926C139.577 7.78035 139.727 7.7207 139.909 7.7207H146.685C148.796 7.7207 150.463 8.21065 151.686 9.19056C152.909 10.1705 153.52 11.5903 153.52 13.4502C153.52 14.7554 153.205 15.8326 152.573 16.6817C151.942 17.5308 151.092 18.15 150.022 18.5391L153.836 25.2291C153.888 25.3339 153.914 25.4299 153.914 25.5172C153.914 25.6641 153.86 25.7917 153.752 25.9001C153.643 26.0084 153.516 26.0626 153.369 26.0626H151C150.692 26.0626 150.461 25.983 150.307 25.8239C150.153 25.6647 150.035 25.5085 149.951 25.3552L146.562 19.1369H142.921V25.4329C142.921 25.6146 142.861 25.7652 142.742 25.8841C142.623 26.0032 142.468 26.0626 142.275 26.0626H139.909ZM142.921 16.181H146.607C147.673 16.181 148.467 15.9419 148.989 15.4636C149.511 14.9855 149.773 14.3072 149.773 13.4289C149.773 12.5506 149.515 11.8652 149 11.3728C148.484 10.8804 147.687 10.6343 146.607 10.6343H142.921V16.181Z" fill="white"/>
<path d="M80.6909 38.0682C79.9798 38.0682 79.3996 37.9295 78.9505 37.6521C78.5011 37.3748 78.1672 36.9977 77.9484 36.5212C77.7295 36.0446 77.6084 35.5016 77.585 34.8921C77.5771 34.5717 77.5734 34.2279 77.5734 33.8607C77.5734 33.4936 77.5771 33.1419 77.585 32.8059C77.6084 32.1965 77.7295 31.6516 77.9484 31.171C78.1672 30.6905 78.5011 30.3134 78.9505 30.04C79.3996 29.7666 79.9798 29.6299 80.6909 29.6299C81.2456 29.6299 81.7182 29.7079 82.109 29.8643C82.4996 30.0205 82.8179 30.2255 83.0641 30.4796C83.3102 30.7334 83.4938 31.0069 83.615 31.2999C83.7359 31.5929 83.8044 31.88 83.8201 32.1613C83.8278 32.2316 83.8063 32.2883 83.7555 32.3314C83.7047 32.3743 83.6443 32.3957 83.5739 32.3957H83.3395C83.277 32.3957 83.2223 32.3782 83.1754 32.343C83.1286 32.3078 83.0974 32.2433 83.0817 32.1496C82.9333 31.4542 82.6539 30.9776 82.2437 30.7198C81.8335 30.4619 81.3159 30.333 80.6909 30.333C79.9798 30.333 79.4152 30.5341 78.9973 30.9366C78.5792 31.339 78.3546 31.9816 78.3233 32.8646C78.3 33.5052 78.3 34.1615 78.3233 34.8334C78.3546 35.7164 78.5792 36.359 78.9973 36.7614C79.4152 37.1639 79.9798 37.365 80.6909 37.365C81.3159 37.365 81.8335 37.2361 82.2437 36.9782C82.6539 36.7204 82.9333 36.2438 83.0817 35.5484C83.0974 35.4547 83.1286 35.3902 83.1754 35.355C83.2223 35.3198 83.277 35.3023 83.3395 35.3023H83.5739C83.6443 35.3023 83.7047 35.3237 83.7555 35.3668C83.8063 35.4097 83.8278 35.4664 83.8201 35.5367C83.8044 35.818 83.7359 36.1052 83.615 36.3981C83.4938 36.6911 83.3102 36.9646 83.0641 37.2185C82.8179 37.4725 82.4996 37.6775 82.109 37.8337C81.7182 37.9901 81.2456 38.0682 80.6909 38.0682Z" fill="white"/>
<path d="M86.3867 37.9509C86.3086 37.9509 86.2461 37.9276 86.1993 37.8807C86.1522 37.8337 86.1289 37.7712 86.1289 37.6932V30.0048C86.1289 29.9268 86.1522 29.8643 86.1993 29.8173C86.2461 29.7704 86.3086 29.7471 86.3867 29.7471H86.6094C86.6875 29.7471 86.75 29.7704 86.7968 29.8173C86.8439 29.8643 86.8672 29.9268 86.8672 30.0048V37.2478H90.9106C90.9966 37.2478 91.063 37.2713 91.1099 37.3182C91.1567 37.365 91.1803 37.4314 91.1803 37.5174V37.6932C91.1803 37.7712 91.1567 37.8337 91.1099 37.8807C91.063 37.9276 90.9966 37.9509 90.9106 37.9509H86.3867Z" fill="white"/>
<path d="M95.7861 38.0682C95.1377 38.0682 94.5868 37.953 94.1337 37.7225C93.6805 37.492 93.3328 37.1364 93.0906 36.6559C92.8485 36.1753 92.7156 35.568 92.6921 34.8334C92.6842 34.482 92.6804 34.1538 92.6804 33.849C92.6804 33.5444 92.6842 33.2161 92.6921 32.8646C92.7156 32.1379 92.8562 31.5343 93.1139 31.0538C93.3719 30.5733 93.7294 30.2158 94.1864 29.9815C94.6434 29.7471 95.1767 29.6299 95.7861 29.6299C96.3955 29.6299 96.9289 29.7471 97.386 29.9815C97.843 30.2158 98.2024 30.5733 98.4643 31.0538C98.726 31.5343 98.8647 32.1379 98.8803 32.8646C98.8959 33.2161 98.9036 33.5444 98.9036 33.849C98.9036 34.1538 98.8959 34.482 98.8803 34.8334C98.8647 35.568 98.7337 36.1753 98.4876 36.6559C98.2415 37.1364 97.8919 37.492 97.4386 37.7225C96.9856 37.953 96.4347 38.0682 95.7861 38.0682ZM95.7861 37.365C96.4582 37.365 97.011 37.1618 97.4445 36.7556C97.8782 36.3492 98.1105 35.689 98.142 34.7749C98.1576 34.4232 98.1653 34.1147 98.1653 33.849C98.1653 33.5833 98.1576 33.2748 98.142 32.9231C98.1263 32.3137 98.015 31.8175 97.8078 31.4346C97.6008 31.0519 97.3235 30.7725 96.9758 30.5968C96.6281 30.4208 96.2314 30.333 95.7861 30.333C95.3486 30.333 94.956 30.4208 94.6082 30.5968C94.2605 30.7725 93.9832 31.0519 93.7762 31.4346C93.5691 31.8175 93.4539 32.3137 93.4304 32.9231C93.4227 33.2748 93.4187 33.5833 93.4187 33.849C93.4187 34.1147 93.4227 34.4232 93.4304 34.7749C93.4616 35.689 93.6961 36.3492 94.1337 36.7556C94.5712 37.1618 95.1221 37.365 95.7861 37.365Z" fill="white"/>
<path d="M104.307 38.0681C103.674 38.0681 103.133 37.9509 102.683 37.7167C102.234 37.4822 101.888 37.1229 101.646 36.6384C101.404 36.1539 101.283 35.5328 101.283 34.7749V30.0165C101.283 29.9307 101.306 29.8643 101.353 29.8173C101.4 29.7704 101.462 29.7471 101.541 29.7471H101.752C101.838 29.7471 101.904 29.7704 101.951 29.8173C101.998 29.8643 102.021 29.9307 102.021 30.0165V34.8101C102.021 35.6852 102.226 36.3298 102.636 36.7439C103.047 37.1579 103.603 37.365 104.307 37.365C105.002 37.365 105.555 37.1579 105.965 36.7439C106.375 36.3298 106.58 35.6852 106.58 34.8101V30.0165C106.58 29.9307 106.606 29.8643 106.656 29.8173C106.707 29.7704 106.772 29.7471 106.85 29.7471H107.061C107.139 29.7471 107.201 29.7704 107.248 29.8173C107.295 29.8643 107.318 29.9307 107.318 30.0165V34.7749C107.318 35.5328 107.199 36.1539 106.961 36.6384C106.723 37.1229 106.381 37.4822 105.936 37.7167C105.49 37.9509 104.947 38.0681 104.307 38.0681Z" fill="white"/>
<path d="M110.295 37.9509C110.217 37.9509 110.155 37.9276 110.108 37.8807C110.061 37.8337 110.037 37.7712 110.037 37.6932V30.0165C110.037 29.9307 110.061 29.8643 110.108 29.8173C110.155 29.7704 110.217 29.7471 110.295 29.7471H112.792C113.62 29.7471 114.268 29.8681 114.737 30.1104C115.206 30.3525 115.54 30.71 115.739 31.1827C115.939 31.6555 116.042 32.2316 116.05 32.9114C116.058 33.2631 116.062 33.5735 116.062 33.8432C116.062 34.1128 116.058 34.4232 116.05 34.7749C116.034 35.4936 115.929 36.0875 115.733 36.5563C115.538 37.025 115.21 37.3748 114.749 37.6053C114.288 37.8358 113.655 37.9509 112.85 37.9509H110.295ZM110.776 37.2478H112.792C113.417 37.2478 113.911 37.1639 114.274 36.9959C114.638 36.8278 114.899 36.5582 115.059 36.1872C115.22 35.816 115.304 35.3256 115.312 34.7162C115.319 34.4819 115.323 34.2769 115.323 34.1009V33.5794C115.323 33.4076 115.319 33.2044 115.312 32.9699C115.296 32.1105 115.097 31.4756 114.714 31.0655C114.331 30.6553 113.671 30.4502 112.733 30.4502H110.776V37.2478Z" fill="white"/>
</svg>
