<?xml version="1.0" encoding="UTF-8" standalone="no"?>
<!DOCTYPE svg PUBLIC "-//W3C//DTD SVG 1.1//EN" "http://www.w3.org/Graphics/SVG/1.1/DTD/svg11.dtd">
<svg width="100%" height="100%" viewBox="0 0 256 256" version="1.1" xmlns="http://www.w3.org/2000/svg" xmlns:xlink="http://www.w3.org/1999/xlink" xml:space="preserve" xmlns:serif="http://www.serif.com/" style="fill-rule:evenodd;clip-rule:evenodd;stroke-linejoin:round;stroke-miterlimit:2;">
    <rect id="Artboard1" x="0" y="0" width="256" height="256" style="fill:none;"/>
    <g>
        <path d="M250.245,153.107c-1.477,-4.473 -5.347,-7.59 -10.353,-8.338c-2.359,-0.353 -5.062,-0.203 -8.261,0.457c-5.574,1.15 -9.71,1.588 -12.728,1.673c11.392,-19.236 20.657,-41.172 25.99,-61.82c8.623,-33.388 4.015,-48.598 -1.37,-55.478c-14.251,-18.21 -35.044,-27.993 -60.13,-28.293c-13.38,-0.163 -25.128,2.479 -31.256,4.378c-5.706,-1.006 -11.841,-1.568 -18.279,-1.672c-12.066,-0.193 -22.728,2.438 -31.838,7.844c-5.044,-1.705 -13.138,-4.11 -22.486,-5.644c-21.986,-3.61 -39.705,-0.797 -52.666,8.359c-15.694,11.086 -22.97,30.348 -21.624,57.25c0.427,8.541 5.205,34.528 12.728,59.174c4.323,14.166 8.934,25.93 13.703,34.968c6.763,12.815 14,20.363 22.124,23.072c4.555,1.518 12.828,2.58 21.531,-4.666c1.102,1.335 2.573,2.662 4.527,3.895c2.48,1.564 5.513,2.842 8.541,3.6c10.917,2.729 21.141,2.046 29.864,-1.779c0.054,1.552 0.095,3.034 0.131,4.314c0.058,2.076 0.115,4.112 0.191,6.015c0.517,12.873 1.392,22.882 3.987,29.885c0.142,0.386 0.334,0.973 0.537,1.595c1.294,3.964 3.459,10.599 8.966,15.796c5.703,5.383 12.602,7.034 18.919,7.034c3.169,-0 6.192,-0.416 8.843,-0.984c9.453,-2.026 20.187,-5.112 27.953,-16.169c7.341,-10.453 10.91,-26.196 11.556,-51.004c0.084,-0.701 0.161,-1.37 0.236,-2.009c0.05,-0.431 0.101,-0.871 0.153,-1.31l1.73,0.152l0.445,0.03c9.627,0.438 21.399,-1.603 28.628,-4.961c5.713,-2.652 24.018,-12.315 19.708,-25.364" style="fill-rule:nonzero;"/>
        <path d="M233.784,155.645c-28.624,5.905 -30.592,-3.787 -30.592,-3.787c30.223,-44.846 42.857,-101.771 31.954,-115.703c-29.744,-38.004 -81.234,-20.031 -82.093,-19.564l-0.276,0.049c-5.656,-1.174 -11.985,-1.873 -19.098,-1.989c-12.952,-0.212 -22.777,3.396 -30.232,9.049c0,0 -91.851,-37.839 -87.58,47.59c0.909,18.174 26.049,137.516 56.036,101.469c10.96,-13.181 21.549,-24.326 21.549,-24.326c5.26,3.494 11.557,5.276 18.158,4.636l0.512,-0.435c-0.159,1.637 -0.086,3.237 0.206,5.132c-7.725,8.631 -5.455,10.146 -20.898,13.325c-15.625,3.22 -6.446,8.954 -0.453,10.452c7.266,1.817 24.075,4.391 35.433,-11.509l-0.453,1.815c3.027,2.424 5.152,15.769 4.796,27.866c-0.356,12.097 -0.594,20.402 1.791,26.89c2.385,6.487 4.762,21.083 25.062,16.733c16.963,-3.635 25.753,-13.055 26.976,-28.768c0.868,-11.171 2.832,-9.52 2.956,-19.507l1.575,-4.729c1.816,-15.143 0.288,-20.028 10.739,-17.756l2.54,0.223c7.692,0.35 17.759,-1.237 23.667,-3.983c12.723,-5.905 20.269,-15.763 7.724,-13.173l0.001,0" style="fill:#336791;fill-rule:nonzero;"/>
        <path d="M108.823,79.418c-2.578,-0.359 -4.915,-0.027 -6.097,0.868c-0.665,0.503 -0.871,1.087 -0.926,1.488c-0.148,1.064 0.597,2.24 1.055,2.846c1.295,1.717 3.188,2.897 5.061,3.157c0.271,0.038 0.541,0.056 0.81,0.056c3.124,0 5.963,-2.432 6.214,-4.227c0.313,-2.249 -2.951,-3.748 -6.117,-4.188" style="fill:#fff;fill-rule:nonzero;"/>
        <path d="M194.278,79.489l-0,-0c-0.246,-1.762 -3.383,-2.265 -6.359,-1.851c-2.972,0.414 -5.854,1.755 -5.613,3.522c0.193,1.373 2.673,3.718 5.609,3.718c0.248,-0 0.498,-0.017 0.75,-0.052c1.96,-0.271 3.398,-1.516 4.081,-2.233c1.041,-1.093 1.642,-2.312 1.532,-3.104" style="fill:#fff;fill-rule:nonzero;"/>
        <path d="M243.31,154.974c-1.092,-3.3 -4.605,-4.362 -10.441,-3.157c-17.33,3.577 -23.536,1.099 -25.575,-0.401c13.471,-20.522 24.552,-45.326 30.53,-68.47c2.832,-10.963 4.396,-21.144 4.524,-29.442c0.141,-9.109 -1.41,-15.802 -4.609,-19.89c-12.9,-16.484 -31.832,-25.325 -54.75,-25.568c-15.754,-0.177 -29.066,3.855 -31.646,4.989c-5.435,-1.352 -11.359,-2.181 -17.808,-2.287c-11.828,-0.191 -22.051,2.64 -30.516,8.412c-3.677,-1.368 -13.179,-4.63 -24.798,-6.502c-20.09,-3.235 -36.054,-0.784 -47.446,7.287c-13.594,9.631 -19.869,26.846 -18.653,51.166c0.409,8.183 5.071,33.354 12.429,57.46c9.684,31.728 20.211,49.689 31.288,53.383c1.297,0.433 2.792,0.736 4.44,0.736c4.041,-0 8.995,-1.822 14.149,-8.018c8.562,-10.3 16.555,-18.931 19.502,-22.067c4.354,2.338 9.137,3.642 14.03,3.773c0.009,0.128 0.022,0.256 0.033,0.384c-0.981,1.164 -1.787,2.184 -2.473,3.056c-3.39,4.303 -4.095,5.199 -15.008,7.446c-3.103,0.64 -11.348,2.339 -11.468,8.118c-0.132,6.314 9.744,8.965 10.87,9.246c3.921,0.982 7.699,1.466 11.301,1.466c8.763,-0 16.473,-2.88 22.635,-8.451c-0.19,22.509 0.749,44.689 3.451,51.447c2.213,5.531 7.621,19.052 24.702,19.051c2.506,0 5.265,-0.291 8.3,-0.942c17.826,-3.822 25.567,-11.701 28.562,-29.07c1.602,-9.283 4.353,-31.451 5.645,-43.342c2.73,0.852 6.245,1.241 10.044,1.241c7.923,-0 17.066,-1.683 22.799,-4.345c6.441,-2.991 18.064,-10.332 15.957,-16.709Zm-42.452,-80.35c-0.06,3.511 -0.543,6.697 -1.055,10.024c-0.551,3.578 -1.121,7.276 -1.264,11.767c-0.142,4.37 0.404,8.913 0.932,13.306c1.066,8.874 2.161,18.01 -2.076,27.025c-0.658,-1.169 -1.294,-2.445 -1.877,-3.858c-0.526,-1.277 -1.669,-3.327 -3.252,-6.165c-6.159,-11.045 -20.583,-36.911 -13.199,-47.466c2.199,-3.142 7.78,-6.371 21.791,-4.633Zm-16.983,-59.469c20.534,0.453 36.777,8.135 48.277,22.83c8.82,11.272 -0.892,62.561 -29.01,106.807c-0.277,-0.352 -0.56,-0.709 -0.853,-1.074c-0.116,-0.146 -0.235,-0.295 -0.355,-0.445c7.265,-12 5.844,-23.872 4.58,-34.398c-0.52,-4.32 -1.01,-8.4 -0.885,-12.232c0.129,-4.063 0.666,-7.546 1.185,-10.915c0.639,-4.152 1.288,-8.447 1.109,-13.511c0.134,-0.531 0.188,-1.159 0.118,-1.903c-0.458,-4.857 -6.001,-19.389 -17.302,-32.543c-6.18,-7.194 -15.195,-15.246 -27.502,-20.676c5.294,-1.098 12.533,-2.121 20.638,-1.94Zm-114.901,154.981c-5.679,6.828 -9.601,5.52 -10.89,5.09c-8.403,-2.803 -18.153,-20.563 -26.749,-48.726c-7.438,-24.368 -11.785,-48.872 -12.129,-55.744c-1.086,-21.731 4.181,-36.876 15.658,-45.015c18.676,-13.244 49.382,-5.317 61.72,-1.296c-0.177,0.175 -0.362,0.339 -0.537,0.516c-20.247,20.448 -19.767,55.383 -19.717,57.518c-0.002,0.824 0.067,1.991 0.162,3.596c0.348,5.875 0.997,16.811 -0.735,29.196c-1.61,11.509 1.938,22.773 9.731,30.905c0.807,0.841 1.649,1.632 2.519,2.376c-3.469,3.715 -11.008,11.93 -19.033,21.584Zm21.636,-28.868c-6.282,-6.554 -9.135,-15.671 -7.828,-25.015c1.829,-13.083 1.153,-24.477 0.791,-30.598c-0.051,-0.857 -0.096,-1.607 -0.122,-2.2c2.957,-2.622 16.664,-9.967 26.439,-7.727c4.461,1.022 7.178,4.059 8.309,9.284c5.848,27.049 0.774,38.323 -3.303,47.382c-0.841,1.867 -1.634,3.631 -2.313,5.457l-0.525,1.41c-1.33,3.568 -2.568,6.884 -3.335,10.034c-6.678,-0.021 -13.174,-2.873 -18.113,-8.027Zm1.025,36.479c-1.95,-0.487 -3.704,-1.333 -4.733,-2.035c0.86,-0.405 2.389,-0.954 5.042,-1.501c12.837,-2.643 14.819,-4.508 19.148,-10.005c0.993,-1.26 2.118,-2.689 3.676,-4.429c0.001,-0.001 0.002,-0.001 0.002,-0.002c2.321,-2.598 3.383,-2.158 5.308,-1.359c1.56,0.645 3.079,2.601 3.696,4.753c0.291,1.016 0.619,2.946 -0.453,4.446c-9.044,12.663 -22.222,12.5 -31.686,10.132Zm67.181,62.517c-15.704,3.364 -21.264,-4.648 -24.929,-13.808c-2.365,-5.915 -3.527,-32.582 -2.702,-62.031c0.011,-0.392 -0.045,-0.771 -0.153,-1.126c-0.094,-0.687 -0.239,-1.382 -0.439,-2.081c-1.227,-4.285 -4.215,-7.87 -7.8,-9.356c-1.424,-0.59 -4.039,-1.673 -7.181,-0.869c0.671,-2.761 1.833,-5.877 3.092,-9.253l0.529,-1.42c0.595,-1.601 1.341,-3.259 2.131,-5.014c4.266,-9.48 10.11,-22.463 3.768,-51.793c-2.376,-10.986 -10.308,-16.35 -22.334,-15.105c-7.21,0.746 -13.805,3.655 -17.095,5.323c-0.708,0.359 -1.355,0.705 -1.959,1.042c0.918,-11.069 4.388,-31.755 17.364,-44.842c8.17,-8.24 19.052,-12.31 32.309,-12.09c26.123,0.427 42.874,13.833 52.328,25.004c8.146,9.627 12.557,19.324 14.318,24.553c-13.239,-1.346 -22.244,1.268 -26.808,7.793c-9.93,14.195 5.432,41.746 12.816,54.987c1.354,2.427 2.522,4.524 2.89,5.415c2.404,5.827 5.517,9.717 7.79,12.557c0.696,0.87 1.372,1.714 1.886,2.451c-4.009,1.157 -11.212,3.827 -10.556,17.178c-0.529,6.699 -4.294,38.063 -6.206,49.144c-2.524,14.64 -7.911,20.093 -23.059,23.341Zm65.55,-75.015c-4.1,1.904 -10.961,3.332 -17.48,3.638c-7.199,0.337 -10.864,-0.807 -11.726,-1.51c-0.405,-8.32 2.692,-9.189 5.969,-10.109c0.515,-0.145 1.018,-0.286 1.502,-0.455c0.302,0.245 0.632,0.488 0.993,0.727c5.787,3.819 16.109,4.231 30.679,1.224c0.054,-0.012 0.107,-0.022 0.16,-0.033c-1.965,1.838 -5.328,4.304 -10.097,6.518Z" style="fill:#fff;fill-rule:nonzero;"/>
    </g>
</svg>
