<?xml version="1.0" encoding="UTF-8" standalone="no"?>
<!DOCTYPE svg PUBLIC "-//W3C//DTD SVG 1.1//EN" "http://www.w3.org/Graphics/SVG/1.1/DTD/svg11.dtd">
<svg width="100%" height="100%" viewBox="0 0 903 463" version="1.1" xmlns="http://www.w3.org/2000/svg" xmlns:xlink="http://www.w3.org/1999/xlink" xml:space="preserve" xmlns:serif="http://www.serif.com/" style="fill-rule:evenodd;clip-rule:evenodd;">
    <rect id="Artboard1" x="0" y="0" width="902.03" height="462.161" style="fill:none;"/>
    <g>
        <g>
            <path d="M14.923,24.117c-0,-2.895 2.382,-5.278 5.278,-5.278l226.952,0c2.895,0 5.278,2.383 5.278,5.278l-0,290.288c-0,2.895 -2.383,5.278 -5.278,5.278l-226.952,0c-2.896,0 -5.278,-2.383 -5.278,-5.278l-0,-290.288Z" style="fill-rule:nonzero;"/>
            <path d="M14.923,98.009l-0,38.001l237.508,-0l-0,-38.001m-237.508,73.891l-0,38.001l237.508,0l-0,-38.001m-237.508,73.892l-0,38.001l237.508,-0l-0,-38.001" style="fill:#1a1a1a;fill-rule:nonzero;"/>
            <path d="M14.923,61.063l-0,-36.946c-0,-2.895 2.382,-5.278 5.278,-5.278l226.952,0c2.895,0 5.278,2.383 5.278,5.278l-0,36.946" style="fill:#008aff;fill-rule:nonzero;"/>
            <path d="M14.923,24.117c-0,-2.895 2.382,-5.278 5.278,-5.278l226.952,0c2.895,0 5.278,2.383 5.278,5.278l-0,290.288c-0,2.895 -2.383,5.278 -5.278,5.278l-226.952,0c-2.896,0 -5.278,-2.383 -5.278,-5.278l-0,-290.288Zm-0,36.946l237.508,-0" style="fill:none;fill-rule:nonzero;stroke:#1071e5;stroke-width:2.11px;"/>
            <g id="a">
                <path id="p" d="M49.395,40.545c-0.052,3.389 -2.085,5.057 -5.421,5.057c-3.18,-0 -5.213,-1.668 -5.213,-4.9l-0,-8.236l1.72,-0c0.417,4.639 -1.72,11.676 3.493,11.676c5.317,0 3.336,-6.933 3.701,-11.676l1.72,-0l-0,8.079" style="fill:#fff;fill-rule:nonzero;"/>
                <path id="q" d="M57.84,37.939c-0.157,-1.772 -4.483,-1.981 -4.536,-0c0.782,2.763 5.995,0.625 6.204,4.691c0.208,4.066 -7.82,3.858 -8.184,0.417l1.459,-0.26c0.209,1.876 5.057,2.346 5.109,-0c-0.522,-2.919 -5.891,-0.782 -6.151,-4.692c-0.209,-2.971 4.274,-3.284 6.359,-2.189c0.626,0.365 1.095,0.99 1.251,1.824" style="fill:#fff;fill-rule:nonzero;"/>
                <path id="r" d="M64.564,45.602c-4.639,0.208 -2.815,-6.047 -3.18,-10.113l1.668,-0l0,6.255c0,1.616 0.365,2.607 2.033,2.555c3.754,-0.105 2.346,-5.265 2.607,-8.81l1.616,-0l0.052,9.904l-1.564,0c-0.052,-0.521 0.052,-1.303 -0.104,-1.72c-0.574,1.147 -1.46,1.877 -3.128,1.929" style="fill:#fff;fill-rule:nonzero;"/>
                <path id="s" d="M77.961,43.517c-0.782,1.094 -1.616,2.137 -3.545,2.085c-1.876,-0.052 -3.023,-1.095 -3.023,-2.972c-0.052,-3.336 3.284,-3.284 6.516,-3.284c0.156,-1.824 -0.469,-2.815 -2.137,-2.815c-1.251,0.053 -2.138,0.365 -2.19,1.616l-1.72,-0.156c0.261,-1.929 1.72,-2.711 3.962,-2.711c2.345,0 3.753,1.043 3.753,3.337l-0,4.274c-0.052,1.043 0.365,1.668 1.46,1.408l-0,1.042c-1.616,0.469 -3.18,-0.104 -3.076,-1.824Zm-4.848,-0.887c0,1.043 0.626,1.721 1.668,1.721c2.137,-0.157 3.284,-1.512 3.128,-3.858c-2.242,0.104 -4.796,-0.26 -4.796,2.137" style="fill:#fff;fill-rule:nonzero;"/>
                <path id="t" d="M86.979,36.896c-4.066,-0.834 -2.763,4.744 -2.971,8.497l-1.668,0l-0.052,-9.904l1.563,-0c0.053,0.625 -0.052,1.512 0.105,2.033c0.312,-1.408 1.199,-2.554 3.023,-2.137l0,1.511" style="fill:#fff;fill-rule:nonzero;"/>
                <path id="u" d="M88.491,33.352l-0,-1.564l1.668,-0l-0,1.564l-1.668,-0Zm-0,12.041l-0,-9.904l1.668,-0l-0,9.904l-1.668,0" style="fill:#fff;fill-rule:nonzero;"/>
                <path id="v" d="M96.571,35.28c3.232,-0.052 4.431,1.929 4.431,5.161c0.052,3.284 -1.408,5.161 -4.483,5.161c-3.076,-0 -4.327,-2.033 -4.379,-5.161c-0,-3.44 1.459,-5.161 4.431,-5.161Zm-0.052,9.071c2.293,0.052 2.762,-1.616 2.762,-3.91c0,-2.241 -0.417,-3.91 -2.658,-3.91c-2.242,0 -2.763,1.669 -2.763,3.91c0,2.242 0.521,3.858 2.659,3.91" style="fill:#fff;fill-rule:nonzero;"/>
            </g>
            <g id="b">
                <path id="w" d="M33.743,84.978l0,-12.928l1.773,0l-0,12.928l-1.773,-0" style="fill:#fff;fill-rule:nonzero;"/>
                <path id="x" d="M41.667,74.865c1.616,0 2.502,0.678 3.128,1.72l-0.053,-5.212l1.669,-0l0.052,13.605l-1.564,-0c-0.104,-0.521 -0,-1.199 -0.157,-1.616c-0.521,1.199 -1.459,1.824 -3.075,1.824c-2.763,0 -3.597,-2.033 -3.649,-5.108c-0,-3.441 1.199,-5.213 3.649,-5.213Zm0.469,1.251c-2.085,0 -2.398,1.773 -2.398,3.91c0,2.085 0.313,3.857 2.346,3.857c2.189,0 2.658,-1.668 2.658,-3.961c0,-2.19 -0.469,-3.858 -2.606,-3.806" style="fill:#fff;fill-rule:nonzero;"/>
            </g>
            <g id="c">
                <path id="y" d="M38.122,111.811c4.64,-0.209 2.763,6.047 3.128,10.113l-1.668,-0l-0,-6.308c-0,-1.616 -0.417,-2.554 -2.033,-2.502c-3.753,0.104 -2.294,5.317 -2.555,8.81l-1.668,-0l-0.052,-9.905l1.564,0c0.052,0.522 -0.052,1.251 0.104,1.668c0.574,-1.146 1.512,-1.824 3.18,-1.876" style="fill:#fff;fill-rule:nonzero;"/>
                <path id="v1" serif:id="v" d="M47.662,111.811c3.232,-0.052 4.43,1.929 4.43,5.161c0.053,3.284 -1.407,5.16 -4.483,5.16c-3.075,0 -4.326,-2.033 -4.378,-5.16c-0,-3.441 1.459,-5.161 4.431,-5.161Zm-0.053,9.07c2.294,0.052 2.763,-1.616 2.763,-3.909c0,-2.242 -0.417,-3.91 -2.658,-3.91c-2.242,-0 -2.763,1.668 -2.763,3.91c-0,2.241 0.521,3.857 2.658,3.909" style="fill:#fff;fill-rule:nonzero;"/>
                <path id="z" d="M63.821,113.114c-3.492,0.156 -1.981,5.474 -2.293,8.81l-1.616,-0l-0,-6.308c-0,-1.512 -0.261,-2.606 -1.825,-2.502c-3.44,0.209 -1.981,5.421 -2.293,8.81l-1.616,-0l-0.053,-9.905l1.564,0c0.052,0.522 -0.052,1.251 0.105,1.668c0.521,-2.293 5.16,-2.606 5.577,0c0.574,-1.094 1.408,-1.824 3.024,-1.876c4.431,-0.104 2.45,6.203 2.867,10.113l-1.616,-0l-0,-6.308c-0,-1.512 -0.261,-2.554 -1.825,-2.502" style="fill:#fff;fill-rule:nonzero;"/>
                <path id="A" d="M74.455,111.811c2.763,-0 3.597,2.033 3.649,5.108c0,3.441 -1.199,5.213 -3.649,5.213c-1.616,-0.052 -2.554,-0.573 -3.075,-1.772l-0.104,1.564l-1.616,-0l0.052,-13.606l1.668,0l-0,5.265c0.521,-1.199 1.459,-1.772 3.075,-1.772Zm-0.417,9.07c2.085,0 2.346,-1.772 2.346,-3.909c0,-2.086 -0.261,-3.91 -2.346,-3.858c-2.189,0 -2.658,1.668 -2.658,3.962c-0,2.241 0.521,3.805 2.658,3.805" style="fill:#fff;fill-rule:nonzero;"/>
                <path id="t1" serif:id="t" d="M84.829,113.427c-4.066,-0.834 -2.763,4.743 -2.971,8.497l-1.669,-0l-0.052,-9.905l1.564,0c0.052,0.626 -0.052,1.512 0.104,2.033c0.313,-1.407 1.199,-2.554 3.024,-2.137l-0,1.512" style="fill:#fff;fill-rule:nonzero;"/>
                <path id="B" d="M90.302,111.811c3.284,-0 4.483,2.189 4.379,5.525l-7.037,0c-0,2.086 0.73,3.493 2.763,3.545c1.355,0.052 2.241,-0.625 2.554,-1.512l1.459,0.417c-0.573,1.46 -1.928,2.346 -4.013,2.346c-3.024,0 -4.588,-1.929 -4.536,-5.213c0.053,-3.179 1.356,-5.108 4.431,-5.108Zm2.711,4.222c0.313,-3.127 -3.962,-4.014 -5.056,-1.459c-0.157,0.365 -0.313,0.886 -0.313,1.459l5.369,0" style="fill:#fff;fill-rule:nonzero;"/>
            </g>
            <g id="d">
                <path id="s1" serif:id="s" d="M39.373,156.993c-0.782,1.095 -1.616,2.137 -3.544,2.085c-1.877,-0.052 -3.024,-1.095 -3.024,-2.971c-0.052,-3.337 3.284,-3.284 6.516,-3.284c0.156,-1.825 -0.469,-2.815 -2.137,-2.815c-1.251,0.052 -2.137,0.365 -2.19,1.616l-1.72,-0.157c0.261,-1.928 1.72,-2.71 3.962,-2.71c2.346,-0 3.753,1.042 3.753,3.336l0,4.274c-0.052,1.043 0.365,1.668 1.46,1.408l-0,1.042c-1.616,0.469 -3.18,-0.104 -3.076,-1.824Zm-4.848,-0.886c0,1.042 0.626,1.72 1.668,1.72c2.138,-0.157 3.284,-1.512 3.128,-3.858c-2.241,0.105 -4.796,-0.26 -4.796,2.138" style="fill:#fff;fill-rule:nonzero;"/>
                <path id="C" d="M48.443,148.757c2.868,0.052 3.649,2.137 3.649,5.108c0,2.971 -0.834,5.109 -3.649,5.213c-1.615,-0 -2.554,-0.678 -3.127,-1.772l0.052,5.473l-1.668,0l-0.052,-13.814l1.616,0l0.104,1.564c0.521,-1.095 1.46,-1.772 3.075,-1.772Zm-0.417,9.07c2.086,-0 2.346,-1.772 2.346,-3.91c0,-2.137 -0.313,-3.805 -2.346,-3.857c-2.189,-0 -2.658,1.668 -2.658,3.962c-0,2.241 0.521,3.805 2.658,3.805" style="fill:#fff;fill-rule:nonzero;"/>
                <path id="B1" serif:id="B" d="M58.087,148.757c3.284,-0 4.483,2.189 4.379,5.525l-7.037,0c-0,2.085 0.729,3.493 2.762,3.545c1.356,0.052 2.242,-0.626 2.555,-1.512l1.459,0.417c-0.573,1.46 -1.928,2.346 -4.014,2.346c-3.023,-0 -4.587,-1.929 -4.535,-5.213c0.052,-3.18 1.356,-5.108 4.431,-5.108Zm2.711,4.222c0.313,-3.128 -3.962,-4.014 -5.057,-1.46c-0.156,0.365 -0.312,0.887 -0.312,1.46l5.369,-0" style="fill:#fff;fill-rule:nonzero;"/>
                <path id="D" d="M64.551,158.869l0,-13.605l1.668,0l0,13.605l-1.668,0" style="fill:#fff;fill-rule:nonzero;"/>
                <path id="D1" serif:id="D" d="M68.669,158.869l0,-13.605l1.668,0l0,13.605l-1.668,0" style="fill:#fff;fill-rule:nonzero;"/>
                <path id="u1" serif:id="u" d="M72.787,146.828l0,-1.564l1.668,0l0,1.564l-1.668,-0Zm0,12.041l0,-9.904l1.668,0l0,9.904l-1.668,0" style="fill:#fff;fill-rule:nonzero;"/>
                <path id="x1" serif:id="x" d="M80.085,148.757c1.616,-0 2.502,0.677 3.128,1.72l-0.052,-5.213l1.668,0l0.052,13.605l-1.564,0c-0.104,-0.521 0,-1.199 -0.156,-1.616c-0.522,1.199 -1.46,1.825 -3.076,1.825c-2.763,-0 -3.597,-2.033 -3.649,-5.109c0,-3.44 1.199,-5.212 3.649,-5.212Zm0.469,1.251c-2.085,-0 -2.398,1.772 -2.398,3.909c0,2.085 0.313,3.858 2.346,3.858c2.19,-0 2.659,-1.668 2.659,-3.962c-0,-2.189 -0.469,-3.857 -2.607,-3.805" style="fill:#fff;fill-rule:nonzero;"/>
                <path id="v2" serif:id="v" d="M91.293,148.757c3.232,-0.053 4.431,1.928 4.431,5.16c0.052,3.284 -1.408,5.161 -4.483,5.161c-3.076,-0 -4.327,-2.033 -4.379,-5.161c-0,-3.44 1.459,-5.16 4.431,-5.16Zm-0.052,9.07c2.293,0.052 2.762,-1.616 2.762,-3.91c0,-2.241 -0.417,-3.909 -2.658,-3.909c-2.242,-0 -2.763,1.668 -2.763,3.909c0,2.242 0.521,3.858 2.659,3.91" style="fill:#fff;fill-rule:nonzero;"/>
            </g>
            <g id="e">
                <path id="B2" serif:id="B" d="M37.236,185.702c3.284,0 4.483,2.19 4.379,5.526l-7.038,-0c0,2.085 0.73,3.492 2.763,3.545c1.356,0.052 2.242,-0.626 2.555,-1.512l1.459,0.417c-0.573,1.459 -1.929,2.346 -4.014,2.346c-3.023,-0 -4.587,-1.929 -4.535,-5.213c0.052,-3.18 1.355,-5.109 4.431,-5.109Zm2.711,4.223c0.312,-3.128 -3.962,-4.014 -5.057,-1.46c-0.156,0.365 -0.313,0.886 -0.313,1.46l5.37,-0" style="fill:#fff;fill-rule:nonzero;"/>
                <path id="z1" serif:id="z" d="M53.396,187.006c-3.493,0.156 -1.981,5.473 -2.294,8.809l-1.616,0l0,-6.307c0,-1.512 -0.261,-2.607 -1.824,-2.502c-3.441,0.208 -1.981,5.421 -2.294,8.809l-1.616,0l-0.052,-9.904l1.564,-0c0.052,0.521 -0.052,1.251 0.104,1.668c0.521,-2.294 5.161,-2.606 5.578,-0c0.573,-1.095 1.407,-1.825 3.023,-1.877c4.431,-0.104 2.45,6.204 2.867,10.113l-1.616,0l0,-6.307c0,-1.512 -0.26,-2.555 -1.824,-2.502" style="fill:#fff;fill-rule:nonzero;"/>
                <path id="s2" serif:id="s" d="M65.385,193.939c-0.782,1.094 -1.616,2.137 -3.545,2.085c-1.876,-0.052 -3.023,-1.095 -3.023,-2.972c-0.052,-3.336 3.284,-3.284 6.516,-3.284c0.156,-1.824 -0.469,-2.815 -2.137,-2.815c-1.251,0.053 -2.138,0.365 -2.19,1.616l-1.72,-0.156c0.261,-1.929 1.72,-2.711 3.962,-2.711c2.346,0 3.753,1.043 3.753,3.337l0,4.274c-0.052,1.043 0.365,1.668 1.46,1.407l-0,1.043c-1.616,0.469 -3.18,-0.104 -3.076,-1.824Zm-4.848,-0.887c0,1.043 0.626,1.721 1.668,1.721c2.138,-0.157 3.284,-1.512 3.128,-3.858c-2.242,0.104 -4.796,-0.261 -4.796,2.137" style="fill:#fff;fill-rule:nonzero;"/>
                <path id="u2" serif:id="u" d="M69.712,183.774l-0,-1.564l1.668,-0l-0,1.564l-1.668,-0Zm-0,12.041l-0,-9.904l1.668,-0l-0,9.904l-1.668,0" style="fill:#fff;fill-rule:nonzero;"/>
                <path id="D2" serif:id="D" d="M73.83,195.815l-0,-13.605l1.668,-0l-0,13.605l-1.668,0" style="fill:#fff;fill-rule:nonzero;"/>
            </g>
            <g id="f">
                <path id="C1" serif:id="C" d="M38.018,222.648c2.867,0.052 3.649,2.137 3.649,5.109c-0,2.971 -0.834,5.108 -3.649,5.212c-1.616,0 -2.554,-0.677 -3.128,-1.772l0.052,5.473l-1.668,0l-0.052,-13.813l1.616,-0l0.104,1.563c0.522,-1.094 1.46,-1.772 3.076,-1.772Zm-0.417,9.07c2.085,0 2.346,-1.772 2.346,-3.909c-0,-2.138 -0.313,-3.806 -2.346,-3.858c-2.19,0 -2.659,1.668 -2.659,3.962c0,2.241 0.522,3.805 2.659,3.805" style="fill:#fff;fill-rule:nonzero;"/>
                <path id="s3" serif:id="s" d="M49.799,230.884c-0.782,1.095 -1.616,2.138 -3.545,2.085c-1.876,-0.052 -3.023,-1.094 -3.023,-2.971c-0.052,-3.336 3.284,-3.284 6.516,-3.284c0.156,-1.824 -0.469,-2.815 -2.138,-2.815c-1.251,0.052 -2.137,0.365 -2.189,1.616l-1.72,-0.156c0.26,-1.929 1.72,-2.711 3.962,-2.711c2.345,0 3.753,1.043 3.753,3.336l-0,4.275c-0.052,1.042 0.365,1.668 1.459,1.407l0,1.043c-1.616,0.469 -3.179,-0.105 -3.075,-1.825Zm-4.848,-0.886c-0,1.043 0.625,1.72 1.668,1.72c2.137,-0.156 3.284,-1.511 3.128,-3.857c-2.242,0.104 -4.796,-0.261 -4.796,2.137" style="fill:#fff;fill-rule:nonzero;"/>
                <path id="q1" serif:id="q" d="M59.912,225.307c-0.157,-1.773 -4.483,-1.981 -4.535,-0c0.781,2.762 5.994,0.625 6.203,4.691c0.208,4.066 -7.819,3.858 -8.184,0.417l1.459,-0.261c0.209,1.877 5.057,2.346 5.109,0c-0.521,-2.919 -5.891,-0.781 -6.151,-4.691c-0.209,-2.971 4.274,-3.284 6.359,-2.189c0.626,0.364 1.095,0.99 1.251,1.824" style="fill:#fff;fill-rule:nonzero;"/>
                <path id="q2" serif:id="q" d="M69.295,225.307c-0.157,-1.773 -4.483,-1.981 -4.535,-0c0.781,2.762 5.994,0.625 6.203,4.691c0.208,4.066 -7.819,3.858 -8.184,0.417l1.459,-0.261c0.209,1.877 5.057,2.346 5.109,0c-0.521,-2.919 -5.891,-0.781 -6.151,-4.691c-0.209,-2.971 4.274,-3.284 6.359,-2.189c0.626,0.364 1.095,0.99 1.251,1.824" style="fill:#fff;fill-rule:nonzero;"/>
                <path id="E" d="M82.379,232.761l-1.877,-0l-2.085,-8.549l-2.137,8.549l-1.877,-0l-2.815,-9.904l1.668,-0l2.033,8.549l2.242,-8.549l1.772,-0l2.138,8.549l2.189,-8.549l1.616,-0" style="fill:#fff;fill-rule:nonzero;"/>
                <path id="v3" serif:id="v" d="M90.354,222.648c3.232,-0.052 4.431,1.929 4.431,5.161c0.052,3.284 -1.407,5.16 -4.483,5.16c-3.075,0 -4.326,-2.033 -4.378,-5.16c-0,-3.441 1.459,-5.161 4.43,-5.161Zm-0.052,9.07c2.294,0.052 2.763,-1.616 2.763,-3.909c0,-2.242 -0.417,-3.91 -2.658,-3.91c-2.242,0 -2.763,1.668 -2.763,3.91c-0,2.241 0.521,3.857 2.658,3.909" style="fill:#fff;fill-rule:nonzero;"/>
                <path id="t2" serif:id="t" d="M101.51,224.264c-4.066,-0.834 -2.763,4.744 -2.971,8.497l-1.669,-0l-0.052,-9.904l1.564,-0c0.052,0.625 -0.052,1.511 0.104,2.033c0.313,-1.408 1.199,-2.555 3.024,-2.138l-0,1.512" style="fill:#fff;fill-rule:nonzero;"/>
                <path id="x2" serif:id="x" d="M106.201,222.648c1.616,0 2.502,0.678 3.128,1.72l-0.052,-5.213l1.668,0l0.052,13.606l-1.564,-0c-0.104,-0.521 0,-1.199 -0.156,-1.616c-0.521,1.199 -1.46,1.824 -3.076,1.824c-2.762,0 -3.596,-2.033 -3.649,-5.108c0,-3.441 1.199,-5.213 3.649,-5.213Zm0.469,1.251c-2.085,0 -2.397,1.772 -2.397,3.91c-0,2.085 0.312,3.857 2.345,3.857c2.19,0 2.659,-1.668 2.659,-3.962c-0,-2.189 -0.469,-3.857 -2.607,-3.805" style="fill:#fff;fill-rule:nonzero;"/>
            </g>
            <g id="g">
                <path id="F" d="M37.027,260.897c-2.085,-0 -2.502,1.72 -2.502,3.805c0,2.085 0.469,3.91 2.502,3.91c1.252,-0 2.138,-0.73 2.242,-1.981l1.668,0.104c-0.313,1.929 -1.616,3.18 -3.857,3.18c-3.076,0 -3.962,-2.137 -4.275,-5.161c-0.521,-4.847 5.265,-6.828 7.663,-3.336c0.208,0.365 0.261,0.73 0.365,1.147l-1.668,0.156c-0.209,-1.094 -0.834,-1.824 -2.138,-1.824" style="fill:#fff;fill-rule:nonzero;"/>
                <path id="B3" serif:id="B" d="M46.619,259.594c3.284,-0 4.483,2.189 4.379,5.525l-7.038,0c0,2.085 0.73,3.493 2.763,3.545c1.356,0.052 2.242,-0.625 2.555,-1.512l1.459,0.417c-0.573,1.46 -1.929,2.346 -4.014,2.346c-3.023,0 -4.587,-1.929 -4.535,-5.213c0.052,-3.179 1.355,-5.108 4.431,-5.108Zm2.711,4.222c0.312,-3.128 -3.962,-4.014 -5.057,-1.459c-0.156,0.364 -0.313,0.886 -0.313,1.459l5.37,0" style="fill:#fff;fill-rule:nonzero;"/>
                <path id="D3" serif:id="D" d="M53.083,269.707l-0,-13.606l1.668,0l-0,13.606l-1.668,-0" style="fill:#fff;fill-rule:nonzero;"/>
                <path id="r1" serif:id="r" d="M60.329,269.915c-4.64,0.209 -2.815,-6.047 -3.18,-10.113l1.668,0l-0,6.256c-0,1.616 0.365,2.606 2.033,2.554c3.753,-0.104 2.346,-5.265 2.606,-8.81l1.616,0l0.052,9.905l-1.563,-0c-0.053,-0.522 0.052,-1.304 -0.105,-1.721c-0.573,1.147 -1.459,1.877 -3.127,1.929" style="fill:#fff;fill-rule:nonzero;"/>
                <path id="D4" serif:id="D" d="M67.627,269.707l-0,-13.606l1.668,0l-0,13.606l-1.668,-0" style="fill:#fff;fill-rule:nonzero;"/>
                <path id="s4" serif:id="s" d="M77.844,267.83c-0.782,1.095 -1.616,2.137 -3.545,2.085c-1.877,-0.052 -3.023,-1.095 -3.023,-2.971c-0.053,-3.336 3.284,-3.284 6.516,-3.284c0.156,-1.825 -0.47,-2.815 -2.138,-2.815c-1.251,0.052 -2.137,0.365 -2.189,1.616l-1.72,-0.157c0.26,-1.928 1.72,-2.71 3.961,-2.71c2.346,-0 3.754,1.042 3.754,3.336l-0,4.274c-0.052,1.043 0.365,1.669 1.459,1.408l0,1.042c-1.616,0.47 -3.18,-0.104 -3.075,-1.824Zm-4.848,-0.886c-0,1.042 0.625,1.72 1.668,1.72c2.137,-0.156 3.284,-1.512 3.128,-3.857c-2.242,0.104 -4.796,-0.261 -4.796,2.137" style="fill:#fff;fill-rule:nonzero;"/>
                <path id="t3" serif:id="t" d="M86.862,261.21c-4.066,-0.834 -2.763,4.743 -2.971,8.497l-1.669,-0l-0.052,-9.905l1.564,0c0.052,0.626 -0.052,1.512 0.104,2.033c0.313,-1.407 1.199,-2.554 3.024,-2.137l-0,1.512" style="fill:#fff;fill-rule:nonzero;"/>
            </g>
            <g id="h">
                <path id="t4" serif:id="t" d="M37.966,298.155c-4.066,-0.834 -2.763,4.744 -2.972,8.497l-1.668,0l-0.052,-9.904l1.564,0c0.052,0.626 -0.052,1.512 0.104,2.033c0.313,-1.407 1.199,-2.554 3.024,-2.137l-0,1.511" style="fill:#fff;fill-rule:nonzero;"/>
                <path id="v4" serif:id="v" d="M43.439,296.54c3.232,-0.053 4.431,1.928 4.431,5.16c0.052,3.284 -1.407,5.161 -4.483,5.161c-3.075,-0 -4.327,-2.033 -4.379,-5.161c0,-3.44 1.46,-5.16 4.431,-5.16Zm-0.052,9.07c2.294,0.052 2.763,-1.616 2.763,-3.91c-0,-2.241 -0.417,-3.909 -2.659,-3.909c-2.241,-0 -2.762,1.668 -2.762,3.909c-0,2.242 0.521,3.858 2.658,3.91" style="fill:#fff;fill-rule:nonzero;"/>
                <path id="D5" serif:id="D" d="M49.903,306.652l0,-13.605l1.668,-0l0,13.605l-1.668,0" style="fill:#fff;fill-rule:nonzero;"/>
                <path id="B4" serif:id="B" d="M57.983,296.54c3.284,-0 4.483,2.189 4.379,5.525l-7.038,0c0,2.085 0.73,3.493 2.763,3.545c1.356,0.052 2.242,-0.626 2.554,-1.512l1.46,0.417c-0.573,1.46 -1.929,2.346 -4.014,2.346c-3.023,-0 -4.587,-1.929 -4.535,-5.213c0.052,-3.18 1.355,-5.108 4.431,-5.108Zm2.711,4.222c0.312,-3.128 -3.962,-4.014 -5.057,-1.46c-0.156,0.365 -0.313,0.886 -0.313,1.46l5.37,-0" style="fill:#fff;fill-rule:nonzero;"/>
            </g>
            <path d="M652.901,24.117c0,-2.895 2.383,-5.278 5.278,-5.278l226.953,0c2.895,0 5.278,2.383 5.278,5.278l-0,179.451c-0,2.895 -2.383,5.278 -5.278,5.278l-226.953,-0c-2.895,-0 -5.278,-2.383 -5.278,-5.278l0,-179.451Z" style="fill-rule:nonzero;"/>
            <path d="M652.901,98.009l0,38.001l237.509,-0l-0,-38.001m-237.509,73.891l0,31.668c0,2.895 2.383,5.278 5.278,5.278l226.953,-0c2.895,-0 5.278,-2.383 5.278,-5.278l-0,-31.668" style="fill:#1a1a1a;fill-rule:nonzero;"/>
            <path d="M652.901,61.063l0,-36.946c0,-2.895 2.383,-5.278 5.278,-5.278l226.953,0c2.895,0 5.278,2.383 5.278,5.278l-0,36.946" style="fill:#008aff;fill-rule:nonzero;"/>
            <path d="M652.901,24.117c0,-2.895 2.383,-5.278 5.278,-5.278l226.953,0c2.895,0 5.278,2.383 5.278,5.278l-0,179.451c-0,2.895 -2.383,5.278 -5.278,5.278l-226.953,-0c-2.895,-0 -5.278,-2.383 -5.278,-5.278l0,-179.451Zm0,36.946l237.509,-0" style="fill:none;fill-rule:nonzero;stroke:#1071e5;stroke-width:2.11px;"/>
            <g id="i">
                <path id="G" d="M687.43,36.167c-0.052,2.137 -1.199,3.336 -3.128,3.649l3.649,5.577l-1.981,0l-3.388,-5.369l-4.014,0l0,5.369l-1.72,0l-0,-12.927c4.587,0.156 10.686,-1.095 10.582,3.701Zm-8.862,2.502c3.128,-0.105 7.142,0.677 7.142,-2.45c-0,-3.18 -4.171,-2.19 -7.142,-2.346l0,4.796" style="fill:#fff;fill-rule:nonzero;"/>
                <path id="v5" serif:id="v" d="M693.998,35.28c3.232,-0.052 4.431,1.929 4.431,5.161c0.052,3.284 -1.408,5.161 -4.483,5.161c-3.076,-0 -4.327,-2.033 -4.379,-5.161c0,-3.44 1.46,-5.161 4.431,-5.161Zm-0.052,9.071c2.294,0.052 2.763,-1.616 2.763,-3.91c-0,-2.241 -0.417,-3.91 -2.659,-3.91c-2.241,0 -2.763,1.669 -2.763,3.91c0,2.242 0.522,3.858 2.659,3.91" style="fill:#fff;fill-rule:nonzero;"/>
                <path id="D6" serif:id="D" d="M700.462,45.393l-0,-13.605l1.668,-0l-0,13.605l-1.668,0" style="fill:#fff;fill-rule:nonzero;"/>
                <path id="B5" serif:id="B" d="M708.542,35.28c3.284,0 4.483,2.19 4.378,5.526l-7.037,-0c0,2.085 0.73,3.493 2.763,3.545c1.355,0.052 2.241,-0.626 2.554,-1.512l1.46,0.417c-0.574,1.46 -1.929,2.346 -4.014,2.346c-3.023,-0 -4.587,-1.929 -4.535,-5.213c0.052,-3.18 1.355,-5.109 4.431,-5.109Zm2.71,4.223c0.313,-3.128 -3.961,-4.014 -5.056,-1.46c-0.156,0.365 -0.313,0.886 -0.313,1.46l5.369,-0" style="fill:#fff;fill-rule:nonzero;"/>
                <path id="q3" serif:id="q" d="M720.792,37.939c-0.157,-1.772 -4.483,-1.981 -4.535,-0c0.782,2.763 5.994,0.625 6.203,4.691c0.208,4.066 -7.819,3.858 -8.184,0.417l1.459,-0.26c0.209,1.876 5.057,2.346 5.109,-0c-0.521,-2.919 -5.891,-0.782 -6.151,-4.692c-0.209,-2.971 4.274,-3.284 6.359,-2.189c0.626,0.365 1.095,0.99 1.252,1.824" style="fill:#fff;fill-rule:nonzero;"/>
            </g>
            <g id="b1" serif:id="b">
                <path id="w1" serif:id="w" d="M671.726,84.978l0,-12.928l1.773,0l-0,12.928l-1.773,-0" style="fill:#fff;fill-rule:nonzero;"/>
                <path id="x3" serif:id="x" d="M679.65,74.865c1.616,0 2.502,0.678 3.127,1.72l-0.052,-5.212l1.668,-0l0.053,13.605l-1.564,-0c-0.105,-0.521 -0,-1.199 -0.157,-1.616c-0.521,1.199 -1.459,1.824 -3.075,1.824c-2.763,0 -3.597,-2.033 -3.649,-5.108c-0,-3.441 1.199,-5.213 3.649,-5.213Zm0.469,1.251c-2.085,0 -2.398,1.773 -2.398,3.91c0,2.085 0.313,3.857 2.346,3.857c2.189,0 2.658,-1.668 2.658,-3.961c0,-2.19 -0.469,-3.858 -2.606,-3.806" style="fill:#fff;fill-rule:nonzero;"/>
            </g>
            <g id="j">
                <path id="y1" serif:id="y" d="M676.105,111.811c4.639,-0.209 2.763,6.047 3.128,10.113l-1.668,-0l-0,-6.308c-0,-1.616 -0.417,-2.554 -2.033,-2.502c-3.754,0.104 -2.294,5.317 -2.555,8.81l-1.668,-0l-0.052,-9.905l1.564,0c0.052,0.522 -0.052,1.251 0.104,1.668c0.574,-1.146 1.512,-1.824 3.18,-1.876" style="fill:#fff;fill-rule:nonzero;"/>
                <path id="s5" serif:id="s" d="M687.782,120.047c-0.782,1.095 -1.616,2.137 -3.545,2.085c-1.877,-0.052 -3.023,-1.094 -3.023,-2.971c-0.053,-3.336 3.284,-3.284 6.516,-3.284c0.156,-1.825 -0.47,-2.815 -2.138,-2.815c-1.251,0.052 -2.137,0.365 -2.189,1.616l-1.72,-0.156c0.26,-1.929 1.72,-2.711 3.962,-2.711c2.345,-0 3.753,1.042 3.753,3.336l-0,4.275c-0.052,1.042 0.365,1.668 1.459,1.407l0,1.043c-1.616,0.469 -3.18,-0.105 -3.075,-1.825Zm-4.848,-0.886c-0,1.042 0.625,1.72 1.668,1.72c2.137,-0.156 3.284,-1.512 3.128,-3.857c-2.242,0.104 -4.796,-0.261 -4.796,2.137" style="fill:#fff;fill-rule:nonzero;"/>
                <path id="z2" serif:id="z" d="M701.804,113.114c-3.492,0.156 -1.981,5.474 -2.293,8.81l-1.616,-0l-0,-6.308c-0,-1.512 -0.261,-2.606 -1.825,-2.502c-3.44,0.209 -1.981,5.421 -2.294,8.81l-1.615,-0l-0.053,-9.905l1.564,0c0.052,0.522 -0.052,1.251 0.104,1.668c0.522,-2.293 5.161,-2.606 5.578,0c0.574,-1.094 1.408,-1.824 3.024,-1.876c4.43,-0.104 2.45,6.203 2.867,10.113l-1.616,-0l-0,-6.308c-0,-1.512 -0.261,-2.554 -1.825,-2.502" style="fill:#fff;fill-rule:nonzero;"/>
                <path id="B6" serif:id="B" d="M711.656,111.811c3.284,-0 4.483,2.189 4.379,5.525l-7.037,0c-0,2.086 0.73,3.493 2.763,3.545c1.355,0.052 2.241,-0.625 2.554,-1.512l1.459,0.417c-0.573,1.46 -1.928,2.346 -4.013,2.346c-3.024,0 -4.588,-1.929 -4.535,-5.213c0.052,-3.179 1.355,-5.108 4.43,-5.108Zm2.711,4.222c0.313,-3.127 -3.962,-4.014 -5.056,-1.459c-0.157,0.365 -0.313,0.886 -0.313,1.459l5.369,0" style="fill:#fff;fill-rule:nonzero;"/>
            </g>
            <g id="k">
                <path id="F1" serif:id="F" d="M675.01,150.06c-2.085,-0 -2.502,1.72 -2.502,3.805c0,2.085 0.469,3.91 2.502,3.91c1.251,-0 2.138,-0.73 2.242,-1.981l1.668,0.104c-0.313,1.929 -1.616,3.18 -3.857,3.18c-3.076,-0 -3.962,-2.137 -4.275,-5.161c-0.521,-4.848 5.265,-6.829 7.663,-3.336c0.208,0.365 0.26,0.73 0.365,1.147l-1.668,0.156c-0.209,-1.094 -0.834,-1.824 -2.138,-1.824" style="fill:#fff;fill-rule:nonzero;"/>
                <path id="t5" serif:id="t" d="M685.332,150.373c-4.066,-0.834 -2.763,4.743 -2.972,8.496l-1.668,0l-0.052,-9.904l1.564,0c0.052,0.626 -0.052,1.512 0.104,2.033c0.313,-1.407 1.199,-2.554 3.024,-2.137l-0,1.512" style="fill:#fff;fill-rule:nonzero;"/>
                <path id="B7" serif:id="B" d="M690.805,148.757c3.284,-0 4.483,2.189 4.379,5.525l-7.037,0c-0,2.085 0.729,3.493 2.762,3.545c1.356,0.052 2.242,-0.626 2.555,-1.512l1.459,0.417c-0.573,1.46 -1.928,2.346 -4.014,2.346c-3.023,-0 -4.587,-1.929 -4.535,-5.213c0.052,-3.18 1.356,-5.108 4.431,-5.108Zm2.711,4.222c0.313,-3.128 -3.962,-4.014 -5.057,-1.46c-0.156,0.365 -0.312,0.887 -0.312,1.46l5.369,-0" style="fill:#fff;fill-rule:nonzero;"/>
                <path id="s6" serif:id="s" d="M703.368,156.993c-0.782,1.095 -1.616,2.137 -3.545,2.085c-1.876,-0.052 -3.023,-1.095 -3.023,-2.971c-0.052,-3.337 3.284,-3.284 6.516,-3.284c0.156,-1.825 -0.469,-2.815 -2.137,-2.815c-1.251,0.052 -2.138,0.365 -2.19,1.616l-1.72,-0.157c0.261,-1.928 1.72,-2.71 3.962,-2.71c2.346,-0 3.753,1.042 3.753,3.336l-0,4.274c-0.052,1.043 0.365,1.668 1.46,1.408l-0,1.042c-1.616,0.469 -3.18,-0.104 -3.076,-1.824Zm-4.848,-0.886c0,1.042 0.626,1.72 1.668,1.72c2.137,-0.157 3.284,-1.512 3.128,-3.858c-2.242,0.105 -4.796,-0.26 -4.796,2.138" style="fill:#fff;fill-rule:nonzero;"/>
                <path id="H" d="M709.519,156.419c-0.104,1.251 0.938,1.512 1.981,1.147l0,1.251c-1.72,0.522 -3.649,0.261 -3.649,-2.033l0,-6.62l-1.147,0l0,-1.199l1.251,0l0.469,-2.241l1.095,-0l0,2.241l1.825,0l-0,1.199l-1.825,0l0,6.255" style="fill:#fff;fill-rule:nonzero;"/>
                <path id="B8" serif:id="B" d="M716.869,148.757c3.284,-0 4.483,2.189 4.379,5.525l-7.037,0c-0,2.085 0.729,3.493 2.762,3.545c1.356,0.052 2.242,-0.626 2.555,-1.512l1.459,0.417c-0.573,1.46 -1.928,2.346 -4.014,2.346c-3.023,-0 -4.587,-1.929 -4.535,-5.213c0.052,-3.18 1.356,-5.108 4.431,-5.108Zm2.711,4.222c0.313,-3.128 -3.962,-4.014 -5.057,-1.46c-0.156,0.365 -0.312,0.887 -0.312,1.46l5.369,-0" style="fill:#fff;fill-rule:nonzero;"/>
                <path id="x4" serif:id="x" d="M726.513,148.757c1.616,-0 2.502,0.677 3.128,1.72l-0.053,-5.213l1.669,0l0.052,13.605l-1.564,0c-0.104,-0.521 -0,-1.199 -0.157,-1.616c-0.521,1.199 -1.459,1.825 -3.075,1.825c-2.763,-0 -3.597,-2.033 -3.649,-5.109c-0,-3.44 1.199,-5.212 3.649,-5.212Zm0.469,1.251c-2.085,-0 -2.398,1.772 -2.398,3.909c0,2.085 0.313,3.858 2.346,3.858c2.189,-0 2.658,-1.668 2.658,-3.962c0,-2.189 -0.469,-3.857 -2.606,-3.805" style="fill:#fff;fill-rule:nonzero;"/>
            </g>
            <g id="l">
                <path id="z3" serif:id="z" d="M680.953,187.006c-3.493,0.156 -1.981,5.473 -2.294,8.809l-1.616,0l0,-6.307c0,-1.512 -0.26,-2.607 -1.824,-2.502c-3.441,0.208 -1.981,5.421 -2.294,8.809l-1.616,0l-0.052,-9.904l1.564,-0c0.052,0.521 -0.052,1.251 0.104,1.668c0.522,-2.294 5.161,-2.606 5.578,-0c0.573,-1.095 1.407,-1.825 3.023,-1.877c4.431,-0.104 2.45,6.204 2.867,10.113l-1.616,0l0,-6.307c0,-1.512 -0.26,-2.555 -1.824,-2.502" style="fill:#fff;fill-rule:nonzero;"/>
                <path id="v6" serif:id="v" d="M690.805,185.702c3.232,-0.052 4.431,1.929 4.431,5.161c0.052,3.284 -1.407,5.161 -4.483,5.161c-3.076,-0 -4.327,-2.033 -4.379,-5.161c0,-3.44 1.46,-5.161 4.431,-5.161Zm-0.052,9.071c2.294,0.052 2.763,-1.616 2.763,-3.91c-0,-2.242 -0.417,-3.91 -2.659,-3.91c-2.241,0 -2.762,1.668 -2.762,3.91c-0,2.241 0.521,3.857 2.658,3.91" style="fill:#fff;fill-rule:nonzero;"/>
                <path id="x5" serif:id="x" d="M700.449,185.702c1.616,0 2.502,0.678 3.128,1.721l-0.053,-5.213l1.669,-0l0.052,13.605l-1.564,0c-0.104,-0.521 -0,-1.199 -0.157,-1.616c-0.521,1.199 -1.459,1.825 -3.075,1.825c-2.763,-0 -3.597,-2.033 -3.649,-5.109c-0,-3.44 1.199,-5.213 3.649,-5.213Zm0.469,1.251c-2.085,0 -2.398,1.773 -2.398,3.91c0,2.085 0.313,3.857 2.346,3.857c2.189,0 2.658,-1.668 2.658,-3.961c0,-2.19 -0.469,-3.858 -2.606,-3.806" style="fill:#fff;fill-rule:nonzero;"/>
                <path id="u3" serif:id="u" d="M707.695,183.774l-0,-1.564l1.668,-0l-0,1.564l-1.668,-0Zm-0,12.041l-0,-9.904l1.668,-0l-0,9.904l-1.668,0" style="fill:#fff;fill-rule:nonzero;"/>
                <path id="I" d="M715.827,183.617c-1.616,-0.469 -2.19,0.521 -1.981,2.294l1.981,-0l-0,1.199l-1.981,-0l-0,8.705l-1.616,0l-0,-8.705l-1.408,-0l0,-1.199l1.408,-0c-0.365,-2.711 0.886,-4.275 3.597,-3.545l-0,1.251" style="fill:#fff;fill-rule:nonzero;"/>
                <path id="u4" serif:id="u" d="M717.026,183.774l-0,-1.564l1.668,-0l-0,1.564l-1.668,-0Zm-0,12.041l-0,-9.904l1.668,-0l-0,9.904l-1.668,0" style="fill:#fff;fill-rule:nonzero;"/>
                <path id="B9" serif:id="B" d="M725.105,185.702c3.284,0 4.483,2.19 4.379,5.526l-7.037,-0c-0,2.085 0.73,3.492 2.763,3.545c1.355,0.052 2.241,-0.626 2.554,-1.512l1.46,0.417c-0.574,1.459 -1.929,2.346 -4.014,2.346c-3.024,-0 -4.588,-1.929 -4.535,-5.213c0.052,-3.18 1.355,-5.109 4.43,-5.109Zm2.711,4.223c0.313,-3.128 -3.962,-4.014 -5.056,-1.46c-0.157,0.365 -0.313,0.886 -0.313,1.46l5.369,-0" style="fill:#fff;fill-rule:nonzero;"/>
                <path id="x6" serif:id="x" d="M734.749,185.702c1.616,0 2.502,0.678 3.128,1.721l-0.052,-5.213l1.668,-0l0.052,13.605l-1.564,0c-0.104,-0.521 0,-1.199 -0.156,-1.616c-0.522,1.199 -1.46,1.825 -3.076,1.825c-2.763,-0 -3.597,-2.033 -3.649,-5.109c0,-3.44 1.199,-5.213 3.649,-5.213Zm0.469,1.251c-2.085,0 -2.398,1.773 -2.398,3.91c0,2.085 0.313,3.857 2.346,3.857c2.189,0 2.659,-1.668 2.659,-3.961c-0,-2.19 -0.47,-3.858 -2.607,-3.806" style="fill:#fff;fill-rule:nonzero;"/>
            </g>
            <path d="M333.817,256.348c-0,-2.896 2.383,-5.278 5.278,-5.278l226.952,-0c2.896,-0 5.278,2.382 5.278,5.278l0,179.45c0,2.896 -2.382,5.278 -5.278,5.278l-226.952,0c-2.895,0 -5.278,-2.382 -5.278,-5.278l-0,-179.45Z" style="fill-rule:nonzero;"/>
            <path d="M333.817,330.239l-0,38.001l237.508,0l0,-38.001m-237.508,73.891l-0,31.668c-0,2.896 2.383,5.278 5.278,5.278l226.952,0c2.896,0 5.278,-2.382 5.278,-5.278l0,-31.668" style="fill:#1a1a1a;fill-rule:nonzero;"/>
            <path d="M333.817,293.293l-0,-36.945c-0,-2.896 2.383,-5.278 5.278,-5.278l226.952,-0c2.896,-0 5.278,2.382 5.278,5.278l0,36.945" style="fill:#008aff;fill-rule:nonzero;"/>
            <path d="M333.817,256.348c-0,-2.896 2.383,-5.278 5.278,-5.278l226.952,-0c2.896,-0 5.278,2.382 5.278,5.278l0,179.45c0,2.896 -2.382,5.278 -5.278,5.278l-226.952,0c-2.895,0 -5.278,-2.382 -5.278,-5.278l-0,-179.45Zm-0,36.945l237.508,0" style="fill:none;fill-rule:nonzero;stroke:#1071e5;stroke-width:2.11px;"/>
            <g id="m">
                <path id="G1" serif:id="G" d="M368.337,268.397c-0.052,2.137 -1.199,3.336 -3.127,3.649l3.649,5.578l-1.981,-0l-3.389,-5.37l-4.014,0l0,5.37l-1.72,-0l0,-12.928c4.587,0.156 10.686,-1.095 10.582,3.701Zm-8.862,2.502c3.128,-0.104 7.142,0.678 7.142,-2.45c-0,-3.18 -4.17,-2.189 -7.142,-2.346l0,4.796" style="fill:#fff;fill-rule:nonzero;"/>
                <path id="v7" serif:id="v" d="M374.905,267.511c3.232,-0.052 4.431,1.928 4.431,5.16c0.052,3.284 -1.407,5.161 -4.483,5.161c-3.075,0 -4.326,-2.033 -4.379,-5.161c0,-3.44 1.46,-5.16 4.431,-5.16Zm-0.052,9.07c2.294,0.052 2.763,-1.616 2.763,-3.91c0,-2.241 -0.417,-3.909 -2.659,-3.909c-2.241,-0 -2.762,1.668 -2.762,3.909c-0,2.242 0.521,3.858 2.658,3.91" style="fill:#fff;fill-rule:nonzero;"/>
                <path id="D7" serif:id="D" d="M381.369,277.624l0,-13.606l1.668,0l0,13.606l-1.668,-0" style="fill:#fff;fill-rule:nonzero;"/>
                <path id="B10" serif:id="B" d="M389.449,267.511c3.284,-0 4.483,2.189 4.379,5.525l-7.037,0c-0,2.085 0.729,3.493 2.762,3.545c1.356,0.052 2.242,-0.626 2.555,-1.512l1.459,0.417c-0.573,1.46 -1.929,2.346 -4.014,2.346c-3.023,0 -4.587,-1.929 -4.535,-5.213c0.052,-3.18 1.356,-5.108 4.431,-5.108Zm2.711,4.222c0.312,-3.128 -3.962,-4.014 -5.057,-1.459c-0.156,0.364 -0.312,0.886 -0.312,1.459l5.369,0" style="fill:#fff;fill-rule:nonzero;"/>
                <path id="J" d="M407.173,277.624l0.104,-11.364c-1.199,3.961 -2.815,7.558 -4.17,11.364l-1.199,-0l-4.223,-11.364l0.052,11.364l-1.511,-0l-0,-12.928l2.293,-0l4.014,10.999c1.095,-3.91 2.659,-7.298 3.962,-10.999l2.241,-0l0,12.928l-1.563,-0" style="fill:#fff;fill-rule:nonzero;"/>
                <path id="s7" serif:id="s" d="M417.598,275.747c-0.782,1.095 -1.616,2.137 -3.545,2.085c-1.876,-0.052 -3.023,-1.095 -3.023,-2.971c-0.052,-3.336 3.284,-3.284 6.516,-3.284c0.156,-1.825 -0.469,-2.815 -2.137,-2.815c-1.251,0.052 -2.137,0.365 -2.19,1.616l-1.72,-0.157c0.261,-1.928 1.72,-2.71 3.962,-2.71c2.346,-0 3.753,1.042 3.753,3.336l0,4.274c-0.052,1.043 0.365,1.669 1.46,1.408l-0,1.042c-1.616,0.47 -3.18,-0.104 -3.076,-1.824Zm-4.848,-0.886c0,1.042 0.626,1.72 1.668,1.72c2.138,-0.156 3.284,-1.512 3.128,-3.857c-2.241,0.104 -4.796,-0.261 -4.796,2.137" style="fill:#fff;fill-rule:nonzero;"/>
                <path id="C2" serif:id="C" d="M426.668,267.511c2.868,0.052 3.649,2.137 3.649,5.108c0,2.972 -0.834,5.109 -3.649,5.213c-1.616,0 -2.554,-0.678 -3.127,-1.772l0.052,5.473l-1.668,0l-0.052,-13.814l1.616,0l0.104,1.564c0.521,-1.095 1.459,-1.772 3.075,-1.772Zm-0.417,9.07c2.086,-0 2.346,-1.772 2.346,-3.91c0,-2.137 -0.313,-3.805 -2.346,-3.857c-2.189,-0 -2.658,1.668 -2.658,3.962c-0,2.241 0.521,3.805 2.658,3.805" style="fill:#fff;fill-rule:nonzero;"/>
                <path id="C3" serif:id="C" d="M437.094,267.511c2.867,0.052 3.649,2.137 3.649,5.108c0,2.972 -0.834,5.109 -3.649,5.213c-1.616,0 -2.554,-0.678 -3.128,-1.772l0.053,5.473l-1.669,0l-0.052,-13.814l1.616,0l0.105,1.564c0.521,-1.095 1.459,-1.772 3.075,-1.772Zm-0.417,9.07c2.085,-0 2.346,-1.772 2.346,-3.91c-0,-2.137 -0.313,-3.805 -2.346,-3.857c-2.189,-0 -2.658,1.668 -2.658,3.962c-0,2.241 0.521,3.805 2.658,3.805" style="fill:#fff;fill-rule:nonzero;"/>
                <path id="u5" serif:id="u" d="M442.776,265.582l0,-1.564l1.668,0l0,1.564l-1.668,-0Zm0,12.042l0,-9.905l1.668,0l0,9.905l-1.668,-0" style="fill:#fff;fill-rule:nonzero;"/>
                <path id="y2" serif:id="y" d="M451.742,267.511c4.639,-0.209 2.763,6.047 3.128,10.113l-1.668,-0l-0,-6.308c-0,-1.616 -0.417,-2.554 -2.033,-2.502c-3.754,0.104 -2.294,5.317 -2.555,8.81l-1.668,-0l-0.052,-9.905l1.564,0c0.052,0.522 -0.052,1.251 0.104,1.668c0.574,-1.146 1.512,-1.824 3.18,-1.876" style="fill:#fff;fill-rule:nonzero;"/>
                <path id="K" d="M465.295,267.719c-0.521,6.516 2.138,15.274 -5.734,13.606c-1.199,-0.313 -1.981,-1.043 -2.293,-2.242l1.668,-0.261c0.782,2.451 5.213,1.669 4.639,-1.459l0,-1.564c-0.573,1.095 -1.512,1.877 -3.18,1.877c-2.815,-0 -3.544,-2.138 -3.544,-5.005c-0,-2.919 0.834,-5.056 3.701,-5.108c1.511,-0.052 2.502,0.834 3.075,1.824c0.052,-0.521 0,-1.199 0.104,-1.668l1.564,0Zm-4.326,8.758c1.876,-0 2.606,-1.668 2.606,-3.806c0,-2.189 -0.73,-3.909 -2.606,-3.909c-2.033,-0 -2.398,1.772 -2.398,3.909c-0,2.138 0.313,3.806 2.398,3.806" style="fill:#fff;fill-rule:nonzero;"/>
            </g>
            <g id="b2" serif:id="b">
                <path id="w2" serif:id="w" d="M352.634,317.208l-0,-12.927l1.772,-0l0,12.927l-1.772,0" style="fill:#fff;fill-rule:nonzero;"/>
                <path id="x7" serif:id="x" d="M360.557,307.095c1.616,0 2.502,0.678 3.128,1.721l-0.052,-5.213l1.668,-0l0.052,13.605l-1.564,0c-0.104,-0.521 0,-1.199 -0.156,-1.616c-0.522,1.199 -1.46,1.825 -3.076,1.825c-2.763,-0 -3.597,-2.033 -3.649,-5.109c0,-3.44 1.199,-5.213 3.649,-5.213Zm0.469,1.251c-2.085,0 -2.398,1.773 -2.398,3.91c0,2.085 0.313,3.858 2.346,3.858c2.19,-0 2.659,-1.669 2.659,-3.962c-0,-2.19 -0.469,-3.858 -2.607,-3.806" style="fill:#fff;fill-rule:nonzero;"/>
            </g>
            <g id="n">
                <path id="C4" serif:id="C" d="M356.908,344.041c2.867,0.052 3.649,2.137 3.649,5.109c0,2.971 -0.834,5.108 -3.649,5.212c-1.616,0 -2.554,-0.677 -3.128,-1.772l0.053,5.474l-1.668,-0l-0.053,-13.814l1.616,-0l0.105,1.564c0.521,-1.095 1.459,-1.773 3.075,-1.773Zm-0.417,9.07c2.085,0 2.346,-1.772 2.346,-3.909c-0,-2.137 -0.313,-3.806 -2.346,-3.858c-2.189,0 -2.658,1.668 -2.658,3.962c-0,2.242 0.521,3.805 2.658,3.805" style="fill:#fff;fill-rule:nonzero;"/>
                <path id="t6" serif:id="t" d="M367.282,345.657c-4.066,-0.834 -2.763,4.744 -2.972,8.497l-1.668,-0l-0.052,-9.904l1.564,-0c0.052,0.625 -0.052,1.511 0.104,2.033c0.313,-1.408 1.199,-2.555 3.024,-2.138l-0,1.512" style="fill:#fff;fill-rule:nonzero;"/>
                <path id="u6" serif:id="u" d="M368.793,342.112l0,-1.563l1.668,-0l0,1.563l-1.668,0Zm0,12.042l0,-9.904l1.668,-0l0,9.904l-1.668,-0" style="fill:#fff;fill-rule:nonzero;"/>
                <path id="y3" serif:id="y" d="M377.759,344.041c4.64,-0.208 2.763,6.047 3.128,10.113l-1.668,-0l-0,-6.308c-0,-1.615 -0.417,-2.554 -2.033,-2.502c-3.753,0.105 -2.294,5.317 -2.554,8.81l-1.668,-0l-0.053,-9.904l1.564,-0c0.052,0.521 -0.052,1.251 0.105,1.668c0.573,-1.147 1.511,-1.825 3.179,-1.877" style="fill:#fff;fill-rule:nonzero;"/>
                <path id="F2" serif:id="F" d="M387.09,345.344c-2.085,0 -2.502,1.721 -2.502,3.806c0,2.085 0.469,3.909 2.502,3.909c1.251,0 2.138,-0.729 2.242,-1.981l1.668,0.105c-0.313,1.928 -1.616,3.179 -3.858,3.179c-3.075,0 -3.961,-2.137 -4.274,-5.16c-0.521,-4.848 5.265,-6.829 7.663,-3.336c0.208,0.365 0.26,0.729 0.365,1.146l-1.668,0.157c-0.209,-1.095 -0.835,-1.825 -2.138,-1.825" style="fill:#fff;fill-rule:nonzero;"/>
                <path id="u7" serif:id="u" d="M392.72,342.112l0,-1.563l1.668,-0l0,1.563l-1.668,0Zm0,12.042l0,-9.904l1.668,-0l0,9.904l-1.668,-0" style="fill:#fff;fill-rule:nonzero;"/>
                <path id="C5" serif:id="C" d="M401.582,344.041c2.867,0.052 3.649,2.137 3.649,5.109c-0,2.971 -0.834,5.108 -3.649,5.212c-1.616,0 -2.554,-0.677 -3.128,-1.772l0.052,5.474l-1.668,-0l-0.052,-13.814l1.616,-0l0.104,1.564c0.522,-1.095 1.46,-1.773 3.076,-1.773Zm-0.417,9.07c2.085,0 2.346,-1.772 2.346,-3.909c-0,-2.137 -0.313,-3.806 -2.346,-3.858c-2.19,0 -2.659,1.668 -2.659,3.962c0,2.242 0.522,3.805 2.659,3.805" style="fill:#fff;fill-rule:nonzero;"/>
                <path id="s8" serif:id="s" d="M413.363,352.277c-0.782,1.095 -1.616,2.138 -3.545,2.085c-1.877,-0.052 -3.023,-1.094 -3.023,-2.971c-0.052,-3.336 3.284,-3.284 6.516,-3.284c0.156,-1.824 -0.469,-2.815 -2.138,-2.815c-1.251,0.052 -2.137,0.365 -2.189,1.616l-1.72,-0.156c0.26,-1.929 1.72,-2.711 3.962,-2.711c2.345,0 3.753,1.043 3.753,3.336l-0,4.275c-0.052,1.042 0.365,1.668 1.459,1.407l0,1.043c-1.616,0.469 -3.179,-0.104 -3.075,-1.825Zm-4.848,-0.886c-0,1.043 0.625,1.72 1.668,1.72c2.137,-0.156 3.284,-1.511 3.128,-3.857c-2.242,0.104 -4.796,-0.261 -4.796,2.137" style="fill:#fff;fill-rule:nonzero;"/>
                <path id="D8" serif:id="D" d="M417.689,354.154l0,-13.605l1.669,-0l-0,13.605l-1.669,-0" style="fill:#fff;fill-rule:nonzero;"/>
                <path id="w3" serif:id="w" d="M422.277,354.154l-0,-12.928l1.772,0l0,12.928l-1.772,-0" style="fill:#fff;fill-rule:nonzero;"/>
                <path id="x8" serif:id="x" d="M430.2,344.041c1.616,0 2.502,0.678 3.128,1.72l-0.052,-5.212l1.668,-0l0.052,13.605l-1.564,-0c-0.104,-0.521 0,-1.199 -0.156,-1.616c-0.522,1.199 -1.46,1.824 -3.076,1.824c-2.763,0 -3.597,-2.032 -3.649,-5.108c0,-3.44 1.199,-5.213 3.649,-5.213Zm0.469,1.251c-2.085,0 -2.398,1.773 -2.398,3.91c0,2.085 0.313,3.857 2.346,3.857c2.19,0 2.659,-1.668 2.659,-3.961c-0,-2.19 -0.469,-3.858 -2.607,-3.806" style="fill:#fff;fill-rule:nonzero;"/>
            </g>
            <g id="o">
                <path id="t7" serif:id="t" d="M356.856,382.603c-4.066,-0.834 -2.763,4.743 -2.971,8.497l-1.668,-0l-0.052,-9.905l1.563,0c0.052,0.626 -0.052,1.512 0.105,2.033c0.312,-1.407 1.199,-2.554 3.023,-2.137l0,1.512" style="fill:#fff;fill-rule:nonzero;"/>
                <path id="v8" serif:id="v" d="M362.329,380.987c3.232,-0.052 4.431,1.929 4.431,5.161c0.052,3.284 -1.407,5.16 -4.483,5.16c-3.075,0 -4.326,-2.033 -4.378,-5.16c-0,-3.441 1.459,-5.161 4.43,-5.161Zm-0.052,9.07c2.294,0.052 2.763,-1.616 2.763,-3.909c0,-2.242 -0.417,-3.91 -2.658,-3.91c-2.242,-0 -2.763,1.668 -2.763,3.91c-0,2.241 0.521,3.857 2.658,3.909" style="fill:#fff;fill-rule:nonzero;"/>
                <path id="D9" serif:id="D" d="M368.793,391.1l0,-13.606l1.668,0l0,13.606l-1.668,-0" style="fill:#fff;fill-rule:nonzero;"/>
                <path id="B11" serif:id="B" d="M376.873,380.987c3.284,-0 4.483,2.189 4.379,5.525l-7.037,0c-0,2.086 0.729,3.493 2.762,3.545c1.356,0.052 2.242,-0.625 2.555,-1.512l1.459,0.417c-0.573,1.46 -1.928,2.346 -4.014,2.346c-3.023,0 -4.587,-1.929 -4.535,-5.213c0.052,-3.179 1.356,-5.108 4.431,-5.108Zm2.711,4.222c0.313,-3.127 -3.962,-4.014 -5.057,-1.459c-0.156,0.365 -0.312,0.886 -0.312,1.459l5.369,0" style="fill:#fff;fill-rule:nonzero;"/>
                <path id="w4" serif:id="w" d="M383.806,391.1l0,-12.928l1.773,-0l-0,12.928l-1.773,-0" style="fill:#fff;fill-rule:nonzero;"/>
                <path id="x9" serif:id="x" d="M391.73,380.987c1.616,-0 2.502,0.678 3.127,1.72l-0.052,-5.213l1.668,0l0.052,13.606l-1.563,-0c-0.105,-0.522 -0,-1.199 -0.157,-1.616c-0.521,1.199 -1.459,1.824 -3.075,1.824c-2.763,0 -3.597,-2.033 -3.649,-5.108c-0,-3.441 1.199,-5.213 3.649,-5.213Zm0.469,1.251c-2.085,-0 -2.398,1.772 -2.398,3.91c-0,2.085 0.313,3.857 2.346,3.857c2.189,0 2.658,-1.668 2.658,-3.962c0,-2.189 -0.469,-3.857 -2.606,-3.805" style="fill:#fff;fill-rule:nonzero;"/>
            </g>
            <g id="l1" serif:id="l">
                <path id="z4" serif:id="z" d="M361.86,419.236c-3.492,0.156 -1.981,5.473 -2.293,8.809l-1.616,0l-0,-6.307c-0,-1.512 -0.261,-2.606 -1.825,-2.502c-3.44,0.208 -1.981,5.421 -2.293,8.809l-1.616,0l-0.052,-9.904l1.563,0c0.052,0.521 -0.052,1.251 0.105,1.668c0.521,-2.293 5.16,-2.606 5.577,0c0.574,-1.094 1.408,-1.824 3.024,-1.876c4.431,-0.105 2.45,6.203 2.867,10.112l-1.616,0l-0,-6.307c-0,-1.512 -0.261,-2.554 -1.825,-2.502" style="fill:#fff;fill-rule:nonzero;"/>
                <path id="v9" serif:id="v" d="M371.713,417.933c3.231,-0.053 4.43,1.928 4.43,5.16c0.053,3.284 -1.407,5.161 -4.483,5.161c-3.075,-0 -4.326,-2.033 -4.378,-5.161c-0,-3.44 1.459,-5.16 4.431,-5.16Zm-0.053,9.07c2.294,0.052 2.763,-1.616 2.763,-3.91c0,-2.241 -0.417,-3.909 -2.658,-3.909c-2.242,-0 -2.763,1.668 -2.763,3.909c-0,2.242 0.521,3.858 2.658,3.91" style="fill:#fff;fill-rule:nonzero;"/>
                <path id="x10" serif:id="x" d="M381.356,417.933c1.616,-0 2.502,0.677 3.128,1.72l-0.052,-5.213l1.668,0l0.052,13.605l-1.564,0c-0.104,-0.521 0,-1.199 -0.156,-1.616c-0.522,1.199 -1.46,1.825 -3.076,1.825c-2.763,-0 -3.597,-2.033 -3.649,-5.109c0,-3.44 1.199,-5.212 3.649,-5.212Zm0.469,1.251c-2.085,-0 -2.398,1.772 -2.398,3.909c0,2.085 0.313,3.858 2.346,3.858c2.19,-0 2.659,-1.668 2.659,-3.962c-0,-2.189 -0.469,-3.857 -2.607,-3.805" style="fill:#fff;fill-rule:nonzero;"/>
                <path id="u8" serif:id="u" d="M388.602,416.004l-0,-1.564l1.668,0l0,1.564l-1.668,-0Zm-0,12.041l-0,-9.904l1.668,0l0,9.904l-1.668,0" style="fill:#fff;fill-rule:nonzero;"/>
                <path id="I1" serif:id="I" d="M396.734,415.847c-1.616,-0.469 -2.189,0.522 -1.981,2.294l1.981,0l-0,1.199l-1.981,0l0,8.705l-1.616,0l0,-8.705l-1.407,0l-0,-1.199l1.407,0c-0.365,-2.711 0.886,-4.274 3.597,-3.545l-0,1.251" style="fill:#fff;fill-rule:nonzero;"/>
                <path id="u9" serif:id="u" d="M397.933,416.004l-0,-1.564l1.668,0l-0,1.564l-1.668,-0Zm-0,12.041l-0,-9.904l1.668,0l-0,9.904l-1.668,0" style="fill:#fff;fill-rule:nonzero;"/>
                <path id="B12" serif:id="B" d="M406.013,417.933c3.284,-0 4.483,2.189 4.378,5.525l-7.037,0c0,2.085 0.73,3.493 2.763,3.545c1.355,0.052 2.242,-0.626 2.554,-1.512l1.46,0.417c-0.574,1.46 -1.929,2.346 -4.014,2.346c-3.023,-0 -4.587,-1.929 -4.535,-5.213c0.052,-3.18 1.355,-5.108 4.431,-5.108Zm2.71,4.222c0.313,-3.128 -3.961,-4.014 -5.056,-1.46c-0.156,0.365 -0.313,0.887 -0.313,1.46l5.369,-0" style="fill:#fff;fill-rule:nonzero;"/>
                <path id="x11" serif:id="x" d="M415.656,417.933c1.616,-0 2.503,0.677 3.128,1.72l-0.052,-5.213l1.668,0l0.052,13.605l-1.564,0c-0.104,-0.521 0,-1.199 -0.156,-1.616c-0.521,1.199 -1.46,1.825 -3.076,1.825c-2.762,-0 -3.596,-2.033 -3.649,-5.109c0,-3.44 1.199,-5.212 3.649,-5.212Zm0.47,1.251c-2.086,-0 -2.398,1.772 -2.398,3.909c-0,2.085 0.312,3.858 2.345,3.858c2.19,-0 2.659,-1.668 2.659,-3.962c-0,-2.189 -0.469,-3.857 -2.606,-3.805" style="fill:#fff;fill-rule:nonzero;"/>
            </g>
            <path d="M275.654,79.536c-0,0.58 -0.475,1.055 -1.056,1.055c-0.58,0 -1.055,-0.475 -1.055,-1.055c-0,-0.581 0.475,-1.056 1.055,-1.056c0.581,0 1.056,0.475 1.056,1.056Zm5.858,-0c0,0.58 -0.475,1.055 -1.055,1.055c-0.581,0 -1.056,-0.475 -1.056,-1.055c0,-0.581 0.475,-1.056 1.056,-1.056c0.58,0 1.055,0.475 1.055,1.056Zm3.906,0.633c0,0.57 -0.464,1.056 -1.056,1.056c-0.58,-0 -1.055,-0.486 -1.055,-1.056c-0,-0.591 0.475,-1.055 1.055,-1.055c0.592,-0 1.056,0.464 1.056,1.055Zm3.536,1.795c0,0.57 -0.475,1.055 -1.055,1.055c-0.581,0 -1.056,-0.485 -1.056,-1.055c0,-0.591 0.475,-1.056 1.056,-1.056c0.58,0 1.055,0.465 1.055,1.056Zm2.808,2.797c0,0.581 -0.464,1.056 -1.055,1.056c-0.581,-0 -1.056,-0.475 -1.056,-1.056c0,-0.591 0.475,-1.056 1.056,-1.056c0.591,0 1.055,0.465 1.055,1.056Zm1.795,3.526c-0,0.57 -0.465,1.055 -1.056,1.055c-0.57,0 -1.055,-0.485 -1.055,-1.055c-0,-0.591 0.485,-1.056 1.055,-1.056c0.591,0 1.056,0.465 1.056,1.056Zm0.633,3.905c0,0.581 -0.475,1.056 -1.056,1.056c-0.58,-0 -1.055,-0.475 -1.055,-1.056c-0,-0.58 0.475,-1.055 1.055,-1.055c0.581,-0 1.056,0.475 1.056,1.055Zm0,4.202c0,0.58 -0.475,1.055 -1.056,1.055c-0.58,0 -1.055,-0.475 -1.055,-1.055c-0,-0.581 0.475,-1.056 1.055,-1.056c0.581,0 1.056,0.475 1.056,1.056Zm0,4.222c0,0.57 -0.475,1.056 -1.056,1.056c-0.58,-0 -1.055,-0.486 -1.055,-1.056c-0,-0.602 0.475,-1.056 1.055,-1.056c0.581,0 1.056,0.454 1.056,1.056Zm0,4.191c0,0.58 -0.475,1.055 -1.056,1.055c-0.58,0 -1.055,-0.475 -1.055,-1.055c-0,-0.581 0.475,-1.056 1.055,-1.056c0.581,0 1.056,0.475 1.056,1.056Zm0,4.201c0,0.581 -0.475,1.056 -1.056,1.056c-0.58,-0 -1.055,-0.475 -1.055,-1.056c-0,-0.581 0.475,-1.056 1.055,-1.056c0.581,0 1.056,0.475 1.056,1.056Zm0,4.222c0,0.57 -0.475,1.056 -1.056,1.056c-0.58,-0 -1.055,-0.486 -1.055,-1.056c-0,-0.601 0.475,-1.055 1.055,-1.055c0.581,-0 1.056,0.454 1.056,1.055Zm0,4.191c0,0.581 -0.475,1.056 -1.056,1.056c-0.58,-0 -1.055,-0.475 -1.055,-1.056c-0,-0.581 0.475,-1.056 1.055,-1.056c0.581,0 1.056,0.475 1.056,1.056Zm0,4.201c0,0.581 -0.475,1.056 -1.056,1.056c-0.58,-0 -1.055,-0.475 -1.055,-1.056c-0,-0.58 0.475,-1.055 1.055,-1.055c0.581,-0 1.056,0.475 1.056,1.055Zm0,4.223c0,0.57 -0.475,1.055 -1.056,1.055c-0.58,0 -1.055,-0.485 -1.055,-1.055c-0,-0.602 0.475,-1.056 1.055,-1.056c0.581,0 1.056,0.454 1.056,1.056Zm0,4.19c0,0.581 -0.475,1.056 -1.056,1.056c-0.58,-0 -1.055,-0.475 -1.055,-1.056c-0,-0.58 0.475,-1.055 1.055,-1.055c0.581,-0 1.056,0.475 1.056,1.055Zm0,4.202c0,0.58 -0.475,1.055 -1.056,1.055c-0.58,0 -1.055,-0.475 -1.055,-1.055c-0,-0.581 0.475,-1.056 1.055,-1.056c0.581,0 1.056,0.475 1.056,1.056Zm0,4.201c0,0.602 -0.475,1.055 -1.056,1.055c-0.58,0 -1.055,-0.453 -1.055,-1.055c-0,-0.57 0.475,-1.056 1.055,-1.056c0.581,0 1.056,0.486 1.056,1.056Zm0,4.222c0,0.581 -0.475,1.056 -1.056,1.056c-0.58,-0 -1.055,-0.475 -1.055,-1.056c-0,-0.591 0.475,-1.055 1.055,-1.055c0.581,-0 1.056,0.464 1.056,1.055Zm0,4.201c0,0.581 -0.475,1.056 -1.056,1.056c-0.58,0 -1.055,-0.475 -1.055,-1.056c-0,-0.58 0.475,-1.055 1.055,-1.055c0.581,-0 1.056,0.475 1.056,1.055Zm0,4.202c0,0.591 -0.475,1.055 -1.056,1.055c-0.58,0 -1.055,-0.464 -1.055,-1.055c-0,-0.581 0.475,-1.056 1.055,-1.056c0.581,0 1.056,0.475 1.056,1.056Zm0,4.222c0,0.57 -0.475,1.056 -1.056,1.056c-0.58,-0 -1.055,-0.486 -1.055,-1.056c-0,-0.591 0.475,-1.055 1.055,-1.055c0.581,-0 1.056,0.464 1.056,1.055Zm0,4.191c0,0.58 -0.475,1.055 -1.056,1.055c-0.58,0 -1.055,-0.475 -1.055,-1.055c-0,-0.581 0.475,-1.056 1.055,-1.056c0.581,0 1.056,0.475 1.056,1.056Zm0,4.201c0,0.602 -0.475,1.056 -1.056,1.056c-0.58,-0 -1.055,-0.454 -1.055,-1.056c-0,-0.57 0.475,-1.056 1.055,-1.056c0.581,0 1.056,0.486 1.056,1.056Zm0,4.222c0,0.581 -0.475,1.056 -1.056,1.056c-0.58,0 -1.055,-0.475 -1.055,-1.056c-0,-0.591 0.475,-1.055 1.055,-1.055c0.581,-0 1.056,0.464 1.056,1.055Zm0,4.202c0,0.58 -0.475,1.055 -1.056,1.055c-0.58,0 -1.055,-0.475 -1.055,-1.055c-0,-0.581 0.475,-1.056 1.055,-1.056c0.581,0 1.056,0.475 1.056,1.056Zm0,4.201c0,0.591 -0.475,1.056 -1.056,1.056c-0.58,-0 -1.055,-0.465 -1.055,-1.056c-0,-0.581 0.475,-1.056 1.055,-1.056c0.581,0 1.056,0.475 1.056,1.056Zm0,4.222c0,0.57 -0.475,1.056 -1.056,1.056c-0.58,-0 -1.055,-0.486 -1.055,-1.056c-0,-0.601 0.475,-1.055 1.055,-1.055c0.581,-0 1.056,0.454 1.056,1.055Zm0,4.191c0,0.581 -0.475,1.056 -1.056,1.056c-0.58,-0 -1.055,-0.475 -1.055,-1.056c-0,-0.581 0.475,-1.056 1.055,-1.056c0.581,0 1.056,0.475 1.056,1.056Zm0,4.201c0,0.591 -0.475,1.056 -1.056,1.056c-0.58,-0 -1.055,-0.465 -1.055,-1.056c-0,-0.57 0.475,-1.055 1.055,-1.055c0.581,-0 1.056,0.485 1.056,1.055Zm0,4.223c0,0.58 -0.475,1.055 -1.056,1.055c-0.58,0 -1.055,-0.475 -1.055,-1.055c-0,-0.591 0.475,-1.056 1.055,-1.056c0.581,0 1.056,0.465 1.056,1.056Zm0,4.201c0,0.58 -0.475,1.055 -1.056,1.055c-0.58,0 -1.055,-0.475 -1.055,-1.055c-0,-0.581 0.475,-1.056 1.055,-1.056c0.581,0 1.056,0.475 1.056,1.056Zm0,4.201c0,0.581 -0.475,1.056 -1.056,1.056c-0.58,-0 -1.055,-0.475 -1.055,-1.056c-0,-0.58 0.475,-1.055 1.055,-1.055c0.581,-0 1.056,0.475 1.056,1.055Zm0,4.201c0,0.592 -0.475,1.056 -1.056,1.056c-0.58,0 -1.055,-0.464 -1.055,-1.056c-0,-0.58 0.475,-1.055 1.055,-1.055c0.581,-0 1.056,0.475 1.056,1.055Zm0,4.223c0,0.57 -0.475,1.055 -1.056,1.055c-0.58,0 -1.055,-0.485 -1.055,-1.055c-0,-0.591 0.475,-1.056 1.055,-1.056c0.581,0 1.056,0.465 1.056,1.056Zm0,4.19c0,0.592 -0.475,1.056 -1.056,1.056c-0.58,0 -1.055,-0.464 -1.055,-1.056c-0,-0.57 0.475,-1.055 1.055,-1.055c0.581,-0 1.056,0.485 1.056,1.055Zm0,4.223c0,0.58 -0.475,1.055 -1.056,1.055c-0.58,0 -1.055,-0.475 -1.055,-1.055c-0,-0.591 0.475,-1.056 1.055,-1.056c0.581,0 1.056,0.465 1.056,1.056Zm0,4.201c0,0.581 -0.475,1.056 -1.056,1.056c-0.58,-0 -1.055,-0.475 -1.055,-1.056c-0,-0.58 0.475,-1.055 1.055,-1.055c0.581,-0 1.056,0.475 1.056,1.055Zm0,4.201c0,0.581 -0.475,1.056 -1.056,1.056c-0.58,-0 -1.055,-0.475 -1.055,-1.056c-0,-0.58 0.475,-1.055 1.055,-1.055c0.581,-0 1.056,0.475 1.056,1.055Zm0,4.202c0,0.591 -0.475,1.055 -1.056,1.055c-0.58,0 -1.055,-0.464 -1.055,-1.055c-0,-0.581 0.475,-1.056 1.055,-1.056c0.581,0 1.056,0.475 1.056,1.056Zm0,4.222c0,0.57 -0.475,1.056 -1.056,1.056c-0.58,-0 -1.055,-0.486 -1.055,-1.056c-0,-0.591 0.475,-1.056 1.055,-1.056c0.581,0 1.056,0.465 1.056,1.056Zm0,4.191c0,0.591 -0.475,1.055 -1.056,1.055c-0.58,0 -1.055,-0.464 -1.055,-1.055c-0,-0.57 0.475,-1.056 1.055,-1.056c0.581,0 1.056,0.486 1.056,1.056Zm0,4.222c0,0.57 -0.475,1.056 -1.056,1.056c-0.58,-0 -1.055,-0.486 -1.055,-1.056c-0,-0.591 0.475,-1.056 1.055,-1.056c0.581,0 1.056,0.465 1.056,1.056Zm0,4.201c0,0.581 -0.475,1.056 -1.056,1.056c-0.58,-0 -1.055,-0.475 -1.055,-1.056c-0,-0.591 0.475,-1.055 1.055,-1.055c0.581,-0 1.056,0.464 1.056,1.055Zm0,4.202c0,0.58 -0.475,1.055 -1.056,1.055c-0.58,0 -1.055,-0.475 -1.055,-1.055c-0,-0.581 0.475,-1.056 1.055,-1.056c0.581,-0 1.056,0.475 1.056,1.056Zm0,4.201c0,0.591 -0.475,1.055 -1.056,1.055c-0.58,0 -1.055,-0.464 -1.055,-1.055c-0,-0.581 0.475,-1.056 1.055,-1.056c0.581,0 1.056,0.475 1.056,1.056Zm0,4.222c0,0.57 -0.475,1.056 -1.056,1.056c-0.58,-0 -1.055,-0.486 -1.055,-1.056c-0,-0.601 0.475,-1.055 1.055,-1.055c0.581,-0 1.056,0.454 1.056,1.055Zm0,4.191c0,0.591 -0.475,1.055 -1.056,1.055c-0.58,0 -1.055,-0.464 -1.055,-1.055c-0,-0.57 0.475,-1.056 1.055,-1.056c0.581,0 1.056,0.486 1.056,1.056Zm0,4.222c0,0.57 -0.475,1.056 -1.056,1.056c-0.58,-0 -1.055,-0.486 -1.055,-1.056c-0,-0.591 0.475,-1.055 1.055,-1.055c0.581,-0 1.056,0.464 1.056,1.055Zm0,4.191c0,0.591 -0.475,1.056 -1.056,1.056c-0.58,-0 -1.055,-0.465 -1.055,-1.056c-0,-0.581 0.475,-1.056 1.055,-1.056c0.581,0 1.056,0.475 1.056,1.056Zm0,4.222c0,0.57 -0.475,1.056 -1.056,1.056c-0.58,-0 -1.055,-0.486 -1.055,-1.056c-0,-0.591 0.475,-1.055 1.055,-1.055c0.581,-0 1.056,0.464 1.056,1.055Zm0,4.191c0,0.581 -0.475,1.056 -1.056,1.056c-0.58,-0 -1.055,-0.475 -1.055,-1.056c-0,-0.581 0.475,-1.056 1.055,-1.056c0.581,0 1.056,0.475 1.056,1.056Zm0,4.222c0,0.57 -0.475,1.056 -1.056,1.056c-0.58,0 -1.055,-0.486 -1.055,-1.056c-0,-0.601 0.475,-1.055 1.055,-1.055c0.581,-0 1.056,0.454 1.056,1.055Zm0,4.191c0,0.591 -0.475,1.056 -1.056,1.056c-0.58,-0 -1.055,-0.465 -1.055,-1.056c-0,-0.58 0.475,-1.055 1.055,-1.055c0.581,-0 1.056,0.475 1.056,1.055Zm0,4.222c0,0.571 -0.475,1.056 -1.056,1.056c-0.58,0 -1.055,-0.485 -1.055,-1.056c-0,-0.591 0.475,-1.055 1.055,-1.055c0.581,-0 1.056,0.464 1.056,1.055Zm0,4.191c0,0.591 -0.475,1.056 -1.056,1.056c-0.58,-0 -1.055,-0.465 -1.055,-1.056c-0,-0.58 0.475,-1.055 1.055,-1.055c0.581,-0 1.056,0.475 1.056,1.055Zm0,4.223c0,0.57 -0.475,1.055 -1.056,1.055c-0.58,0 -1.055,-0.485 -1.055,-1.055c-0,-0.592 0.475,-1.056 1.055,-1.056c0.581,-0 1.056,0.464 1.056,1.056Zm0,4.19c0,0.581 -0.475,1.056 -1.056,1.056c-0.58,-0 -1.055,-0.475 -1.055,-1.056c-0,-0.58 0.475,-1.055 1.055,-1.055c0.581,-0 1.056,0.475 1.056,1.055Zm0,4.202c0,0.591 -0.475,1.055 -1.056,1.055c-0.58,0 -1.055,-0.464 -1.055,-1.055c-0,-0.581 0.475,-1.056 1.055,-1.056c0.581,-0 1.056,0.475 1.056,1.056Zm0,4.222c0,0.57 -0.475,1.055 -1.056,1.055c-0.58,0 -1.055,-0.485 -1.055,-1.055c-0,-0.602 0.475,-1.056 1.055,-1.056c0.581,0 1.056,0.454 1.056,1.056Zm0,4.191c0,0.57 -0.475,1.055 -1.056,1.055c-0.58,0 -1.055,-0.485 -1.055,-1.055c-0,-0.592 0.475,-1.056 1.055,-1.056c0.581,-0 1.056,0.464 1.056,1.056Zm0,4.19c0,0.591 -0.475,1.056 -1.056,1.056c-0.58,-0 -1.055,-0.465 -1.055,-1.056c-0,-0.58 0.475,-1.055 1.055,-1.055c0.581,-0 1.056,0.475 1.056,1.055Zm0,4.223c0,0.57 -0.475,1.055 -1.056,1.055c-0.58,0 -1.055,-0.485 -1.055,-1.055c-0,-0.602 0.475,-1.056 1.055,-1.056c0.581,0 1.056,0.454 1.056,1.056Zm0,4.19c0,0.581 -0.475,1.056 -1.056,1.056c-0.58,-0 -1.055,-0.475 -1.055,-1.056c-0,-0.58 0.475,-1.055 1.055,-1.055c0.581,-0 1.056,0.475 1.056,1.055Zm0,4.202c0,0.591 -0.475,1.055 -1.056,1.055c-0.58,0 -1.055,-0.464 -1.055,-1.055c-0,-0.581 0.475,-1.056 1.055,-1.056c0.581,0 1.056,0.475 1.056,1.056Zm0.612,3.905c0,0.591 -0.464,1.056 -1.055,1.056c-0.581,-0 -1.056,-0.465 -1.056,-1.056c0,-0.57 0.475,-1.055 1.056,-1.055c0.591,-0 1.055,0.485 1.055,1.055Zm1.795,3.547c-0,0.581 -0.465,1.056 -1.056,1.056c-0.57,-0 -1.055,-0.475 -1.055,-1.056c-0,-0.591 0.485,-1.056 1.055,-1.056c0.591,0 1.056,0.465 1.056,1.056Zm2.818,2.797c0,0.581 -0.475,1.056 -1.055,1.056c-0.591,0 -1.056,-0.475 -1.056,-1.056c0,-0.58 0.465,-1.055 1.056,-1.055c0.58,-0 1.055,0.475 1.055,1.055Zm3.526,1.795c-0,0.591 -0.486,1.056 -1.056,1.056c-0.591,-0 -1.055,-0.465 -1.055,-1.056c-0,-0.581 0.464,-1.056 1.055,-1.056c0.57,0 1.056,0.475 1.056,1.056Zm3.906,0.633c-0,0.581 -0.475,1.056 -1.056,1.056c-0.581,-0 -1.056,-0.475 -1.056,-1.056c0,-0.591 0.475,-1.055 1.056,-1.055c0.581,-0 1.056,0.464 1.056,1.055Zm3.546,0c0,0.581 -0.475,1.056 -1.055,1.056c-0.581,-0 -1.056,-0.475 -1.056,-1.056c0,-0.591 0.475,-1.055 1.056,-1.055c0.58,-0 1.055,0.464 1.055,1.055Zm3.547,0c0,0.581 -0.464,1.056 -1.055,1.056c-0.581,-0 -1.056,-0.475 -1.056,-1.056c0,-0.591 0.475,-1.055 1.056,-1.055c0.591,-0 1.055,0.464 1.055,1.055Z" style="fill:#008aff;fill-rule:nonzero;"/>
            <path d="M274.598,90.092l0,-21.112m-21.112,10.556l21.112,-0" style="fill:#fff;fill-rule:nonzero;stroke:#008aff;stroke-width:2.11px;"/>
            <path d="M332.286,359.289l-21.111,-10.556l21.111,-10.556" style="fill:#fff;fill-opacity:0;fill-rule:nonzero;stroke:#008aff;stroke-width:2.11px;"/>
            <path d="M332.286,348.733l-21.111,-0" style="fill:none;fill-rule:nonzero;stroke:#008aff;stroke-width:2.11px;"/>
            <path d="M631.79,79.219c-0,0.591 -0.465,1.056 -1.056,1.056c-0.581,-0 -1.056,-0.465 -1.056,-1.056c0,-0.57 0.475,-1.055 1.056,-1.055c0.591,-0 1.056,0.485 1.056,1.055Zm-5.954,0c0,0.591 -0.486,1.056 -1.056,1.056c-0.591,-0 -1.055,-0.465 -1.055,-1.056c-0,-0.57 0.464,-1.055 1.055,-1.055c0.57,-0 1.056,0.485 1.056,1.055Zm-3.927,0.633c0,0.581 -0.475,1.056 -1.055,1.056c-0.581,0 -1.056,-0.475 -1.056,-1.056c0,-0.58 0.475,-1.055 1.056,-1.055c0.58,-0 1.055,0.475 1.055,1.055Zm-3.525,1.795c-0,0.591 -0.475,1.056 -1.056,1.056c-0.591,-0 -1.056,-0.465 -1.056,-1.056c0,-0.581 0.465,-1.056 1.056,-1.056c0.581,0 1.056,0.475 1.056,1.056Zm-2.808,2.808c-0,0.58 -0.475,1.055 -1.056,1.055c-0.58,0 -1.056,-0.475 -1.056,-1.055c0,-0.581 0.476,-1.056 1.056,-1.056c0.581,0 1.056,0.475 1.056,1.056Zm-1.795,3.526c0,0.591 -0.475,1.055 -1.055,1.055c-0.592,0 -1.056,-0.464 -1.056,-1.055c-0,-0.581 0.464,-1.056 1.056,-1.056c0.58,-0 1.055,0.475 1.055,1.056Zm-0.633,3.905c-0,0.591 -0.465,1.056 -1.056,1.056c-0.57,-0 -1.055,-0.465 -1.055,-1.056c-0,-0.57 0.485,-1.055 1.055,-1.055c0.591,-0 1.056,0.485 1.056,1.055Zm-0,4.223c-0,0.57 -0.465,1.055 -1.056,1.055c-0.57,0 -1.055,-0.485 -1.055,-1.055c-0,-0.592 0.485,-1.056 1.055,-1.056c0.591,0 1.056,0.464 1.056,1.056Zm-0,4.19c-0,0.581 -0.465,1.056 -1.056,1.056c-0.57,-0 -1.055,-0.475 -1.055,-1.056c-0,-0.58 0.485,-1.055 1.055,-1.055c0.591,-0 1.056,0.475 1.056,1.055Zm-0,4.202c-0,0.58 -0.465,1.055 -1.056,1.055c-0.57,0 -1.055,-0.475 -1.055,-1.055c-0,-0.581 0.485,-1.056 1.055,-1.056c0.591,-0 1.056,0.475 1.056,1.056Zm-0,4.201c-0,0.58 -0.465,1.055 -1.056,1.055c-0.57,0 -1.055,-0.475 -1.055,-1.055c-0,-0.581 0.485,-1.056 1.055,-1.056c0.591,0 1.056,0.475 1.056,1.056Zm-0,4.201c-0,0.591 -0.465,1.056 -1.056,1.056c-0.57,-0 -1.055,-0.465 -1.055,-1.056c-0,-0.57 0.485,-1.056 1.055,-1.056c0.591,0 1.056,0.486 1.056,1.056Zm-0,4.222c-0,0.57 -0.465,1.056 -1.056,1.056c-0.57,0 -1.055,-0.486 -1.055,-1.056c-0,-0.591 0.485,-1.055 1.055,-1.055c0.591,-0 1.056,0.464 1.056,1.055Zm-0,4.191c-0,0.581 -0.465,1.056 -1.056,1.056c-0.57,-0 -1.055,-0.475 -1.055,-1.056c-0,-0.591 0.485,-1.055 1.055,-1.055c0.591,-0 1.056,0.464 1.056,1.055Zm-0,4.201c-0,0.581 -0.465,1.056 -1.056,1.056c-0.57,-0 -1.055,-0.475 -1.055,-1.056c-0,-0.591 0.485,-1.055 1.055,-1.055c0.591,-0 1.056,0.464 1.056,1.055Zm-0,4.202c-0,0.58 -0.465,1.055 -1.056,1.055c-0.57,0 -1.055,-0.475 -1.055,-1.055c-0,-0.591 0.485,-1.056 1.055,-1.056c0.591,0 1.056,0.465 1.056,1.056Zm-0,4.19c-0,0.591 -0.465,1.056 -1.056,1.056c-0.57,-0 -1.055,-0.465 -1.055,-1.056c-0,-0.58 0.485,-1.055 1.055,-1.055c0.591,-0 1.056,0.475 1.056,1.055Zm-0,4.223c-0,0.57 -0.465,1.055 -1.056,1.055c-0.57,0 -1.055,-0.485 -1.055,-1.055c-0,-0.602 0.485,-1.056 1.055,-1.056c0.591,0 1.056,0.454 1.056,1.056Zm-0,4.18c-0,0.591 -0.465,1.055 -1.056,1.055c-0.57,0 -1.055,-0.464 -1.055,-1.055c-0,-0.581 0.485,-1.056 1.055,-1.056c0.591,0 1.056,0.475 1.056,1.056Zm-0,4.201c-0,0.591 -0.465,1.056 -1.056,1.056c-0.57,-0 -1.055,-0.465 -1.055,-1.056c-0,-0.58 0.485,-1.055 1.055,-1.055c0.591,-0 1.056,0.475 1.056,1.055Zm-0,4.201c-0,0.592 -0.465,1.056 -1.056,1.056c-0.57,-0 -1.055,-0.464 -1.055,-1.056c-0,-0.58 0.485,-1.055 1.055,-1.055c0.591,-0 1.056,0.475 1.056,1.055Zm-0,4.202c-0,0.591 -0.465,1.055 -1.056,1.055c-0.57,0 -1.055,-0.464 -1.055,-1.055c-0,-0.581 0.485,-1.056 1.055,-1.056c0.591,0 1.056,0.475 1.056,1.056Zm-0,4.201c-0,0.58 -0.465,1.055 -1.056,1.055c-0.57,0 -1.055,-0.475 -1.055,-1.055c-0,-0.581 0.485,-1.056 1.055,-1.056c0.591,0 1.056,0.475 1.056,1.056Zm-0,4.201c-0,0.581 -0.465,1.056 -1.056,1.056c-0.57,-0 -1.055,-0.475 -1.055,-1.056c-0,-0.58 0.485,-1.055 1.055,-1.055c0.591,-0 1.056,0.475 1.056,1.055Zm-0,4.201c-0,0.581 -0.465,1.056 -1.056,1.056c-0.57,0 -1.055,-0.475 -1.055,-1.056c-0,-0.58 0.485,-1.055 1.055,-1.055c0.591,-0 1.056,0.475 1.056,1.055Zm-0,4.202c-0,0.58 -0.465,1.055 -1.056,1.055c-0.57,0 -1.055,-0.475 -1.055,-1.055c-0,-0.581 0.485,-1.056 1.055,-1.056c0.591,0 1.056,0.475 1.056,1.056Zm-0,4.201c-0,0.581 -0.465,1.056 -1.056,1.056c-0.57,-0 -1.055,-0.475 -1.055,-1.056c-0,-0.581 0.485,-1.056 1.055,-1.056c0.591,0 1.056,0.475 1.056,1.056Zm-0,4.201c-0,0.581 -0.465,1.056 -1.056,1.056c-0.57,-0 -1.055,-0.475 -1.055,-1.056c-0,-0.58 0.485,-1.055 1.055,-1.055c0.591,-0 1.056,0.475 1.056,1.055Zm-0,4.201c-0,0.581 -0.465,1.056 -1.056,1.056c-0.57,0 -1.055,-0.475 -1.055,-1.056c-0,-0.58 0.485,-1.055 1.055,-1.055c0.591,-0 1.056,0.475 1.056,1.055Zm-0,4.202c-0,0.58 -0.465,1.055 -1.056,1.055c-0.57,0 -1.055,-0.475 -1.055,-1.055c-0,-0.581 0.485,-1.056 1.055,-1.056c0.591,0 1.056,0.475 1.056,1.056Zm-0,4.201c-0,0.581 -0.465,1.056 -1.056,1.056c-0.57,-0 -1.055,-0.475 -1.055,-1.056c-0,-0.591 0.485,-1.056 1.055,-1.056c0.591,0 1.056,0.465 1.056,1.056Zm-0,4.201c-0,0.581 -0.465,1.056 -1.056,1.056c-0.57,-0 -1.055,-0.475 -1.055,-1.056c-0,-0.58 0.485,-1.055 1.055,-1.055c0.591,-0 1.056,0.475 1.056,1.055Zm-0,4.201c-0,0.581 -0.465,1.056 -1.056,1.056c-0.57,0 -1.055,-0.475 -1.055,-1.056c-0,-0.591 0.485,-1.055 1.055,-1.055c0.591,-0 1.056,0.464 1.056,1.055Zm-0,4.202c-0,0.58 -0.465,1.055 -1.056,1.055c-0.57,0 -1.055,-0.475 -1.055,-1.055c-0,-0.591 0.485,-1.056 1.055,-1.056c0.591,0 1.056,0.465 1.056,1.056Zm-0,4.19c-0,0.592 -0.465,1.056 -1.056,1.056c-0.57,0 -1.055,-0.464 -1.055,-1.056c-0,-0.58 0.485,-1.055 1.055,-1.055c0.591,-0 1.056,0.475 1.056,1.055Zm-0,4.223c-0,0.57 -0.465,1.055 -1.056,1.055c-0.57,0 -1.055,-0.485 -1.055,-1.055c-0,-0.602 0.485,-1.056 1.055,-1.056c0.591,0 1.056,0.454 1.056,1.056Zm-0,4.18c-0,0.581 -0.465,1.056 -1.056,1.056c-0.57,-0 -1.055,-0.475 -1.055,-1.056c-0,-0.591 0.485,-1.056 1.055,-1.056c0.591,0 1.056,0.465 1.056,1.056Zm-0,4.191c-0,0.591 -0.465,1.055 -1.056,1.055c-0.57,0 -1.055,-0.464 -1.055,-1.055c-0,-0.581 0.485,-1.056 1.055,-1.056c0.591,0 1.056,0.475 1.056,1.056Zm-0,4.201c-0,0.58 -0.465,1.055 -1.056,1.055c-0.57,0 -1.055,-0.475 -1.055,-1.055c-0,-0.581 0.485,-1.056 1.055,-1.056c0.591,0 1.056,0.475 1.056,1.056Zm-0,4.201c-0,0.591 -0.465,1.056 -1.056,1.056c-0.57,-0 -1.055,-0.465 -1.055,-1.056c-0,-0.58 0.485,-1.055 1.055,-1.055c0.591,-0 1.056,0.475 1.056,1.055Zm-0,4.201c-0,0.592 -0.465,1.056 -1.056,1.056c-0.57,0 -1.055,-0.464 -1.055,-1.056c-0,-0.57 0.485,-1.055 1.055,-1.055c0.591,-0 1.056,0.485 1.056,1.055Zm-0,4.223c-0,0.57 -0.465,1.055 -1.056,1.055c-0.57,0 -1.055,-0.485 -1.055,-1.055c-0,-0.591 0.485,-1.056 1.055,-1.056c0.591,0 1.056,0.465 1.056,1.056Zm-0,4.19c-0,0.581 -0.465,1.056 -1.056,1.056c-0.57,0 -1.055,-0.475 -1.055,-1.056c-0,-0.58 0.485,-1.055 1.055,-1.055c0.591,-0 1.056,0.475 1.056,1.055Zm-0,4.202c-0,0.58 -0.465,1.055 -1.056,1.055c-0.57,0 -1.055,-0.475 -1.055,-1.055c-0,-0.581 0.485,-1.056 1.055,-1.056c0.591,0 1.056,0.475 1.056,1.056Zm-0,4.201c-0,0.581 -0.465,1.056 -1.056,1.056c-0.57,-0 -1.055,-0.475 -1.055,-1.056c-0,-0.581 0.485,-1.056 1.055,-1.056c0.591,0 1.056,0.475 1.056,1.056Zm-0,4.201c-0,0.591 -0.465,1.056 -1.056,1.056c-0.57,-0 -1.055,-0.465 -1.055,-1.056c-0,-0.57 0.485,-1.055 1.055,-1.055c0.591,-0 1.056,0.485 1.056,1.055Zm-0,4.223c-0,0.57 -0.465,1.055 -1.056,1.055c-0.57,0 -1.055,-0.485 -1.055,-1.055c-0,-0.592 0.485,-1.056 1.055,-1.056c0.591,0 1.056,0.464 1.056,1.056Zm-0,4.19c-0,0.581 -0.465,1.056 -1.056,1.056c-0.57,-0 -1.055,-0.475 -1.055,-1.056c-0,-0.58 0.485,-1.055 1.055,-1.055c0.591,-0 1.056,0.475 1.056,1.055Zm-0,4.202c-0,0.58 -0.465,1.055 -1.056,1.055c-0.57,0 -1.055,-0.475 -1.055,-1.055c-0,-0.592 0.485,-1.056 1.055,-1.056c0.591,-0 1.056,0.464 1.056,1.056Zm-0,4.201c-0,0.58 -0.465,1.055 -1.056,1.055c-0.57,0 -1.055,-0.475 -1.055,-1.055c-0,-0.591 0.485,-1.056 1.055,-1.056c0.591,0 1.056,0.465 1.056,1.056Zm-0,4.201c-0,0.591 -0.465,1.056 -1.056,1.056c-0.57,-0 -1.055,-0.465 -1.055,-1.056c-0,-0.58 0.485,-1.055 1.055,-1.055c0.591,-0 1.056,0.475 1.056,1.055Zm-0,4.222c-0,0.57 -0.465,1.056 -1.056,1.056c-0.57,0 -1.055,-0.486 -1.055,-1.056c-0,-0.601 0.485,-1.055 1.055,-1.055c0.591,-0 1.056,0.454 1.056,1.055Zm-0,4.181c-0,0.591 -0.465,1.055 -1.056,1.055c-0.57,0 -1.055,-0.464 -1.055,-1.055c-0,-0.581 0.485,-1.056 1.055,-1.056c0.591,0 1.056,0.475 1.056,1.056Zm-0,4.222c-0,0.57 -0.465,1.056 -1.056,1.056c-0.57,-0 -1.055,-0.486 -1.055,-1.056c-0,-0.602 0.485,-1.056 1.055,-1.056c0.591,0 1.056,0.454 1.056,1.056Zm-0,4.18c-0,0.591 -0.465,1.056 -1.056,1.056c-0.57,-0 -1.055,-0.465 -1.055,-1.056c-0,-0.58 0.485,-1.055 1.055,-1.055c0.591,-0 1.056,0.475 1.056,1.055Zm-0,4.201c-0,0.592 -0.465,1.056 -1.056,1.056c-0.57,-0 -1.055,-0.464 -1.055,-1.056c-0,-0.58 0.485,-1.055 1.055,-1.055c0.591,-0 1.056,0.475 1.056,1.055Zm-0,4.202c-0,0.591 -0.465,1.055 -1.056,1.055c-0.57,0 -1.055,-0.464 -1.055,-1.055c-0,-0.581 0.485,-1.056 1.055,-1.056c0.591,0 1.056,0.475 1.056,1.056Zm-0,4.201c-0,0.58 -0.465,1.055 -1.056,1.055c-0.57,0 -1.055,-0.475 -1.055,-1.055c-0,-0.581 0.485,-1.056 1.055,-1.056c0.591,0 1.056,0.475 1.056,1.056Zm-0,4.201c-0,0.581 -0.465,1.056 -1.056,1.056c-0.57,-0 -1.055,-0.475 -1.055,-1.056c-0,-0.58 0.485,-1.055 1.055,-1.055c0.591,-0 1.056,0.475 1.056,1.055Zm-0,4.201c-0,0.581 -0.465,1.056 -1.056,1.056c-0.57,0 -1.055,-0.475 -1.055,-1.056c-0,-0.58 0.485,-1.055 1.055,-1.055c0.591,-0 1.056,0.475 1.056,1.055Zm-0,4.202c-0,0.58 -0.465,1.055 -1.056,1.055c-0.57,0 -1.055,-0.475 -1.055,-1.055c-0,-0.581 0.485,-1.056 1.055,-1.056c0.591,0 1.056,0.475 1.056,1.056Zm-0,4.201c-0,0.581 -0.465,1.056 -1.056,1.056c-0.57,-0 -1.055,-0.475 -1.055,-1.056c-0,-0.581 0.485,-1.056 1.055,-1.056c0.591,0 1.056,0.475 1.056,1.056Zm-0,4.201c-0,0.581 -0.465,1.056 -1.056,1.056c-0.57,-0 -1.055,-0.475 -1.055,-1.056c-0,-0.58 0.485,-1.055 1.055,-1.055c0.591,-0 1.056,0.475 1.056,1.055Zm-0,4.201c-0,0.581 -0.465,1.056 -1.056,1.056c-0.57,0 -1.055,-0.475 -1.055,-1.056c-0,-0.58 0.485,-1.055 1.055,-1.055c0.591,-0 1.056,0.475 1.056,1.055Zm-0,4.202c-0,0.58 -0.465,1.055 -1.056,1.055c-0.57,0 -1.055,-0.475 -1.055,-1.055c-0,-0.581 0.485,-1.056 1.055,-1.056c0.591,0 1.056,0.475 1.056,1.056Zm-0,4.201c-0,0.581 -0.465,1.056 -1.056,1.056c-0.57,-0 -1.055,-0.475 -1.055,-1.056c-0,-0.581 0.485,-1.056 1.055,-1.056c0.591,0 1.056,0.475 1.056,1.056Zm-0,4.201c-0,0.581 -0.465,1.056 -1.056,1.056c-0.57,-0 -1.055,-0.475 -1.055,-1.056c-0,-0.591 0.485,-1.055 1.055,-1.055c0.591,-0 1.056,0.464 1.056,1.055Zm-0,4.201c-0,0.581 -0.465,1.056 -1.056,1.056c-0.57,0 -1.055,-0.475 -1.055,-1.056c-0,-0.591 0.485,-1.055 1.055,-1.055c0.591,-0 1.056,0.464 1.056,1.055Zm-0,4.202c-0,0.58 -0.465,1.055 -1.056,1.055c-0.57,0 -1.055,-0.475 -1.055,-1.055c-0,-0.591 0.485,-1.056 1.055,-1.056c0.591,0 1.056,0.465 1.056,1.056Zm-0,4.201c-0,0.581 -0.465,1.056 -1.056,1.056c-0.57,-0 -1.055,-0.475 -1.055,-1.056c-0,-0.591 0.485,-1.056 1.055,-1.056c0.591,0 1.056,0.465 1.056,1.056Zm-0,4.191c-0,0.58 -0.465,1.055 -1.056,1.055c-0.57,0 -1.055,-0.475 -1.055,-1.055c-0,-0.591 0.485,-1.056 1.055,-1.056c0.591,0 1.056,0.465 1.056,1.056Zm-0,4.19c-0,0.592 -0.465,1.056 -1.056,1.056c-0.57,-0 -1.055,-0.464 -1.055,-1.056c-0,-0.58 0.485,-1.055 1.055,-1.055c0.591,-0 1.056,0.475 1.056,1.055Zm-0,4.202c-0,0.591 -0.465,1.055 -1.056,1.055c-0.57,0 -1.055,-0.464 -1.055,-1.055c-0,-0.581 0.485,-1.056 1.055,-1.056c0.591,0 1.056,0.475 1.056,1.056Zm-0,4.201c-0,0.591 -0.465,1.055 -1.056,1.055c-0.57,0 -1.055,-0.464 -1.055,-1.055c-0,-0.581 0.485,-1.056 1.055,-1.056c0.591,0 1.056,0.475 1.056,1.056Zm-0.612,3.906c-0,0.591 -0.465,1.055 -1.056,1.055c-0.581,0 -1.056,-0.464 -1.056,-1.055c0,-0.57 0.475,-1.056 1.056,-1.056c0.591,0 1.056,0.486 1.056,1.056Zm-1.795,3.546c0,0.57 -0.475,1.056 -1.056,1.056c-0.58,-0 -1.055,-0.486 -1.055,-1.056c-0,-0.601 0.475,-1.055 1.055,-1.055c0.581,-0 1.056,0.454 1.056,1.055Zm-2.808,2.787c0,0.581 -0.464,1.056 -1.055,1.056c-0.581,-0 -1.056,-0.475 -1.056,-1.056c0,-0.58 0.475,-1.055 1.056,-1.055c0.591,-0 1.055,0.475 1.055,1.055Zm-3.525,1.795c-0,0.591 -0.476,1.055 -1.056,1.055c-0.581,0 -1.056,-0.464 -1.056,-1.055c0,-0.581 0.475,-1.056 1.056,-1.056c0.58,0 1.056,0.475 1.056,1.056Zm-3.906,0.633c-0,0.581 -0.486,1.056 -1.056,1.056c-0.591,-0 -1.055,-0.475 -1.055,-1.056c-0,-0.591 0.464,-1.056 1.055,-1.056c0.57,0 1.056,0.465 1.056,1.056Zm-3.61,0c-0,0.581 -0.475,1.056 -1.056,1.056c-0.58,-0 -1.055,-0.475 -1.055,-1.056c-0,-0.591 0.475,-1.056 1.055,-1.056c0.581,0 1.056,0.465 1.056,1.056Zm-3.589,0c-0,0.581 -0.486,1.056 -1.056,1.056c-0.591,-0 -1.056,-0.475 -1.056,-1.056c0,-0.591 0.465,-1.056 1.056,-1.056c0.57,0 1.056,0.465 1.056,1.056Z" style="fill:#008aff;fill-rule:nonzero;"/>
            <path d="M630.734,68.663l-0,21.112m21.112,-10.556l-21.112,0" style="fill:#fff;fill-rule:nonzero;stroke:#008aff;stroke-width:2.11px;"/>
            <path d="M572.856,375.45l21.112,10.556l-21.112,10.556" style="fill:#fff;fill-opacity:0;fill-rule:nonzero;stroke:#008aff;stroke-width:2.11px;"/>
            <path d="M572.856,386.006l21.112,-0" style="fill:none;fill-rule:nonzero;stroke:#008aff;stroke-width:2.11px;"/>
        </g>
    </g>
</svg>
