<?xml version="1.0" encoding="UTF-8" standalone="no"?>
<!DOCTYPE svg PUBLIC "-//W3C//DTD SVG 1.1//EN" "http://www.w3.org/Graphics/SVG/1.1/DTD/svg11.dtd">
<svg width="100%" height="100%" viewBox="0 0 256 193" version="1.1" xmlns="http://www.w3.org/2000/svg" xmlns:xlink="http://www.w3.org/1999/xlink" xml:space="preserve" xmlns:serif="http://www.serif.com/" style="fill-rule:evenodd;clip-rule:evenodd;stroke-linejoin:round;stroke-miterlimit:2;">
    <g>
        <path d="M192.44,144.645l31.78,-0l0,-76.306l-35.805,-35.804l-22.472,22.472l26.497,26.497l0,63.141Zm31.864,15.931l-110.852,0l-26.498,-26.497l11.237,-11.236l21.885,21.885l45.028,0l-44.357,-44.441l11.32,-11.32l44.358,44.358l-0,-45.029l-21.802,-21.801l11.152,-11.153l-55.09,-55.342l-110.685,-0l31.696,31.696l0,0.084l65.74,-0l23.227,23.227l-33.96,33.96l-23.227,-23.227l-0,-18.028l-31.78,-0l0,31.193l55.007,55.007l-22.389,22.388l35.805,35.805l155.881,-0l-31.696,-31.529Z" style="fill:#b9b9b9;fill-rule:nonzero;"/>
    </g>
</svg>
