<?xml version="1.0" encoding="UTF-8" standalone="no"?>
<!DOCTYPE svg PUBLIC "-//W3C//DTD SVG 1.1//EN" "http://www.w3.org/Graphics/SVG/1.1/DTD/svg11.dtd">
<svg width="100%" height="100%" viewBox="0 0 512 149" version="1.1" xmlns="http://www.w3.org/2000/svg" xmlns:xlink="http://www.w3.org/1999/xlink" xml:space="preserve" xmlns:serif="http://www.serif.com/" style="fill-rule:evenodd;clip-rule:evenodd;stroke-linejoin:round;stroke-miterlimit:2;">
    <g>
        <path d="M3.332,115.629l0,-56.981l71.144,-0l-0,-3.333l-71.144,0l0,-51.983l75.642,0l0,-3.332l-78.974,-0l0,118.961l79.641,0l-0,-3.332l-76.309,0Zm140.455,-82.307l-29.491,38.821l-28.824,-38.821l-4.332,0l31.157,41.32l-34.156,44.319l3.999,0l32.156,-41.819l32.323,41.819l4.165,0l-34.322,-44.319l31.323,-41.32l-3.998,0Zm16.994,114.963l-0,-53.316l0.333,0c2,7.775 5.943,14.023 11.83,18.744c5.887,4.721 13.384,7.081 22.492,7.081c5.887,0 11.108,-1.194 15.662,-3.582c4.554,-2.388 8.358,-5.637 11.413,-9.747c3.054,-4.11 5.387,-8.886 6.998,-14.329c1.61,-5.442 2.416,-11.163 2.416,-17.161c-0,-6.442 -0.834,-12.385 -2.5,-17.827c-1.666,-5.443 -4.082,-10.164 -7.247,-14.162c-3.166,-3.999 -6.998,-7.109 -11.497,-9.331c-4.498,-2.221 -9.58,-3.332 -15.245,-3.332c-4.332,0 -8.358,0.639 -12.079,1.916c-3.721,1.278 -7.025,3.082 -9.913,5.415c-2.888,2.333 -5.388,5.082 -7.498,8.247c-2.11,3.166 -3.721,6.637 -4.832,10.414l-0.333,-0l-0,-23.993l-3.332,0l-0,114.963l3.332,0Zm34.655,-30.657c-10.441,0 -18.827,-3.582 -25.158,-10.746c-6.331,-7.164 -9.497,-17.467 -9.497,-30.907c-0,-5.554 0.778,-10.83 2.333,-15.828c1.555,-4.998 3.804,-9.386 6.747,-13.162c2.944,-3.777 6.582,-6.776 10.913,-8.997c4.332,-2.222 9.22,-3.333 14.662,-3.333c5.554,0 10.414,1.111 14.579,3.333c4.165,2.221 7.609,5.248 10.33,9.08c2.721,3.832 4.776,8.22 6.165,13.162c1.388,4.943 2.082,10.191 2.082,15.745c0,4.999 -0.638,9.969 -1.916,14.912c-1.277,4.943 -3.249,9.386 -5.915,13.329c-2.665,3.943 -6.081,7.164 -10.246,9.664c-4.166,2.499 -9.192,3.748 -15.079,3.748Zm54.816,1.333l-0,-48.484c-0,-4.665 0.666,-9.219 1.999,-13.662c1.333,-4.443 3.388,-8.359 6.165,-11.746c2.777,-3.388 6.303,-6.054 10.58,-7.998c4.276,-1.944 9.358,-2.749 15.245,-2.416l-0,-3.332c-5.11,-0.111 -9.58,0.444 -13.412,1.666c-3.833,1.222 -7.137,2.888 -9.914,4.999c-2.777,2.11 -4.998,4.581 -6.664,7.414c-1.667,2.832 -2.888,5.859 -3.666,9.08l-0.333,0l-0,-21.16l-3.332,0l-0,85.639l3.332,0Zm38.154,-42.153l71.643,0c0.223,-5.887 -0.361,-11.551 -1.749,-16.994c-1.388,-5.443 -3.61,-10.275 -6.664,-14.495c-3.055,-4.221 -6.998,-7.609 -11.83,-10.164c-4.832,-2.555 -10.58,-3.832 -17.244,-3.832c-4.777,0 -9.442,1 -13.996,2.999c-4.554,2 -8.553,4.915 -11.996,8.747c-3.443,3.832 -6.22,8.525 -8.33,14.079c-2.111,5.554 -3.166,11.885 -3.166,18.994c-0,6.331 0.722,12.246 2.166,17.744c1.444,5.498 3.665,10.275 6.664,14.329c2.999,4.054 6.859,7.192 11.58,9.413c4.721,2.222 10.413,3.277 17.078,3.166c9.774,0 17.994,-2.749 24.658,-8.247c6.665,-5.499 10.608,-13.246 11.83,-23.243l-3.332,0c-1.444,9.442 -5.138,16.523 -11.08,21.243c-5.943,4.721 -13.412,7.081 -22.41,7.081c-6.109,0 -11.274,-1.055 -15.495,-3.165c-4.22,-2.111 -7.664,-4.999 -10.329,-8.664c-2.666,-3.666 -4.638,-7.97 -5.915,-12.913c-1.278,-4.942 -1.972,-10.302 -2.083,-16.078Zm68.311,-3.332l-68.311,0c0.333,-5.998 1.444,-11.385 3.332,-16.161c1.889,-4.777 4.36,-8.859 7.415,-12.246c3.054,-3.388 6.609,-5.971 10.663,-7.748c4.054,-1.777 8.414,-2.666 13.079,-2.666c5.554,0 10.441,1.028 14.662,3.083c4.221,2.055 7.747,4.859 10.58,8.414c2.832,3.554 4.97,7.692 6.414,12.412c1.444,4.721 2.166,9.692 2.166,14.912Zm72.477,-14.828l3.332,-0c-0,-9.553 -2.777,-16.495 -8.331,-20.827c-5.554,-4.332 -13.107,-6.498 -22.659,-6.498c-5.332,0 -9.83,0.667 -13.496,1.999c-3.665,1.333 -6.664,3.055 -8.997,5.165c-2.332,2.111 -3.998,4.443 -4.998,6.998c-1,2.555 -1.5,4.999 -1.5,7.331c0,4.665 0.833,8.386 2.5,11.163c1.666,2.777 4.276,4.943 7.83,6.498c2.444,1.111 5.221,2.11 8.331,2.999c3.11,0.889 6.72,1.833 10.83,2.832c3.665,0.889 7.275,1.778 10.83,2.666c3.554,0.889 6.692,2.083 9.413,3.582c2.722,1.5 4.943,3.416 6.665,5.749c1.721,2.332 2.582,5.387 2.582,9.163c0,3.666 -0.861,6.776 -2.582,9.331c-1.722,2.554 -3.916,4.637 -6.581,6.248c-2.666,1.61 -5.638,2.776 -8.914,3.498c-3.277,0.722 -6.47,1.083 -9.58,1.083c-10.108,0 -17.856,-2.249 -23.243,-6.747c-5.387,-4.499 -8.081,-11.58 -8.081,-21.244l-3.332,0c0,10.775 2.916,18.661 8.747,23.659c5.832,4.999 14.468,7.498 25.909,7.498c3.665,0 7.358,-0.417 11.079,-1.25c3.721,-0.833 7.054,-2.193 9.997,-4.082c2.944,-1.888 5.332,-4.331 7.164,-7.331c1.833,-2.999 2.749,-6.664 2.749,-10.996c0,-4.11 -0.805,-7.442 -2.415,-9.997c-1.611,-2.554 -3.721,-4.665 -6.332,-6.331c-2.61,-1.666 -5.553,-2.971 -8.83,-3.915c-3.277,-0.945 -6.581,-1.861 -9.914,-2.749c-4.665,-1.222 -8.747,-2.278 -12.246,-3.166c-3.498,-0.889 -6.747,-1.944 -9.746,-3.166c-2.888,-1.222 -5.193,-2.971 -6.915,-5.248c-1.722,-2.277 -2.582,-5.526 -2.582,-9.747c-0,-0.777 0.222,-2.166 0.666,-4.165c0.444,-2 1.5,-4.027 3.166,-6.082c1.666,-2.054 4.221,-3.887 7.664,-5.498c3.443,-1.61 8.164,-2.416 14.162,-2.416c4.11,0 7.858,0.445 11.246,1.333c3.388,0.889 6.304,2.305 8.747,4.249c2.444,1.944 4.332,4.415 5.665,7.414c1.333,2.999 2,6.665 2,10.997Zm77.141,-0l3.332,-0c0,-9.553 -2.776,-16.495 -8.33,-20.827c-5.554,-4.332 -13.107,-6.498 -22.659,-6.498c-5.332,0 -9.831,0.667 -13.496,1.999c-3.666,1.333 -6.665,3.055 -8.997,5.165c-2.333,2.111 -3.999,4.443 -4.999,6.998c-0.999,2.555 -1.499,4.999 -1.499,7.331c-0,4.665 0.833,8.386 2.499,11.163c1.666,2.777 4.277,4.943 7.831,6.498c2.444,1.111 5.22,2.11 8.331,2.999c3.11,0.889 6.72,1.833 10.829,2.832c3.666,0.889 7.276,1.778 10.83,2.666c3.555,0.889 6.692,2.083 9.414,3.582c2.721,1.5 4.943,3.416 6.664,5.749c1.722,2.332 2.583,5.387 2.583,9.163c-0,3.666 -0.861,6.776 -2.583,9.331c-1.721,2.554 -3.915,4.637 -6.581,6.248c-2.666,1.61 -5.637,2.776 -8.914,3.498c-3.276,0.722 -6.47,1.083 -9.58,1.083c-10.108,0 -17.855,-2.249 -23.242,-6.747c-5.388,-4.499 -8.081,-11.58 -8.081,-21.244l-3.332,0c-0,10.775 2.915,18.661 8.747,23.659c5.831,4.999 14.467,7.498 25.908,7.498c3.666,0 7.359,-0.417 11.08,-1.25c3.721,-0.833 7.053,-2.193 9.997,-4.082c2.943,-1.888 5.331,-4.331 7.164,-7.331c1.833,-2.999 2.749,-6.664 2.749,-10.996c-0,-4.11 -0.805,-7.442 -2.416,-9.997c-1.61,-2.554 -3.721,-4.665 -6.331,-6.331c-2.61,-1.666 -5.554,-2.971 -8.831,-3.915c-3.276,-0.945 -6.581,-1.861 -9.913,-2.749c-4.665,-1.222 -8.747,-2.278 -12.246,-3.166c-3.499,-0.889 -6.748,-1.944 -9.747,-3.166c-2.888,-1.222 -5.193,-2.971 -6.914,-5.248c-1.722,-2.277 -2.583,-5.526 -2.583,-9.747c0,-0.777 0.222,-2.166 0.667,-4.165c0.444,-2 1.499,-4.027 3.165,-6.082c1.666,-2.054 4.221,-3.887 7.664,-5.498c3.444,-1.61 8.164,-2.416 14.163,-2.416c4.109,0 7.858,0.445 11.246,1.333c3.388,0.889 6.303,2.305 8.747,4.249c2.444,1.944 4.332,4.415 5.665,7.414c1.333,2.999 1.999,6.665 1.999,10.997Z" style="fill:#84ba64;fill-rule:nonzero;"/>
    </g>
</svg>
