<?xml version="1.0" encoding="UTF-8" standalone="no"?>
<!DOCTYPE svg PUBLIC "-//W3C//DTD SVG 1.1//EN" "http://www.w3.org/Graphics/SVG/1.1/DTD/svg11.dtd">
<svg width="100%" height="100%" viewBox="0 0 903 463" version="1.1" xmlns="http://www.w3.org/2000/svg" xmlns:xlink="http://www.w3.org/1999/xlink" xml:space="preserve" xmlns:serif="http://www.serif.com/" style="fill-rule:evenodd;clip-rule:evenodd;">
    <rect id="Artboard1" x="0" y="0" width="902.03" height="462.161" style="fill:none;"/>
    <g>
        <g>
            <path d="M42.542,26.12c-0,-3.661 3.012,-6.673 6.672,-6.673l286.92,0c3.66,0 6.672,3.012 6.672,6.673l0,366.99c0,3.66 -3.012,6.672 -6.672,6.672l-286.92,0c-3.66,0 -6.672,-3.012 -6.672,-6.672l-0,-366.99Z" style="fill-rule:nonzero;"/>
            <path d="M42.542,119.535l-0,48.043l300.264,-0l0,-48.043m-300.264,93.416l-0,48.042l300.264,0l0,-48.042m-300.264,93.416l-0,48.042l300.264,0l0,-48.042" style="fill:#1a1a1a;fill-rule:nonzero;"/>
            <path d="M42.542,72.827l-0,-46.707c-0,-3.661 3.012,-6.673 6.672,-6.673l286.92,0c3.66,0 6.672,3.012 6.672,6.673l0,46.707" style="fill:#008aff;fill-rule:nonzero;"/>
            <path d="M42.542,26.12c-0,-3.661 3.012,-6.673 6.672,-6.673l286.92,0c3.66,0 6.672,3.012 6.672,6.673l0,366.99c0,3.66 -3.012,6.672 -6.672,6.672l-286.92,0c-3.66,0 -6.672,-3.012 -6.672,-6.672l-0,-366.99Zm-0,46.707l300.264,0" style="fill:none;fill-rule:nonzero;stroke:#1071e5;stroke-width:2.67px;"/>
            <g id="a">
                <path id="m" d="M86.122,46.889c-0.065,4.283 -2.636,6.392 -6.853,6.392c-4.02,0 -6.591,-2.109 -6.591,-6.195l0,-10.412l2.175,-0c0.527,5.865 -2.175,14.762 4.416,14.762c6.722,-0 4.217,-8.765 4.679,-14.762l2.174,-0l0,10.215" style="fill:#fff;fill-rule:nonzero;"/>
                <path id="n" d="M96.799,43.593c-0.198,-2.24 -5.668,-2.504 -5.734,0c0.989,3.493 7.579,0.791 7.842,5.932c0.264,5.14 -9.885,4.876 -10.346,0.527l1.845,-0.33c0.264,2.373 6.393,2.966 6.458,0c-0.659,-3.69 -7.446,-0.988 -7.776,-5.931c-0.264,-3.756 5.404,-4.152 8.04,-2.768c0.791,0.462 1.384,1.252 1.582,2.307" style="fill:#fff;fill-rule:nonzero;"/>
                <path id="o" d="M105.3,53.281c-5.865,0.264 -3.559,-7.645 -4.02,-12.785l2.109,0l-0,7.908c-0,2.043 0.461,3.295 2.57,3.229c4.745,-0.131 2.965,-6.656 3.295,-11.137l2.043,0l0.066,12.521l-1.977,0c-0.066,-0.659 0.066,-1.647 -0.132,-2.174c-0.725,1.45 -1.845,2.372 -3.954,2.438" style="fill:#fff;fill-rule:nonzero;"/>
                <path id="p" d="M122.237,50.645c-0.989,1.384 -2.043,2.702 -4.482,2.636c-2.372,-0.066 -3.822,-1.384 -3.822,-3.756c-0.066,-4.218 4.152,-4.152 8.238,-4.152c0.197,-2.307 -0.593,-3.559 -2.702,-3.559c-1.582,0.066 -2.702,0.461 -2.768,2.043l-2.175,-0.198c0.33,-2.438 2.175,-3.427 5.009,-3.427c2.965,0 4.745,1.319 4.745,4.218l-0,5.404c-0.066,1.318 0.461,2.109 1.845,1.779l-0,1.319c-2.043,0.593 -4.02,-0.132 -3.888,-2.307Zm-6.129,-1.12c-0,1.318 0.791,2.174 2.109,2.174c2.702,-0.197 4.151,-1.911 3.954,-4.876c-2.834,0.131 -6.063,-0.33 -6.063,2.702" style="fill:#fff;fill-rule:nonzero;"/>
                <path id="q" d="M133.638,42.275c-5.141,-1.054 -3.493,5.998 -3.757,10.742l-2.109,0l-0.066,-12.521l1.977,0c0.066,0.791 -0.065,1.911 0.132,2.57c0.396,-1.779 1.516,-3.229 3.823,-2.702l-0,1.911" style="fill:#fff;fill-rule:nonzero;"/>
                <path id="r" d="M135.549,37.794l-0,-1.977l2.109,0l-0,1.977l-2.109,0Zm-0,15.223l-0,-12.521l2.109,0l-0,12.521l-2.109,0" style="fill:#fff;fill-rule:nonzero;"/>
                <path id="s" d="M145.763,40.232c4.086,-0.065 5.602,2.439 5.602,6.525c0.066,4.152 -1.779,6.524 -5.667,6.524c-3.889,0 -5.47,-2.57 -5.536,-6.524c-0,-4.35 1.845,-6.525 5.601,-6.525Zm-0.065,11.467c2.899,0.066 3.492,-2.043 3.492,-4.942c0,-2.834 -0.527,-4.943 -3.361,-4.943c-2.833,0 -3.492,2.109 -3.492,4.943c-0,2.834 0.659,4.876 3.361,4.942" style="fill:#fff;fill-rule:nonzero;"/>
            </g>
            <g id="b">
                <path id="t" d="M66.335,103.062l0,-16.344l2.241,-0l0,16.344l-2.241,-0" style="fill:#fff;fill-rule:nonzero;"/>
                <path id="u" d="M76.352,90.277c2.043,-0 3.164,0.856 3.955,2.174l-0.066,-6.59l2.109,0l0.065,17.201l-1.977,-0c-0.131,-0.659 0,-1.516 -0.197,-2.043c-0.659,1.515 -1.846,2.306 -3.889,2.306c-3.492,0 -4.547,-2.57 -4.613,-6.458c0,-4.35 1.516,-6.59 4.613,-6.59Zm0.594,1.581c-2.636,0 -3.032,2.241 -3.032,4.943c0,2.636 0.396,4.877 2.966,4.877c2.768,-0 3.361,-2.109 3.361,-5.009c-0,-2.768 -0.593,-4.877 -3.295,-4.811" style="fill:#fff;fill-rule:nonzero;"/>
            </g>
            <g id="c">
                <path id="v" d="M71.871,136.984c5.865,-0.263 3.493,7.645 3.954,12.785l-2.109,0l0,-7.974c0,-2.043 -0.527,-3.229 -2.57,-3.163c-4.745,0.132 -2.899,6.722 -3.229,11.137l-2.109,0l-0.066,-12.521l1.977,0c0.066,0.659 -0.066,1.582 0.132,2.109c0.725,-1.45 1.911,-2.307 4.02,-2.373" style="fill:#fff;fill-rule:nonzero;"/>
                <path id="s1" serif:id="s" d="M83.931,136.984c4.086,-0.065 5.602,2.439 5.602,6.525c0.066,4.152 -1.78,6.524 -5.668,6.524c-3.888,-0 -5.47,-2.57 -5.535,-6.524c-0,-4.35 1.845,-6.525 5.601,-6.525Zm-0.066,11.467c2.9,0.066 3.493,-2.043 3.493,-4.942c0,-2.834 -0.527,-4.943 -3.361,-4.943c-2.834,0 -3.493,2.109 -3.493,4.943c0,2.833 0.659,4.876 3.361,4.942" style="fill:#fff;fill-rule:nonzero;"/>
                <path id="w" d="M104.361,138.632c-4.416,0.198 -2.505,6.92 -2.9,11.137l-2.043,0l0,-7.974c0,-1.911 -0.329,-3.295 -2.306,-3.163c-4.35,0.264 -2.505,6.854 -2.9,11.137l-2.043,0l-0.066,-12.521l1.977,0c0.066,0.659 -0.066,1.582 0.132,2.109c0.659,-2.9 6.524,-3.295 7.051,-0c0.725,-1.384 1.78,-2.307 3.823,-2.373c5.601,-0.131 3.097,7.843 3.624,12.785l-2.043,0l0,-7.974c0,-1.911 -0.329,-3.229 -2.306,-3.163" style="fill:#fff;fill-rule:nonzero;"/>
                <path id="x" d="M117.805,136.984c3.492,0 4.547,2.571 4.613,6.459c-0,4.349 -1.516,6.59 -4.613,6.59c-2.043,-0.066 -3.23,-0.725 -3.889,-2.241l-0.131,1.977l-2.043,0l0.066,-17.2l2.108,0l0,6.656c0.659,-1.516 1.846,-2.241 3.889,-2.241Zm-0.528,11.467c2.637,0 2.966,-2.24 2.966,-4.942c0,-2.636 -0.329,-4.943 -2.966,-4.877c-2.767,-0 -3.361,2.109 -3.361,5.009c0,2.833 0.659,4.81 3.361,4.81" style="fill:#fff;fill-rule:nonzero;"/>
                <path id="q1" serif:id="q" d="M130.919,139.027c-5.14,-1.054 -3.493,5.997 -3.756,10.742l-2.109,0l-0.066,-12.521l1.977,0c0.066,0.791 -0.066,1.911 0.132,2.57c0.395,-1.779 1.516,-3.229 3.822,-2.702l0,1.911" style="fill:#fff;fill-rule:nonzero;"/>
                <path id="y" d="M137.839,136.984c4.152,0 5.667,2.768 5.536,6.986l-8.897,0c-0,2.636 0.922,4.415 3.493,4.481c1.713,0.066 2.833,-0.79 3.229,-1.911l1.845,0.527c-0.725,1.846 -2.438,2.966 -5.074,2.966c-3.823,-0 -5.8,-2.438 -5.734,-6.59c0.066,-4.02 1.714,-6.459 5.602,-6.459Zm3.427,5.338c0.395,-3.954 -5.009,-5.074 -6.393,-1.845c-0.197,0.462 -0.395,1.121 -0.395,1.845l6.788,0" style="fill:#fff;fill-rule:nonzero;"/>
            </g>
            <g id="d">
                <path id="p1" serif:id="p" d="M73.453,194.105c-0.989,1.384 -2.043,2.702 -4.481,2.636c-2.373,-0.066 -3.823,-1.384 -3.823,-3.757c-0.066,-4.217 4.152,-4.151 8.238,-4.151c0.198,-2.307 -0.593,-3.559 -2.702,-3.559c-1.582,0.066 -2.702,0.461 -2.768,2.043l-2.175,-0.198c0.33,-2.438 2.175,-3.427 5.009,-3.427c2.965,0 4.745,1.318 4.745,4.218l-0,5.404c-0.066,1.318 0.461,2.109 1.845,1.779l0,1.318c-2.043,0.593 -4.02,-0.131 -3.888,-2.306Zm-6.129,-1.121c-0,1.318 0.791,2.175 2.109,2.175c2.702,-0.198 4.152,-1.911 3.954,-4.877c-2.834,0.132 -6.063,-0.329 -6.063,2.702" style="fill:#fff;fill-rule:nonzero;"/>
                <path id="z" d="M84.92,183.692c3.624,0.066 4.613,2.702 4.613,6.459c-0,3.756 -1.055,6.458 -4.613,6.59c-2.043,-0 -3.229,-0.857 -3.954,-2.241l0.066,6.92l-2.109,-0l-0.066,-17.464l2.043,-0l0.132,1.977c0.659,-1.384 1.845,-2.241 3.888,-2.241Zm-0.527,11.467c2.636,0 2.965,-2.24 2.965,-4.942c0,-2.702 -0.395,-4.811 -2.965,-4.877c-2.768,-0 -3.361,2.109 -3.361,5.008c-0,2.834 0.659,4.811 3.361,4.811" style="fill:#fff;fill-rule:nonzero;"/>
                <path id="y1" serif:id="y" d="M97.112,183.692c4.151,0 5.667,2.768 5.535,6.986l-8.896,-0c-0,2.636 0.922,4.415 3.492,4.481c1.714,0.066 2.834,-0.791 3.23,-1.911l1.845,0.527c-0.725,1.846 -2.439,2.966 -5.075,2.966c-3.822,-0 -5.799,-2.439 -5.733,-6.59c0.066,-4.02 1.713,-6.459 5.602,-6.459Zm3.426,5.338c0.396,-3.954 -5.008,-5.074 -6.392,-1.845c-0.198,0.461 -0.395,1.12 -0.395,1.845l6.787,0" style="fill:#fff;fill-rule:nonzero;"/>
                <path id="A" d="M105.283,196.477l0,-17.2l2.109,-0l0,17.2l-2.109,0" style="fill:#fff;fill-rule:nonzero;"/>
                <path id="A1" serif:id="A" d="M110.49,196.477l-0,-17.2l2.108,-0l0,17.2l-2.108,0" style="fill:#fff;fill-rule:nonzero;"/>
                <path id="r1" serif:id="r" d="M115.696,181.254l-0,-1.977l2.109,-0l-0,1.977l-2.109,-0Zm-0,15.223l-0,-12.521l2.109,-0l-0,12.521l-2.109,0" style="fill:#fff;fill-rule:nonzero;"/>
                <path id="u1" serif:id="u" d="M124.922,183.692c2.043,0 3.163,0.857 3.954,2.175l-0.066,-6.59l2.109,-0l0.066,17.2l-1.977,0c-0.132,-0.659 -0,-1.516 -0.198,-2.043c-0.659,1.516 -1.845,2.307 -3.888,2.307c-3.493,-0 -4.547,-2.57 -4.613,-6.459c-0,-4.349 1.516,-6.59 4.613,-6.59Zm0.593,1.582c-2.636,-0 -3.031,2.241 -3.031,4.943c-0,2.636 0.395,4.876 2.965,4.876c2.768,0 3.361,-2.109 3.361,-5.008c0,-2.768 -0.593,-4.877 -3.295,-4.811" style="fill:#fff;fill-rule:nonzero;"/>
                <path id="s2" serif:id="s" d="M139.091,183.692c4.086,-0.066 5.602,2.439 5.602,6.525c0.065,4.151 -1.78,6.524 -5.668,6.524c-3.888,-0 -5.47,-2.57 -5.536,-6.524c0,-4.35 1.846,-6.525 5.602,-6.525Zm-0.066,11.467c2.9,0.066 3.493,-2.043 3.493,-4.942c-0,-2.834 -0.527,-4.943 -3.361,-4.943c-2.834,-0 -3.493,2.109 -3.493,4.943c0,2.833 0.659,4.876 3.361,4.942" style="fill:#fff;fill-rule:nonzero;"/>
            </g>
            <g id="e">
                <path id="y2" serif:id="y" d="M70.751,230.4c4.152,0 5.667,2.768 5.536,6.986l-8.897,-0c-0,2.636 0.922,4.415 3.493,4.481c1.713,0.066 2.833,-0.791 3.229,-1.911l1.845,0.527c-0.725,1.845 -2.438,2.966 -5.074,2.966c-3.823,-0 -5.8,-2.439 -5.734,-6.59c0.066,-4.021 1.714,-6.459 5.602,-6.459Zm3.427,5.338c0.395,-3.954 -5.009,-5.074 -6.393,-1.845c-0.197,0.461 -0.395,1.12 -0.395,1.845l6.788,0" style="fill:#fff;fill-rule:nonzero;"/>
                <path id="w1" serif:id="w" d="M91.18,232.048c-4.415,0.197 -2.504,6.919 -2.899,11.137l-2.043,0l-0,-7.974c-0,-1.911 -0.33,-3.295 -2.307,-3.163c-4.349,0.263 -2.504,6.853 -2.899,11.137l-2.043,0l-0.066,-12.521l1.977,-0c0.066,0.659 -0.066,1.581 0.132,2.109c0.659,-2.9 6.524,-3.295 7.051,-0c0.725,-1.384 1.779,-2.307 3.822,-2.373c5.602,-0.132 3.098,7.842 3.625,12.785l-2.043,0l-0,-7.974c-0,-1.911 -0.33,-3.229 -2.307,-3.163" style="fill:#fff;fill-rule:nonzero;"/>
                <path id="p2" serif:id="p" d="M106.338,240.813c-0.989,1.384 -2.043,2.702 -4.482,2.636c-2.372,-0.066 -3.822,-1.384 -3.822,-3.757c-0.066,-4.217 4.152,-4.152 8.238,-4.152c0.198,-2.306 -0.593,-3.558 -2.702,-3.558c-1.582,0.066 -2.702,0.461 -2.768,2.043l-2.175,-0.198c0.33,-2.438 2.175,-3.427 5.009,-3.427c2.965,0 4.745,1.318 4.745,4.218l-0,5.404c-0.066,1.318 0.461,2.109 1.845,1.779l-0,1.318c-2.043,0.593 -4.02,-0.132 -3.888,-2.306Zm-6.129,-1.121c-0,1.318 0.791,2.175 2.109,2.175c2.702,-0.198 4.152,-1.911 3.954,-4.877c-2.834,0.132 -6.063,-0.329 -6.063,2.702" style="fill:#fff;fill-rule:nonzero;"/>
                <path id="r2" serif:id="r" d="M111.808,227.962l-0,-1.977l2.108,-0l0,1.977l-2.108,-0Zm-0,15.223l-0,-12.521l2.108,-0l0,12.521l-2.108,0" style="fill:#fff;fill-rule:nonzero;"/>
                <path id="A2" serif:id="A" d="M117.014,243.185l-0,-17.2l2.109,-0l-0,17.2l-2.109,0" style="fill:#fff;fill-rule:nonzero;"/>
            </g>
            <g id="f">
                <path id="z1" serif:id="z" d="M71.739,277.108c3.625,0.066 4.613,2.702 4.613,6.458c0,3.757 -1.054,6.459 -4.613,6.591c-2.043,-0 -3.229,-0.857 -3.954,-2.241l0.066,6.92l-2.109,-0l-0.066,-17.464l2.043,-0l0.132,1.977c0.659,-1.384 1.845,-2.241 3.888,-2.241Zm-0.527,11.467c2.636,-0 2.966,-2.241 2.966,-4.943c-0,-2.702 -0.396,-4.811 -2.966,-4.876c-2.768,-0 -3.361,2.108 -3.361,5.008c0,2.834 0.659,4.811 3.361,4.811" style="fill:#fff;fill-rule:nonzero;"/>
                <path id="p3" serif:id="p" d="M86.633,287.52c-0.988,1.384 -2.043,2.702 -4.481,2.637c-2.373,-0.066 -3.822,-1.384 -3.822,-3.757c-0.066,-4.218 4.151,-4.152 8.237,-4.152c0.198,-2.306 -0.593,-3.558 -2.702,-3.558c-1.581,0.066 -2.702,0.461 -2.768,2.043l-2.174,-0.198c0.329,-2.438 2.174,-3.427 5.008,-3.427c2.966,-0 4.745,1.318 4.745,4.218l0,5.404c-0.066,1.318 0.461,2.108 1.845,1.779l0,1.318c-2.043,0.593 -4.02,-0.132 -3.888,-2.307Zm-6.129,-1.12c0,1.318 0.791,2.175 2.109,2.175c2.702,-0.198 4.152,-1.911 3.954,-4.877c-2.834,0.132 -6.063,-0.329 -6.063,2.702" style="fill:#fff;fill-rule:nonzero;"/>
                <path id="n1" serif:id="n" d="M99.418,280.469c-0.198,-2.241 -5.667,-2.504 -5.733,-0c0.988,3.493 7.578,0.791 7.842,5.931c0.264,5.14 -9.885,4.877 -10.347,0.527l1.846,-0.329c0.263,2.372 6.392,2.965 6.458,-0c-0.659,-3.691 -7.447,-0.989 -7.776,-5.931c-0.264,-3.757 5.404,-4.152 8.04,-2.768c0.79,0.461 1.384,1.252 1.581,2.306" style="fill:#fff;fill-rule:nonzero;"/>
                <path id="n2" serif:id="n" d="M111.28,280.469c-0.197,-2.241 -5.667,-2.504 -5.733,-0c0.988,3.493 7.579,0.791 7.842,5.931c0.264,5.14 -9.885,4.877 -10.346,0.527l1.845,-0.329c0.264,2.372 6.392,2.965 6.458,-0c-0.659,-3.691 -7.447,-0.989 -7.776,-5.931c-0.264,-3.757 5.404,-4.152 8.04,-2.768c0.791,0.461 1.384,1.252 1.582,2.306" style="fill:#fff;fill-rule:nonzero;"/>
                <path id="B" d="M127.822,289.893l-2.373,-0l-2.636,-10.808l-2.702,10.808l-2.372,-0l-3.559,-12.521l2.109,-0l2.57,10.807l2.834,-10.807l2.241,-0l2.702,10.807l2.767,-10.807l2.043,-0" style="fill:#fff;fill-rule:nonzero;"/>
                <path id="s3" serif:id="s" d="M137.905,277.108c4.086,-0.066 5.601,2.438 5.601,6.524c0.066,4.152 -1.779,6.525 -5.667,6.525c-3.888,-0 -5.47,-2.571 -5.536,-6.525c0,-4.349 1.845,-6.524 5.602,-6.524Zm-0.066,11.467c2.899,0.066 3.493,-2.043 3.493,-4.943c-0,-2.834 -0.528,-4.942 -3.361,-4.942c-2.834,-0 -3.493,2.108 -3.493,4.942c-0,2.834 0.659,4.877 3.361,4.943" style="fill:#fff;fill-rule:nonzero;"/>
                <path id="q2" serif:id="q" d="M152.008,279.151c-5.141,-1.054 -3.493,5.997 -3.757,10.742l-2.109,-0l-0.065,-12.521l1.977,-0c0.065,0.79 -0.066,1.911 0.131,2.57c0.396,-1.78 1.516,-3.229 3.823,-2.702l-0,1.911" style="fill:#fff;fill-rule:nonzero;"/>
                <path id="u2" serif:id="u" d="M157.939,277.108c2.043,-0 3.163,0.857 3.954,2.175l-0.066,-6.59l2.109,-0l0.066,17.2l-1.977,-0c-0.132,-0.659 -0,-1.516 -0.198,-2.043c-0.659,1.516 -1.845,2.307 -3.888,2.307c-3.493,-0 -4.547,-2.571 -4.613,-6.459c-0,-4.349 1.515,-6.59 4.613,-6.59Zm0.593,1.582c-2.636,-0 -3.032,2.24 -3.032,4.942c0,2.636 0.396,4.877 2.966,4.877c2.768,-0 3.361,-2.109 3.361,-5.009c0,-2.767 -0.593,-4.876 -3.295,-4.81" style="fill:#fff;fill-rule:nonzero;"/>
            </g>
            <g id="g">
                <path id="C" d="M70.487,325.463c-2.636,0 -3.163,2.175 -3.163,4.811c-0,2.636 0.593,4.943 3.163,4.943c1.582,-0 2.702,-0.923 2.834,-2.504l2.109,0.131c-0.396,2.439 -2.043,4.02 -4.877,4.02c-3.888,0 -5.008,-2.702 -5.404,-6.524c-0.659,-6.129 6.656,-8.633 9.688,-4.218c0.263,0.462 0.329,0.923 0.461,1.45l-2.109,0.198c-0.263,-1.384 -1.054,-2.307 -2.702,-2.307" style="fill:#fff;fill-rule:nonzero;"/>
                <path id="y3" serif:id="y" d="M82.613,323.816c4.152,-0 5.668,2.768 5.536,6.985l-8.897,0c0,2.636 0.923,4.416 3.493,4.482c1.713,0.066 2.834,-0.791 3.229,-1.911l1.845,0.527c-0.725,1.845 -2.438,2.965 -5.074,2.965c-3.822,0 -5.799,-2.438 -5.733,-6.59c0.065,-4.02 1.713,-6.458 5.601,-6.458Zm3.427,5.338c0.395,-3.954 -5.008,-5.075 -6.392,-1.845c-0.198,0.461 -0.396,1.12 -0.396,1.845l6.788,-0" style="fill:#fff;fill-rule:nonzero;"/>
                <path id="A3" serif:id="A" d="M90.785,336.601l-0,-17.201l2.109,0l-0,17.201l-2.109,-0" style="fill:#fff;fill-rule:nonzero;"/>
                <path id="o1" serif:id="o" d="M99.945,336.864c-5.865,0.264 -3.558,-7.644 -4.02,-12.785l2.109,0l0,7.909c0,2.043 0.461,3.295 2.57,3.229c4.745,-0.132 2.966,-6.656 3.295,-11.138l2.043,0l0.066,12.522l-1.977,-0c-0.066,-0.659 0.066,-1.648 -0.132,-2.175c-0.725,1.45 -1.845,2.372 -3.954,2.438" style="fill:#fff;fill-rule:nonzero;"/>
                <path id="A4" serif:id="A" d="M109.172,336.601l-0,-17.201l2.108,0l0,17.201l-2.108,-0" style="fill:#fff;fill-rule:nonzero;"/>
                <path id="p4" serif:id="p" d="M122.088,334.228c-0.988,1.384 -2.043,2.702 -4.481,2.636c-2.372,-0.066 -3.822,-1.384 -3.822,-3.756c-0.066,-4.218 4.151,-4.152 8.237,-4.152c0.198,-2.306 -0.593,-3.559 -2.702,-3.559c-1.581,0.066 -2.702,0.462 -2.767,2.043l-2.175,-0.197c0.329,-2.439 2.175,-3.427 5.008,-3.427c2.966,-0 4.745,1.318 4.745,4.218l0,5.403c-0.066,1.319 0.462,2.109 1.845,1.78l0,1.318c-2.042,0.593 -4.02,-0.132 -3.888,-2.307Zm-6.129,-1.12c0,1.318 0.791,2.175 2.109,2.175c2.702,-0.198 4.152,-1.911 3.954,-4.877c-2.833,0.132 -6.063,-0.33 -6.063,2.702" style="fill:#fff;fill-rule:nonzero;"/>
                <path id="q3" serif:id="q" d="M133.489,325.859c-5.14,-1.055 -3.493,5.997 -3.756,10.742l-2.109,-0l-0.066,-12.522l1.977,0c0.066,0.791 -0.066,1.912 0.132,2.571c0.395,-1.78 1.516,-3.23 3.822,-2.702l0,1.911" style="fill:#fff;fill-rule:nonzero;"/>
            </g>
            <g id="h">
                <path id="q4" serif:id="q" d="M71.673,372.567c-5.14,-1.055 -3.492,5.997 -3.756,10.742l-2.109,-0l-0.066,-12.522l1.977,0c0.066,0.791 -0.066,1.911 0.132,2.57c0.396,-1.779 1.516,-3.229 3.822,-2.702l0,1.912" style="fill:#fff;fill-rule:nonzero;"/>
                <path id="s4" serif:id="s" d="M78.593,370.524c4.086,-0.066 5.602,2.438 5.602,6.524c0.066,4.152 -1.78,6.524 -5.668,6.524c-3.888,0 -5.47,-2.57 -5.535,-6.524c-0,-4.35 1.845,-6.524 5.601,-6.524Zm-0.066,11.467c2.9,0.065 3.493,-2.043 3.493,-4.943c0,-2.834 -0.527,-4.943 -3.361,-4.943c-2.834,0 -3.493,2.109 -3.493,4.943c0,2.834 0.659,4.877 3.361,4.943" style="fill:#fff;fill-rule:nonzero;"/>
                <path id="A5" serif:id="A" d="M86.765,383.309l-0,-17.201l2.109,0l-0,17.201l-2.109,-0" style="fill:#fff;fill-rule:nonzero;"/>
                <path id="y4" serif:id="y" d="M96.98,370.524c4.152,-0 5.667,2.768 5.535,6.985l-8.896,0c-0,2.636 0.922,4.416 3.493,4.482c1.713,0.065 2.833,-0.791 3.229,-1.912l1.845,0.528c-0.725,1.845 -2.438,2.965 -5.074,2.965c-3.823,0 -5.8,-2.438 -5.734,-6.59c0.066,-4.02 1.714,-6.458 5.602,-6.458Zm3.427,5.338c0.395,-3.954 -5.009,-5.075 -6.393,-1.846c-0.198,0.462 -0.395,1.121 -0.395,1.846l6.788,-0" style="fill:#fff;fill-rule:nonzero;"/>
            </g>
            <path d="M559.224,209.174c-0,-3.66 3.012,-6.672 6.672,-6.672l286.92,-0c3.66,-0 6.672,3.012 6.672,6.672l0,226.867c0,3.66 -3.012,6.673 -6.672,6.673l-286.92,-0c-3.66,-0 -6.672,-3.013 -6.672,-6.673l-0,-226.867Z" style="fill-rule:nonzero;"/>
            <path d="M559.224,302.59l-0,48.042l300.264,0l0,-48.042m-300.264,93.416l-0,40.035c-0,3.66 3.012,6.673 6.672,6.673l286.92,-0c3.66,-0 6.672,-3.013 6.672,-6.673l0,-40.035" style="fill:#1a1a1a;fill-rule:nonzero;"/>
            <path d="M559.224,255.882l-0,-46.708c-0,-3.66 3.012,-6.672 6.672,-6.672l286.92,-0c3.66,-0 6.672,3.012 6.672,6.672l0,46.708" style="fill:#008aff;fill-rule:nonzero;"/>
            <path d="M559.224,209.174c-0,-3.66 3.012,-6.672 6.672,-6.672l286.92,-0c3.66,-0 6.672,3.012 6.672,6.672l0,226.867c0,3.66 -3.012,6.673 -6.672,6.673l-286.92,-0c-3.66,-0 -6.672,-3.013 -6.672,-6.673l-0,-226.867Zm-0,46.708l300.264,0" style="fill:none;fill-rule:nonzero;stroke:#1071e5;stroke-width:2.67px;"/>
            <g id="i">
                <path id="D" d="M601.021,236.068l-1.845,-4.745l-7.447,-0l-1.846,4.745l-2.306,-0l6.656,-16.344l2.504,0l6.524,16.344l-2.24,-0Zm-2.504,-6.525l-3.098,-8.105c-0.791,2.965 -2.043,5.403 -3.031,8.105l6.129,0" style="fill:#fff;fill-rule:nonzero;"/>
                <path id="C1" serif:id="C" d="M609.654,224.93c-2.636,0 -3.163,2.175 -3.163,4.811c-0,2.636 0.593,4.943 3.163,4.943c1.582,-0 2.702,-0.923 2.834,-2.505l2.109,0.132c-0.396,2.439 -2.043,4.02 -4.877,4.02c-3.888,0 -5.009,-2.702 -5.404,-6.524c-0.659,-6.129 6.656,-8.633 9.687,-4.218c0.264,0.462 0.33,0.923 0.462,1.45l-2.109,0.198c-0.264,-1.384 -1.055,-2.307 -2.702,-2.307" style="fill:#fff;fill-rule:nonzero;"/>
                <path id="C2" serif:id="C" d="M621.516,224.93c-2.636,0 -3.163,2.175 -3.163,4.811c-0,2.636 0.593,4.943 3.163,4.943c1.582,-0 2.702,-0.923 2.834,-2.505l2.109,0.132c-0.396,2.439 -2.043,4.02 -4.877,4.02c-3.888,0 -5.008,-2.702 -5.404,-6.524c-0.659,-6.129 6.656,-8.633 9.688,-4.218c0.263,0.462 0.329,0.923 0.461,1.45l-2.109,0.198c-0.263,-1.384 -1.054,-2.307 -2.702,-2.307" style="fill:#fff;fill-rule:nonzero;"/>
                <path id="y5" serif:id="y" d="M633.642,223.283c4.152,-0 5.668,2.768 5.536,6.985l-8.897,0c0,2.636 0.923,4.416 3.493,4.482c1.713,0.066 2.834,-0.791 3.229,-1.912l1.845,0.528c-0.725,1.845 -2.438,2.965 -5.074,2.965c-3.822,0 -5.799,-2.438 -5.734,-6.59c0.066,-4.02 1.714,-6.458 5.602,-6.458Zm3.427,5.338c0.395,-3.954 -5.009,-5.075 -6.392,-1.845c-0.198,0.461 -0.396,1.12 -0.396,1.845l6.788,-0" style="fill:#fff;fill-rule:nonzero;"/>
                <path id="n3" serif:id="n" d="M649.129,226.644c-0.198,-2.241 -5.668,-2.505 -5.733,-0c0.988,3.493 7.578,0.791 7.842,5.931c0.263,5.14 -9.885,4.877 -10.347,0.527l1.846,-0.329c0.263,2.372 6.392,2.965 6.458,-0c-0.659,-3.691 -7.447,-0.989 -7.776,-5.932c-0.264,-3.756 5.403,-4.151 8.04,-2.767c0.79,0.461 1.383,1.252 1.581,2.306" style="fill:#fff;fill-rule:nonzero;"/>
                <path id="n4" serif:id="n" d="M660.991,226.644c-0.197,-2.241 -5.667,-2.505 -5.733,-0c0.988,3.493 7.579,0.791 7.842,5.931c0.264,5.14 -9.885,4.877 -10.346,0.527l1.845,-0.329c0.263,2.372 6.392,2.965 6.458,-0c-0.659,-3.691 -7.447,-0.989 -7.776,-5.932c-0.264,-3.756 5.404,-4.151 8.04,-2.767c0.791,0.461 1.384,1.252 1.581,2.306" style="fill:#fff;fill-rule:nonzero;"/>
                <path id="E" d="M672.326,221.569l0,14.499l-2.24,-0l-0,-14.499l-5.602,0l0,-1.845l13.444,0l0,1.845l-5.602,0" style="fill:#fff;fill-rule:nonzero;"/>
                <path id="s5" serif:id="s" d="M682.343,223.283c4.086,-0.066 5.602,2.438 5.602,6.524c0.066,4.152 -1.779,6.524 -5.667,6.524c-3.889,0 -5.47,-2.57 -5.536,-6.524c-0,-4.349 1.845,-6.524 5.601,-6.524Zm-0.065,11.467c2.899,0.066 3.492,-2.043 3.492,-4.943c0,-2.834 -0.527,-4.943 -3.361,-4.943c-2.833,0 -3.492,2.109 -3.492,4.943c-0,2.834 0.659,4.877 3.361,4.943" style="fill:#fff;fill-rule:nonzero;"/>
                <path id="F" d="M698.358,236.068l-4.218,-5.734l-1.516,1.252l0,4.482l-2.109,-0l0,-17.201l2.109,0l0,10.742l5.47,-6.063l2.438,0l-5.074,5.404l5.404,7.118l-2.504,-0" style="fill:#fff;fill-rule:nonzero;"/>
                <path id="y6" serif:id="y" d="M707.386,223.283c4.152,-0 5.668,2.768 5.536,6.985l-8.897,0c0,2.636 0.923,4.416 3.493,4.482c1.713,0.066 2.834,-0.791 3.229,-1.912l1.845,0.528c-0.725,1.845 -2.438,2.965 -5.074,2.965c-3.822,0 -5.799,-2.438 -5.734,-6.59c0.066,-4.02 1.714,-6.458 5.602,-6.458Zm3.427,5.338c0.395,-3.954 -5.009,-5.075 -6.392,-1.845c-0.198,0.461 -0.396,1.12 -0.396,1.845l6.788,-0" style="fill:#fff;fill-rule:nonzero;"/>
                <path id="v1" serif:id="v" d="M721.687,223.283c5.865,-0.264 3.493,7.644 3.954,12.785l-2.109,-0l0,-7.974c0,-2.043 -0.527,-3.23 -2.57,-3.164c-4.745,0.132 -2.9,6.722 -3.229,11.138l-2.109,-0l-0.066,-12.522l1.977,0c0.066,0.659 -0.066,1.582 0.132,2.109c0.725,-1.45 1.911,-2.306 4.02,-2.372" style="fill:#fff;fill-rule:nonzero;"/>
            </g>
            <g id="b1" serif:id="b">
                <path id="t1" serif:id="t" d="M583.013,286.112l0,-16.344l2.241,0l-0,16.344l-2.241,-0" style="fill:#fff;fill-rule:nonzero;"/>
                <path id="u3" serif:id="u" d="M593.03,273.327c2.043,-0 3.163,0.857 3.954,2.175l-0.066,-6.591l2.109,0l0.066,17.201l-1.977,-0c-0.132,-0.659 0,-1.516 -0.198,-2.043c-0.659,1.516 -1.845,2.306 -3.888,2.306c-3.493,0 -4.547,-2.57 -4.613,-6.458c0,-4.349 1.516,-6.59 4.613,-6.59Zm0.593,1.582c-2.636,-0 -3.031,2.24 -3.031,4.942c-0,2.636 0.395,4.877 2.965,4.877c2.768,-0 3.361,-2.109 3.361,-5.009c0,-2.768 -0.593,-4.876 -3.295,-4.81" style="fill:#fff;fill-rule:nonzero;"/>
            </g>
            <g id="j">
                <path id="G" d="M584.727,329.722c-0.132,1.582 1.186,1.911 2.504,1.45l-0,1.582c-2.175,0.659 -4.613,0.329 -4.613,-2.57l-0,-8.37l-1.45,0l-0,-1.516l1.582,0l0.593,-2.833l1.384,-0l-0,2.833l2.306,0l0,1.516l-2.306,0l-0,7.908" style="fill:#fff;fill-rule:nonzero;"/>
                <path id="G1" serif:id="G" d="M591.317,329.722c-0.132,1.582 1.186,1.911 2.504,1.45l0,1.582c-2.175,0.659 -4.613,0.329 -4.613,-2.57l-0,-8.37l-1.45,0l0,-1.516l1.582,0l0.593,-2.833l1.384,-0l-0,2.833l2.306,0l0,1.516l-2.306,0l-0,7.908" style="fill:#fff;fill-rule:nonzero;"/>
                <path id="A6" serif:id="A" d="M595.6,332.82l0,-17.201l2.109,0l0,17.201l-2.109,-0" style="fill:#fff;fill-rule:nonzero;"/>
            </g>
            <g id="k">
                <path id="C3" serif:id="C" d="M587.165,368.39c-2.636,0 -3.163,2.175 -3.163,4.811c-0,2.636 0.593,4.943 3.163,4.943c1.582,-0 2.702,-0.923 2.834,-2.505l2.109,0.132c-0.396,2.438 -2.043,4.02 -4.877,4.02c-3.888,0 -5.009,-2.702 -5.404,-6.524c-0.659,-6.129 6.656,-8.633 9.687,-4.218c0.264,0.461 0.33,0.923 0.462,1.45l-2.109,0.198c-0.264,-1.384 -1.055,-2.307 -2.702,-2.307" style="fill:#fff;fill-rule:nonzero;"/>
                <path id="q5" serif:id="q" d="M600.213,368.786c-5.14,-1.055 -3.492,5.997 -3.756,10.741l-2.109,0l-0.066,-12.521l1.977,0c0.066,0.791 -0.066,1.911 0.132,2.57c0.396,-1.779 1.516,-3.229 3.822,-2.702l0,1.912" style="fill:#fff;fill-rule:nonzero;"/>
                <path id="y7" serif:id="y" d="M607.133,366.743c4.152,-0 5.668,2.767 5.536,6.985l-8.897,0c0,2.636 0.923,4.416 3.493,4.481c1.713,0.066 2.834,-0.79 3.229,-1.911l1.845,0.528c-0.725,1.845 -2.438,2.965 -5.074,2.965c-3.822,0 -5.799,-2.438 -5.733,-6.59c0.065,-4.02 1.713,-6.458 5.601,-6.458Zm3.427,5.338c0.395,-3.955 -5.008,-5.075 -6.392,-1.846c-0.198,0.462 -0.396,1.121 -0.396,1.846l6.788,-0" style="fill:#fff;fill-rule:nonzero;"/>
                <path id="p5" serif:id="p" d="M623.015,377.155c-0.988,1.384 -2.042,2.702 -4.481,2.636c-2.372,-0.066 -3.822,-1.384 -3.822,-3.756c-0.066,-4.218 4.152,-4.152 8.238,-4.152c0.197,-2.307 -0.594,-3.559 -2.702,-3.559c-1.582,0.066 -2.702,0.462 -2.768,2.043l-2.175,-0.198c0.329,-2.438 2.175,-3.426 5.008,-3.426c2.966,-0 4.745,1.318 4.745,4.217l0,5.404c-0.065,1.318 0.462,2.109 1.846,1.78l-0,1.318c-2.043,0.593 -4.02,-0.132 -3.889,-2.307Zm-6.128,-1.12c-0,1.318 0.79,2.174 2.108,2.174c2.702,-0.197 4.152,-1.911 3.955,-4.876c-2.834,0.132 -6.063,-0.33 -6.063,2.702" style="fill:#fff;fill-rule:nonzero;"/>
                <path id="G2" serif:id="G" d="M630.792,376.43c-0.132,1.582 1.186,1.911 2.504,1.45l0,1.582c-2.175,0.659 -4.613,0.329 -4.613,-2.571l0,-8.369l-1.45,-0l0,-1.516l1.582,0l0.593,-2.834l1.384,0l-0,2.834l2.306,0l0,1.516l-2.306,-0l-0,7.908" style="fill:#fff;fill-rule:nonzero;"/>
                <path id="y8" serif:id="y" d="M640.084,366.743c4.152,-0 5.668,2.767 5.536,6.985l-8.897,0c0,2.636 0.923,4.416 3.493,4.481c1.713,0.066 2.834,-0.79 3.229,-1.911l1.845,0.528c-0.725,1.845 -2.438,2.965 -5.074,2.965c-3.822,0 -5.8,-2.438 -5.734,-6.59c0.066,-4.02 1.714,-6.458 5.602,-6.458Zm3.427,5.338c0.395,-3.955 -5.009,-5.075 -6.393,-1.846c-0.197,0.462 -0.395,1.121 -0.395,1.846l6.788,-0" style="fill:#fff;fill-rule:nonzero;"/>
                <path id="u4" serif:id="u" d="M652.276,366.743c2.043,-0 3.163,0.856 3.954,2.174l-0.066,-6.59l2.109,0l0.066,17.2l-1.977,0c-0.132,-0.659 -0,-1.515 -0.198,-2.042c-0.659,1.515 -1.845,2.306 -3.888,2.306c-3.493,0 -4.547,-2.57 -4.613,-6.458c-0,-4.35 1.515,-6.59 4.613,-6.59Zm0.593,1.581c-2.636,0 -3.032,2.241 -3.032,4.943c0,2.636 0.396,4.877 2.966,4.877c2.768,-0 3.361,-2.109 3.361,-5.009c0,-2.768 -0.593,-4.877 -3.295,-4.811" style="fill:#fff;fill-rule:nonzero;"/>
            </g>
            <g id="l">
                <path id="o2" serif:id="o" d="M586.374,426.499c-5.865,0.264 -3.559,-7.645 -4.02,-12.785l2.109,-0l-0,7.908c-0,2.043 0.461,3.295 2.57,3.229c4.745,-0.131 2.966,-6.656 3.295,-11.137l2.043,-0l0.066,12.521l-1.977,0c-0.066,-0.659 0.066,-1.647 -0.132,-2.174c-0.725,1.449 -1.845,2.372 -3.954,2.438" style="fill:#fff;fill-rule:nonzero;"/>
                <path id="n5" serif:id="n" d="M602.915,416.811c-0.197,-2.24 -5.667,-2.504 -5.733,0c0.989,3.493 7.579,0.791 7.842,5.932c0.264,5.14 -9.885,4.876 -10.346,0.527l1.845,-0.33c0.264,2.373 6.392,2.966 6.458,0c-0.659,-3.69 -7.447,-0.988 -7.776,-5.931c-0.264,-3.756 5.404,-4.152 8.04,-2.768c0.791,0.462 1.384,1.252 1.582,2.307" style="fill:#fff;fill-rule:nonzero;"/>
                <path id="y9" serif:id="y" d="M612.471,413.45c4.152,0 5.668,2.768 5.536,6.986l-8.897,-0c0,2.636 0.923,4.415 3.493,4.481c1.713,0.066 2.834,-0.791 3.229,-1.911l1.845,0.527c-0.724,1.846 -2.438,2.966 -5.074,2.966c-3.822,-0 -5.799,-2.438 -5.733,-6.59c0.065,-4.02 1.713,-6.459 5.601,-6.459Zm3.427,5.338c0.395,-3.954 -5.008,-5.074 -6.392,-1.845c-0.198,0.461 -0.396,1.121 -0.396,1.845l6.788,0" style="fill:#fff;fill-rule:nonzero;"/>
                <path id="q6" serif:id="q" d="M626.574,415.493c-5.14,-1.054 -3.493,5.997 -3.756,10.742l-2.109,0l-0.066,-12.521l1.977,-0c0.066,0.791 -0.066,1.911 0.132,2.57c0.395,-1.779 1.516,-3.229 3.822,-2.702l0,1.911" style="fill:#fff;fill-rule:nonzero;"/>
                <path id="t2" serif:id="t" d="M629.078,426.235l0,-16.343l2.241,-0l0,16.343l-2.241,0" style="fill:#fff;fill-rule:nonzero;"/>
                <path id="u5" serif:id="u" d="M639.095,413.45c2.043,0 3.164,0.857 3.955,2.175l-0.066,-6.59l2.109,-0l0.065,17.2l-1.977,0c-0.131,-0.659 0,-1.515 -0.197,-2.043c-0.659,1.516 -1.846,2.307 -3.889,2.307c-3.492,-0 -4.547,-2.57 -4.613,-6.458c0,-4.35 1.516,-6.591 4.613,-6.591Zm0.594,1.582c-2.636,0 -3.032,2.241 -3.032,4.943c0,2.636 0.396,4.876 2.966,4.876c2.768,0 3.361,-2.108 3.361,-5.008c-0,-2.768 -0.593,-4.877 -3.295,-4.811" style="fill:#fff;fill-rule:nonzero;"/>
            </g>
            <path d="M372.166,95.181c-0,0.734 -0.601,1.334 -1.335,1.334c-0.734,0 -1.334,-0.6 -1.334,-1.334c-0,-0.748 0.6,-1.335 1.334,-1.335c0.734,0 1.335,0.587 1.335,1.335Zm5.338,-0c-0,0.734 -0.588,1.334 -1.335,1.334c-0.734,0 -1.334,-0.6 -1.334,-1.334c-0,-0.748 0.6,-1.335 1.334,-1.335c0.747,0 1.335,0.587 1.335,1.335Zm5.338,-0c-0,0.734 -0.574,1.334 -1.335,1.334c-0.721,0 -1.334,-0.6 -1.334,-1.334c-0,-0.748 0.613,-1.335 1.334,-1.335c0.761,0 1.335,0.587 1.335,1.335Zm5.364,-0c0,0.734 -0.6,1.334 -1.334,1.334c-0.734,0 -1.335,-0.6 -1.335,-1.334c0,-0.748 0.601,-1.335 1.335,-1.335c0.734,0 1.334,0.587 1.334,1.335Zm5.338,-0c0,0.734 -0.587,1.334 -1.334,1.334c-0.721,0 -1.335,-0.6 -1.335,-1.334c0,-0.748 0.614,-1.335 1.335,-1.335c0.747,0 1.334,0.587 1.334,1.335Zm5.365,-0c0,0.734 -0.6,1.334 -1.334,1.334c-0.748,0 -1.335,-0.6 -1.335,-1.334c0,-0.748 0.587,-1.335 1.335,-1.335c0.734,0 1.334,0.587 1.334,1.335Zm5.338,-0c0,0.734 -0.6,1.334 -1.334,1.334c-0.734,0 -1.335,-0.6 -1.335,-1.334c0,-0.748 0.601,-1.335 1.335,-1.335c0.734,0 1.334,0.587 1.334,1.335Zm5.338,-0c0,0.734 -0.587,1.334 -1.334,1.334c-0.721,0 -1.335,-0.6 -1.335,-1.334c0,-0.748 0.614,-1.335 1.335,-1.335c0.747,0 1.334,0.587 1.334,1.335Zm5.365,-0c-0,0.734 -0.601,1.334 -1.335,1.334c-0.747,0 -1.334,-0.6 -1.334,-1.334c-0,-0.748 0.587,-1.335 1.334,-1.335c0.734,0 1.335,0.587 1.335,1.335Zm5.338,-0c-0,0.734 -0.587,1.334 -1.335,1.334c-0.734,0 -1.334,-0.6 -1.334,-1.334c-0,-0.748 0.6,-1.335 1.334,-1.335c0.748,0 1.335,0.587 1.335,1.335Zm5.338,-0c-0,0.734 -0.587,1.334 -1.335,1.334c-0.72,0 -1.334,-0.6 -1.334,-1.334c-0,-0.748 0.614,-1.335 1.334,-1.335c0.748,0 1.335,0.587 1.335,1.335Zm5.365,-0c-0,0.734 -0.601,1.334 -1.335,1.334c-0.747,0 -1.334,-0.6 -1.334,-1.334c-0,-0.748 0.587,-1.335 1.334,-1.335c0.734,0 1.335,0.587 1.335,1.335Zm5.338,-0c-0,0.734 -0.587,1.334 -1.335,1.334c-0.734,0 -1.334,-0.6 -1.334,-1.334c-0,-0.748 0.6,-1.335 1.334,-1.335c0.748,0 1.335,0.587 1.335,1.335Zm4.937,0.774c0,0.734 -0.587,1.334 -1.334,1.334c-0.721,0 -1.335,-0.6 -1.335,-1.334c0,-0.734 0.614,-1.335 1.335,-1.335c0.747,0 1.334,0.601 1.334,1.335Zm4.484,2.268c0,0.748 -0.6,1.335 -1.334,1.335c-0.747,-0 -1.335,-0.587 -1.335,-1.335c0,-0.734 0.588,-1.334 1.335,-1.334c0.734,-0 1.334,0.6 1.334,1.334Zm3.537,3.55c-0,0.721 -0.614,1.335 -1.335,1.335c-0.747,-0 -1.334,-0.614 -1.334,-1.335c-0,-0.747 0.587,-1.335 1.334,-1.335c0.721,0 1.335,0.588 1.335,1.335Zm2.269,4.457c-0,0.734 -0.601,1.335 -1.335,1.335c-0.747,-0 -1.335,-0.601 -1.335,-1.335c0,-0.747 0.588,-1.334 1.335,-1.334c0.734,-0 1.335,0.587 1.335,1.334Zm0.774,4.938c-0,0.747 -0.588,1.334 -1.335,1.334c-0.734,0 -1.334,-0.587 -1.334,-1.334c-0,-0.734 0.6,-1.335 1.334,-1.335c0.747,0 1.335,0.601 1.335,1.335Zm-0,5.338c-0,0.721 -0.588,1.334 -1.335,1.334c-0.734,0 -1.334,-0.613 -1.334,-1.334c-0,-0.761 0.6,-1.335 1.334,-1.335c0.747,0 1.335,0.574 1.335,1.335Zm-0,5.298c-0,0.747 -0.588,1.335 -1.335,1.335c-0.734,-0 -1.334,-0.588 -1.334,-1.335c-0,-0.734 0.6,-1.335 1.334,-1.335c0.747,0 1.335,0.601 1.335,1.335Zm-0,5.338c-0,0.721 -0.588,1.335 -1.335,1.335c-0.734,-0 -1.334,-0.614 -1.334,-1.335c-0,-0.761 0.6,-1.334 1.334,-1.334c0.747,-0 1.335,0.573 1.335,1.334Zm-0,5.298c-0,0.734 -0.588,1.335 -1.335,1.335c-0.734,-0 -1.334,-0.601 -1.334,-1.335c-0,-0.747 0.6,-1.334 1.334,-1.334c0.747,-0 1.335,0.587 1.335,1.334Zm-0,5.311c-0,0.734 -0.588,1.335 -1.335,1.335c-0.734,-0 -1.334,-0.601 -1.334,-1.335c-0,-0.747 0.6,-1.334 1.334,-1.334c0.747,-0 1.335,0.587 1.335,1.334Zm-0,5.312c-0,0.734 -0.588,1.334 -1.335,1.334c-0.734,0 -1.334,-0.6 -1.334,-1.334c-0,-0.734 0.6,-1.335 1.334,-1.335c0.747,0 1.335,0.601 1.335,1.335Zm-0,5.311c-0,0.747 -0.588,1.335 -1.335,1.335c-0.734,-0 -1.334,-0.588 -1.334,-1.335c-0,-0.734 0.6,-1.334 1.334,-1.334c0.747,-0 1.335,0.6 1.335,1.334Zm-0,5.338c-0,0.721 -0.588,1.335 -1.335,1.335c-0.734,-0 -1.334,-0.614 -1.334,-1.335c-0,-0.761 0.6,-1.334 1.334,-1.334c0.747,-0 1.335,0.573 1.335,1.334Zm-0,5.298c-0,0.734 -0.588,1.335 -1.335,1.335c-0.734,-0 -1.334,-0.601 -1.334,-1.335c-0,-0.734 0.6,-1.334 1.334,-1.334c0.747,-0 1.335,0.6 1.335,1.334Zm-0,5.311c-0,0.734 -0.588,1.335 -1.335,1.335c-0.734,-0 -1.334,-0.601 -1.334,-1.335c-0,-0.734 0.6,-1.334 1.334,-1.334c0.747,-0 1.335,0.6 1.335,1.334Zm-0,5.312c-0,0.734 -0.588,1.334 -1.335,1.334c-0.734,0 -1.334,-0.6 -1.334,-1.334c-0,-0.734 0.6,-1.335 1.334,-1.335c0.747,0 1.335,0.601 1.335,1.335Zm-0,5.311c-0,0.747 -0.588,1.335 -1.335,1.335c-0.734,-0 -1.334,-0.588 -1.334,-1.335c-0,-0.72 0.6,-1.334 1.334,-1.334c0.747,-0 1.335,0.614 1.335,1.334Zm-0,5.338c-0,0.721 -0.588,1.335 -1.335,1.335c-0.734,-0 -1.334,-0.614 -1.334,-1.335c-0,-0.747 0.6,-1.334 1.334,-1.334c0.747,-0 1.335,0.587 1.335,1.334Zm-0,5.298c-0,0.734 -0.588,1.335 -1.335,1.335c-0.734,-0 -1.334,-0.601 -1.334,-1.335c-0,-0.734 0.6,-1.334 1.334,-1.334c0.747,-0 1.335,0.6 1.335,1.334Zm-0,5.312c-0,0.734 -0.588,1.334 -1.335,1.334c-0.734,0 -1.334,-0.6 -1.334,-1.334c-0,-0.734 0.6,-1.335 1.334,-1.335c0.747,0 1.335,0.601 1.335,1.335Zm-0,5.311c-0,0.734 -0.588,1.334 -1.335,1.334c-0.734,0 -1.334,-0.6 -1.334,-1.334c-0,-0.734 0.6,-1.335 1.334,-1.335c0.747,0 1.335,0.601 1.335,1.335Zm-0,5.311c-0,0.748 -0.588,1.335 -1.335,1.335c-0.734,-0 -1.334,-0.587 -1.334,-1.335c-0,-0.72 0.6,-1.334 1.334,-1.334c0.747,-0 1.335,0.614 1.335,1.334Zm-0,5.338c-0,0.721 -0.588,1.335 -1.335,1.335c-0.734,-0 -1.334,-0.614 -1.334,-1.335c-0,-0.747 0.6,-1.334 1.334,-1.334c0.747,-0 1.335,0.587 1.335,1.334Zm-0,5.298c-0,0.734 -0.588,1.335 -1.335,1.335c-0.734,-0 -1.334,-0.601 -1.334,-1.335c-0,-0.734 0.6,-1.334 1.334,-1.334c0.747,-0 1.335,0.6 1.335,1.334Zm-0,5.312c-0,0.734 -0.588,1.334 -1.335,1.334c-0.734,0 -1.334,-0.6 -1.334,-1.334c-0,-0.734 0.6,-1.335 1.334,-1.335c0.747,0 1.335,0.601 1.335,1.335Zm-0,5.311c-0,0.734 -0.588,1.335 -1.335,1.335c-0.734,-0 -1.334,-0.601 -1.334,-1.335c-0,-0.734 0.6,-1.335 1.334,-1.335c0.747,0 1.335,0.601 1.335,1.335Zm-0,5.311c-0,0.761 -0.588,1.335 -1.335,1.335c-0.734,-0 -1.334,-0.574 -1.334,-1.335c-0,-0.72 0.6,-1.334 1.334,-1.334c0.747,-0 1.335,0.614 1.335,1.334Zm-0,5.338c-0,0.734 -0.588,1.335 -1.335,1.335c-0.734,-0 -1.334,-0.601 -1.334,-1.335c-0,-0.747 0.6,-1.334 1.334,-1.334c0.747,-0 1.335,0.587 1.335,1.334Zm-0,5.298c-0,0.748 -0.588,1.335 -1.335,1.335c-0.734,-0 -1.334,-0.587 -1.334,-1.335c-0,-0.734 0.6,-1.334 1.334,-1.334c0.747,-0 1.335,0.6 1.335,1.334Zm-0,5.338c-0,0.721 -0.588,1.335 -1.335,1.335c-0.734,-0 -1.334,-0.614 -1.334,-1.335c-0,-0.76 0.6,-1.334 1.334,-1.334c0.747,-0 1.335,0.574 1.335,1.334Zm-0,5.298c-0,0.734 -0.588,1.335 -1.335,1.335c-0.734,-0 -1.334,-0.601 -1.334,-1.335c-0,-0.747 0.6,-1.334 1.334,-1.334c0.747,-0 1.335,0.587 1.335,1.334Zm-0,5.312c-0,0.734 -0.588,1.334 -1.335,1.334c-0.734,0 -1.334,-0.6 -1.334,-1.334c-0,-0.748 0.6,-1.335 1.334,-1.335c0.747,0 1.335,0.587 1.335,1.335Zm-0,5.311c-0,0.734 -0.588,1.335 -1.335,1.335c-0.734,-0 -1.334,-0.601 -1.334,-1.335c-0,-0.747 0.6,-1.334 1.334,-1.334c0.747,-0 1.335,0.587 1.335,1.334Zm-0,5.311c-0,0.734 -0.588,1.335 -1.335,1.335c-0.734,-0 -1.334,-0.601 -1.334,-1.335c-0,-0.747 0.6,-1.334 1.334,-1.334c0.747,-0 1.335,0.587 1.335,1.334Zm-0,5.312c-0,0.734 -0.588,1.334 -1.335,1.334c-0.734,0 -1.334,-0.6 -1.334,-1.334c-0,-0.747 0.6,-1.335 1.334,-1.335c0.747,0 1.335,0.588 1.335,1.335Zm-0,5.311c-0,0.734 -0.588,1.335 -1.335,1.335c-0.734,-0 -1.334,-0.601 -1.334,-1.335c-0,-0.734 0.6,-1.334 1.334,-1.334c0.747,-0 1.335,0.6 1.335,1.334Zm-0,5.312c-0,0.734 -0.588,1.334 -1.335,1.334c-0.734,0 -1.334,-0.6 -1.334,-1.334c-0,-0.734 0.6,-1.335 1.334,-1.335c0.747,0 1.335,0.601 1.335,1.335Zm-0,5.311c-0,0.734 -0.588,1.334 -1.335,1.334c-0.734,0 -1.334,-0.6 -1.334,-1.334c-0,-0.734 0.6,-1.335 1.334,-1.335c0.747,0 1.335,0.601 1.335,1.335Zm-0,5.311c-0,0.734 -0.588,1.335 -1.335,1.335c-0.734,-0 -1.334,-0.601 -1.334,-1.335c-0,-0.734 0.6,-1.334 1.334,-1.334c0.747,-0 1.335,0.6 1.335,1.334Zm-0,5.312c-0,0.734 -0.588,1.334 -1.335,1.334c-0.734,0 -1.334,-0.6 -1.334,-1.334c-0,-0.734 0.6,-1.335 1.334,-1.335c0.747,0 1.335,0.601 1.335,1.335Zm-0,5.311c-0,0.734 -0.588,1.334 -1.335,1.334c-0.734,0 -1.334,-0.6 -1.334,-1.334c-0,-0.734 0.6,-1.335 1.334,-1.335c0.747,0 1.335,0.601 1.335,1.335Zm-0,5.311c-0,0.734 -0.588,1.335 -1.335,1.335c-0.734,-0 -1.334,-0.601 -1.334,-1.335c-0,-0.734 0.6,-1.334 1.334,-1.334c0.747,-0 1.335,0.6 1.335,1.334Zm-0,5.312c-0,0.734 -0.588,1.334 -1.335,1.334c-0.734,0 -1.334,-0.6 -1.334,-1.334c-0,-0.734 0.6,-1.335 1.334,-1.335c0.747,0 1.335,0.601 1.335,1.335Zm-0,5.311c-0,0.734 -0.588,1.334 -1.335,1.334c-0.734,0 -1.334,-0.6 -1.334,-1.334c-0,-0.734 0.6,-1.335 1.334,-1.335c0.747,0 1.335,0.601 1.335,1.335Zm-0,5.311c-0,0.734 -0.588,1.335 -1.335,1.335c-0.734,-0 -1.334,-0.601 -1.334,-1.335c-0,-0.734 0.6,-1.334 1.334,-1.334c0.747,-0 1.335,0.6 1.335,1.334Zm-0,5.312c-0,0.734 -0.588,1.334 -1.335,1.334c-0.734,0 -1.334,-0.6 -1.334,-1.334c-0,-0.734 0.6,-1.335 1.334,-1.335c0.747,0 1.335,0.601 1.335,1.335Zm-0,5.311c-0,0.734 -0.588,1.335 -1.335,1.335c-0.734,-0 -1.334,-0.601 -1.334,-1.335c-0,-0.734 0.6,-1.334 1.334,-1.334c0.747,-0 1.335,0.6 1.335,1.334Zm-0,5.311c-0,0.734 -0.588,1.335 -1.335,1.335c-0.734,-0 -1.334,-0.601 -1.334,-1.335c-0,-0.734 0.6,-1.334 1.334,-1.334c0.747,-0 1.335,0.6 1.335,1.334Zm-0,5.312c-0,0.734 -0.588,1.334 -1.335,1.334c-0.734,0 -1.334,-0.6 -1.334,-1.334c-0,-0.734 0.6,-1.335 1.334,-1.335c0.747,0 1.335,0.601 1.335,1.335Zm-0,5.311c-0,0.734 -0.588,1.335 -1.335,1.335c-0.734,-0 -1.334,-0.601 -1.334,-1.335c-0,-0.734 0.6,-1.334 1.334,-1.334c0.747,-0 1.335,0.6 1.335,1.334Zm-0,5.311c-0,0.734 -0.588,1.335 -1.335,1.335c-0.734,-0 -1.334,-0.601 -1.334,-1.335c-0,-0.734 0.6,-1.334 1.334,-1.334c0.747,-0 1.335,0.6 1.335,1.334Zm-0,5.312c-0,0.747 -0.588,1.334 -1.335,1.334c-0.734,0 -1.334,-0.587 -1.334,-1.334c-0,-0.734 0.6,-1.335 1.334,-1.335c0.747,0 1.335,0.601 1.335,1.335Zm-0,5.311c-0,0.747 -0.588,1.335 -1.335,1.335c-0.734,-0 -1.334,-0.588 -1.334,-1.335c-0,-0.734 0.6,-1.334 1.334,-1.334c0.747,-0 1.335,0.6 1.335,1.334Zm-0,5.311c-0,0.748 -0.588,1.335 -1.335,1.335c-0.734,-0 -1.334,-0.587 -1.334,-1.335c-0,-0.734 0.6,-1.334 1.334,-1.334c0.747,-0 1.335,0.6 1.335,1.334Zm-0,5.338c-0,0.721 -0.588,1.335 -1.335,1.335c-0.734,0 -1.334,-0.614 -1.334,-1.335c-0,-0.76 0.6,-1.334 1.334,-1.334c0.747,-0 1.335,0.574 1.335,1.334Zm-0,5.298c-0,0.734 -0.588,1.335 -1.335,1.335c-0.734,0 -1.334,-0.601 -1.334,-1.335c-0,-0.747 0.6,-1.334 1.334,-1.334c0.747,-0 1.335,0.587 1.335,1.334Zm-0,5.312c-0,0.734 -0.588,1.334 -1.335,1.334c-0.734,0 -1.334,-0.6 -1.334,-1.334c-0,-0.747 0.6,-1.335 1.334,-1.335c0.747,0 1.335,0.588 1.335,1.335Zm-0,5.311c-0,0.748 -0.588,1.335 -1.335,1.335c-0.734,-0 -1.334,-0.587 -1.334,-1.335c-0,-0.734 0.6,-1.334 1.334,-1.334c0.747,-0 1.335,0.6 1.335,1.334Zm-0,5.338c-0,0.721 -0.588,1.335 -1.335,1.335c-0.734,-0 -1.334,-0.614 -1.334,-1.335c-0,-0.76 0.6,-1.334 1.334,-1.334c0.747,-0 1.335,0.574 1.335,1.334Zm-0,5.298c-0,0.734 -0.588,1.335 -1.335,1.335c-0.734,-0 -1.334,-0.601 -1.334,-1.335c-0,-0.747 0.6,-1.334 1.334,-1.334c0.747,-0 1.335,0.587 1.335,1.334Zm0.8,4.938c0,0.747 -0.614,1.334 -1.334,1.334c-0.748,0 -1.335,-0.587 -1.335,-1.334c0,-0.734 0.587,-1.335 1.335,-1.335c0.72,0 1.334,0.601 1.334,1.335Zm2.269,4.471c-0,0.734 -0.601,1.334 -1.335,1.334c-0.747,0 -1.334,-0.6 -1.334,-1.334c-0,-0.734 0.587,-1.335 1.334,-1.335c0.734,0 1.335,0.601 1.335,1.335Zm3.536,3.536c0,0.747 -0.6,1.334 -1.334,1.334c-0.734,0 -1.335,-0.587 -1.335,-1.334c0,-0.734 0.601,-1.335 1.335,-1.335c0.734,0 1.334,0.601 1.334,1.335Zm4.471,2.269c-0,0.747 -0.601,1.334 -1.335,1.334c-0.747,0 -1.334,-0.587 -1.334,-1.334c-0,-0.721 0.587,-1.335 1.334,-1.335c0.734,0 1.335,0.614 1.335,1.335Zm4.938,0.8c-0,0.734 -0.588,1.335 -1.335,1.335c-0.734,-0 -1.334,-0.601 -1.334,-1.335c-0,-0.747 0.6,-1.334 1.334,-1.334c0.747,-0 1.335,0.587 1.335,1.334Zm5.471,0c0,0.734 -0.587,1.335 -1.334,1.335c-0.721,-0 -1.335,-0.601 -1.335,-1.335c0,-0.747 0.614,-1.334 1.335,-1.334c0.747,-0 1.334,0.587 1.334,1.334Zm5.472,0c-0,0.734 -0.574,1.335 -1.335,1.335c-0.721,-0 -1.334,-0.601 -1.334,-1.335c-0,-0.747 0.613,-1.334 1.334,-1.334c0.761,-0 1.335,0.587 1.335,1.334Zm5.498,0c-0,0.734 -0.601,1.335 -1.335,1.335c-0.734,-0 -1.334,-0.601 -1.334,-1.335c-0,-0.747 0.6,-1.334 1.334,-1.334c0.734,-0 1.335,0.587 1.335,1.334Zm5.471,0c0,0.734 -0.587,1.335 -1.334,1.335c-0.734,-0 -1.335,-0.601 -1.335,-1.335c0,-0.747 0.601,-1.334 1.335,-1.334c0.747,-0 1.334,0.587 1.334,1.334Zm5.472,0c-0,0.734 -0.587,1.335 -1.335,1.335c-0.72,-0 -1.334,-0.601 -1.334,-1.335c-0,-0.747 0.614,-1.334 1.334,-1.334c0.748,-0 1.335,0.587 1.335,1.334Zm5.471,0c0,0.734 -0.574,1.335 -1.334,1.335c-0.721,-0 -1.335,-0.601 -1.335,-1.335c0,-0.747 0.614,-1.334 1.335,-1.334c0.76,-0 1.334,0.587 1.334,1.334Zm5.498,0c0,0.734 -0.6,1.335 -1.334,1.335c-0.734,-0 -1.335,-0.601 -1.335,-1.335c0,-0.747 0.601,-1.334 1.335,-1.334c0.734,-0 1.334,0.587 1.334,1.334Zm5.472,0c-0,0.734 -0.587,1.335 -1.335,1.335c-0.734,-0 -1.334,-0.601 -1.334,-1.335c-0,-0.747 0.6,-1.334 1.334,-1.334c0.748,-0 1.335,0.587 1.335,1.334Zm5.471,0c0,0.734 -0.587,1.335 -1.334,1.335c-0.721,-0 -1.335,-0.601 -1.335,-1.335c0,-0.747 0.614,-1.334 1.335,-1.334c0.747,-0 1.334,0.587 1.334,1.334Zm5.472,0c-0,0.734 -0.574,1.335 -1.335,1.335c-0.72,-0 -1.334,-0.601 -1.334,-1.335c-0,-0.747 0.614,-1.334 1.334,-1.334c0.761,-0 1.335,0.587 1.335,1.334Zm5.498,0c0,0.734 -0.6,1.335 -1.334,1.335c-0.734,-0 -1.335,-0.601 -1.335,-1.335c0,-0.747 0.601,-1.334 1.335,-1.334c0.734,-0 1.334,0.587 1.334,1.334Z" style="fill:#008aff;fill-rule:nonzero;"/>
            <path d="M370.831,108.526l0,-26.691m-26.69,13.346l26.69,-0" style="fill:#fff;fill-rule:nonzero;stroke:#008aff;stroke-width:2.67px;"/>
            <path d="M557.289,432.705l-26.69,-13.345l26.69,-13.345" style="fill:#fff;fill-opacity:0;fill-rule:nonzero;stroke:#008aff;stroke-width:2.67px;"/>
            <path d="M557.289,419.36l-26.69,-0" style="fill:none;fill-rule:nonzero;stroke:#008aff;stroke-width:2.67px;"/>
        </g>
    </g>
</svg>
